<?xml version="1.0" standalone="no"?>
<!DOCTYPE svg PUBLIC "-//W3C//DTD SVG 20010904//EN"
 "http://www.w3.org/TR/2001/REC-SVG-20010904/DTD/svg10.dtd">
<svg version="1.0" xmlns="http://www.w3.org/2000/svg"
 width="399.000000pt" height="294.000000pt" viewBox="0 0 399.000000 294.000000"
 preserveAspectRatio="xMidYMid meet">

<g transform="translate(0.000000,294.000000) scale(0.100000,-0.100000)"
fill="#000000" stroke="none">
<path d="M0 1470 l0 -1470 1995 0 1995 0 0 1470 0 1470 -1995 0 -1995 0 0
-1470z m1300 1345 c0 -2 -62 -129 -139 -282 -76 -153 -209 -420 -296 -594
l-157 -316 35 -74 c19 -41 70 -146 112 -234 109 -226 182 -379 220 -460 18
-38 74 -154 124 -258 50 -103 91 -192 91 -197 0 -6 -96 -10 -264 -10 l-264 0
-15 33 c-9 17 -77 157 -151 310 -75 154 -136 280 -136 281 0 2 -65 136 -145
299 -80 164 -145 302 -145 308 0 7 89 188 199 403 109 215 244 482 300 594
l102 202 265 0 c145 0 264 -2 264 -5z m311 -131 c112 -75 214 -146 227 -157
13 -12 87 -118 166 -237 212 -319 219 -331 209 -350 -27 -57 -150 -249 -158
-249 -11 -1 -32 31 -247 359 -74 113 -206 313 -293 445 -165 250 -182 281
-172 309 15 38 61 18 268 -120z m1050 104 c-12 -18 -31 -50 -43 -70 l-22 -38
-412 0 c-266 0 -415 -4 -419 -10 -3 -6 4 -24 16 -41 l22 -31 -24 12 c-22 12
-298 196 -308 206 -2 2 269 4 603 4 l608 0 -21 -32z m590 -8 c19 -34 258 -522
470 -959 60 -123 109 -228 109 -233 0 -6 -134 -277 -297 -604 l-298 -594 -268
0 c-258 0 -267 1 -258 19 6 10 139 279 296 597 l286 578 -26 58 c-14 31 -88
185 -165 342 -77 157 -168 345 -203 418 -36 73 -94 194 -131 269 -36 75 -66
139 -66 143 0 3 119 5 266 4 l265 -3 20 -35z m-863 -882 c-8 -13 -31 -52 -52
-88 -20 -36 -56 -96 -80 -135 -24 -38 -110 -180 -193 -315 -82 -135 -196 -320
-254 -412 -57 -92 -116 -187 -130 -210 -24 -42 -27 -43 -82 -46 -31 -2 -57 -1
-57 2 0 3 26 47 58 98 32 51 61 100 65 108 4 8 27 47 51 85 25 39 61 99 82
135 36 61 270 439 394 635 31 50 67 107 79 128 22 36 25 37 78 37 55 0 55 0
41 -22z m366 -946 c4 -7 -11 -118 -49 -362 -9 -58 -20 -125 -23 -150 l-7 -45
-669 -3 -668 -2 18 29 c117 180 140 210 168 215 16 3 201 6 413 6 230 0 413 4
456 11 162 25 261 111 307 267 9 29 19 42 31 42 10 0 20 -3 23 -8z m-1914
-647 c0 -9 -9 -15 -25 -15 -16 0 -25 -6 -25 -15 0 -8 9 -15 20 -15 11 0 20 -7
20 -15 0 -8 -9 -15 -20 -15 -11 0 -20 -7 -20 -15 0 -9 9 -15 25 -15 16 0 25
-6 25 -15 0 -11 -11 -15 -40 -15 l-40 0 0 68 c0 38 3 72 7 75 3 4 21 7 40 7
23 0 33 -5 33 -15z m490 -27 c0 31 4 42 15 42 12 0 15 -15 15 -77 l0 -77 -45
44 -45 44 0 -42 c0 -31 -4 -42 -15 -42 -12 0 -15 15 -15 77 l0 77 45 -44 45
-44 0 42z m460 -33 c0 -60 -3 -75 -15 -75 -12 0 -15 15 -15 75 0 60 3 75 15
75 12 0 15 -15 15 -75z m504 69 c9 -3 16 -13 16 -21 0 -11 -7 -13 -29 -8 -58
13 -84 -60 -28 -79 21 -8 31 -6 44 7 16 16 16 17 -5 17 -13 0 -22 6 -22 15 0
10 11 15 35 15 29 0 35 -4 35 -20 0 -29 -44 -70 -75 -70 -33 0 -75 42 -75 75
0 49 58 87 104 69z m356 -76 c0 -10 30 -11 30 0 0 4 14 23 30 42 l29 35 1 -72
c0 -58 -3 -73 -15 -73 -10 0 -15 10 -15 33 l-1 32 -17 -27 c-9 -16 -21 -28
-27 -28 -6 0 -18 12 -27 28 l-17 27 -1 -32 c0 -23 -5 -33 -15 -33 -12 0 -15
15 -15 73 l1 72 29 -35 c17 -19 30 -38 30 -42z m584 7 c30 -70 29 -90 -5 -59
-20 18 -22 18 -51 1 -17 -10 -33 -15 -36 -13 -5 6 50 136 58 136 3 0 18 -29
34 -65z"/>
<path d="M3190 230 c0 -5 5 -10 10 -10 6 0 10 5 10 10 0 6 -4 10 -10 10 -5 0
-10 -4 -10 -10z"/>
</g>
</svg>
