<svg id="svg" version="1.1" xmlns="http://www.w3.org/2000/svg" xmlns:xlink="http://www.w3.org/1999/xlink" width="75" height="75" viewBox="0, 0, 400,400"><g id="svgg"><path id="path0" d="M188.700 79.297 C 186.852 79.613,186.400 79.839,186.400 80.445 C 186.400 81.407,184.574 81.477,183.272 80.565 C 182.669 80.143,182.204 80.059,181.883 80.314 C 181.617 80.525,180.256 80.696,178.859 80.692 C 176.433 80.686,175.309 81.205,175.850 82.081 C 175.958 82.256,175.777 82.400,175.447 82.400 C 175.117 82.400,174.736 82.220,174.600 82.000 C 174.153 81.277,172.873 81.581,172.071 82.600 C 171.222 83.680,170.560 83.879,170.309 83.128 C 170.219 82.857,169.854 82.770,169.451 82.925 C 169.065 83.073,168.861 83.376,168.998 83.597 C 169.343 84.155,168.664 84.104,168.088 83.528 C 167.729 83.169,167.400 83.167,166.708 83.520 C 166.209 83.775,165.294 84.167,164.676 84.391 C 163.987 84.641,163.662 84.976,163.836 85.258 C 164.035 85.581,163.808 85.639,163.070 85.453 C 162.224 85.241,162.068 85.311,162.261 85.815 C 162.453 86.314,162.299 86.390,161.504 86.190 C 160.287 85.885,157.084 86.689,157.412 87.219 C 157.541 87.428,157.382 87.600,157.057 87.600 C 156.732 87.600,156.375 87.825,156.264 88.100 C 156.107 88.487,155.973 88.475,155.675 88.049 C 155.256 87.449,154.239 87.816,154.619 88.431 C 154.747 88.637,154.370 88.587,153.782 88.319 C 152.890 87.913,152.636 87.935,152.256 88.450 C 151.615 89.320,150.063 90.086,149.567 89.779 C 149.337 89.638,148.846 89.795,148.475 90.130 C 148.104 90.464,147.350 90.853,146.800 90.994 C 145.443 91.341,143.878 92.678,144.206 93.210 C 144.360 93.459,143.950 93.839,143.237 94.109 C 142.556 94.365,142.000 94.705,142.000 94.863 C 142.000 95.020,141.361 95.046,140.580 94.919 C 139.435 94.734,138.950 94.880,138.080 95.672 C 136.620 97.000,134.960 98.000,134.214 98.000 C 133.876 98.000,133.600 98.184,133.600 98.410 C 133.600 98.635,133.150 98.991,132.600 99.200 C 132.050 99.409,131.600 99.765,131.600 99.990 C 131.600 100.216,131.285 100.400,130.900 100.400 C 130.515 100.400,129.412 101.120,128.449 102.000 C 127.487 102.880,126.613 103.600,126.507 103.600 C 126.401 103.600,125.961 104.050,125.529 104.600 C 125.096 105.150,124.404 105.600,123.991 105.600 C 123.578 105.600,123.096 105.844,122.920 106.142 C 122.744 106.439,122.195 106.896,121.700 107.156 C 121.205 107.416,120.800 107.849,120.800 108.119 C 120.800 108.389,120.395 108.788,119.900 109.005 C 119.405 109.222,119.000 109.599,119.000 109.842 C 119.000 110.382,116.659 112.400,116.032 112.400 C 115.784 112.400,115.402 112.867,115.185 113.439 C 114.968 114.010,114.433 114.571,113.995 114.685 C 113.558 114.800,113.200 115.125,113.200 115.407 C 113.200 115.690,112.120 116.856,110.800 118.000 C 109.480 119.144,108.400 120.370,108.400 120.725 C 108.400 121.080,107.910 121.760,107.312 122.238 C 106.373 122.986,106.297 123.194,106.761 123.753 C 107.056 124.109,107.141 124.414,106.949 124.431 C 105.721 124.538,105.081 124.858,104.073 125.866 C 103.053 126.886,102.718 128.345,103.634 127.779 C 104.274 127.383,104.027 128.279,103.339 128.851 C 102.975 129.153,102.660 129.329,102.639 129.241 C 102.375 128.155,98.000 133.099,98.000 134.484 C 98.000 134.733,97.754 135.221,97.454 135.569 C 96.762 136.368,96.201 138.570,96.779 138.213 C 97.024 138.062,97.094 138.210,96.954 138.576 C 96.791 139.001,96.417 139.119,95.758 138.954 C 94.880 138.733,94.624 139.000,94.728 140.027 C 94.741 140.152,94.311 140.766,93.774 141.391 C 93.236 142.017,92.612 143.212,92.387 144.046 C 92.163 144.881,91.701 145.842,91.362 146.181 C 90.559 146.984,89.944 149.118,90.429 149.418 C 90.633 149.544,90.797 149.862,90.794 150.124 C 90.790 150.410,90.633 150.361,90.400 150.000 C 90.118 149.564,90.011 149.543,90.006 149.924 C 90.003 150.212,89.820 150.336,89.600 150.200 C 89.380 150.064,89.200 150.263,89.200 150.641 C 89.200 151.020,88.771 152.066,88.246 152.965 C 87.721 153.864,87.078 155.635,86.818 156.900 C 86.557 158.165,86.183 159.200,85.987 159.200 C 85.791 159.200,85.440 159.965,85.206 160.900 C 84.973 161.835,84.608 162.909,84.395 163.287 C 83.599 164.705,83.152 167.661,83.645 168.255 C 83.903 168.565,83.998 168.935,83.857 169.076 C 83.716 169.218,83.599 169.078,83.597 168.767 C 83.591 167.370,82.048 170.730,81.769 172.749 C 81.438 175.150,81.450 175.089,81.101 176.000 C 80.578 177.366,80.499 178.400,80.917 178.400 C 81.237 178.400,81.235 178.525,80.911 178.849 C 80.664 179.096,80.562 179.558,80.684 179.876 C 80.806 180.194,80.676 180.884,80.395 181.409 C 79.965 182.212,79.989 182.523,80.542 183.368 C 81.428 184.720,81.370 185.334,80.313 185.805 C 79.534 186.152,79.441 186.457,79.544 188.322 C 79.609 189.489,79.459 190.688,79.211 190.986 C 78.896 191.366,78.889 191.608,79.187 191.792 C 79.421 191.937,79.507 192.226,79.378 192.435 C 78.405 194.010,79.139 210.728,80.137 209.730 C 80.282 209.585,80.400 209.857,80.400 210.333 C 80.400 210.810,80.241 211.200,80.047 211.200 C 79.391 211.200,79.289 213.176,79.917 213.697 C 80.250 213.974,80.570 214.110,80.628 214.000 C 80.686 213.890,80.868 213.935,81.033 214.100 C 81.198 214.265,81.111 214.400,80.840 214.400 C 80.524 214.400,80.440 214.696,80.606 215.219 C 80.749 215.670,80.651 216.297,80.388 216.614 C 80.081 216.985,80.024 217.583,80.230 218.295 C 80.405 218.903,80.574 219.760,80.606 220.200 C 80.637 220.640,80.694 221.324,80.732 221.719 C 80.769 222.115,81.274 222.877,81.853 223.414 C 82.685 224.186,82.809 224.507,82.441 224.950 C 82.097 225.365,82.087 226.016,82.403 227.455 C 83.043 230.375,83.223 230.833,83.629 230.582 C 83.833 230.456,84.000 230.633,84.000 230.976 C 84.000 231.319,83.820 231.600,83.600 231.600 C 82.968 231.600,83.131 232.961,83.991 234.856 C 84.426 235.815,84.792 237.050,84.804 237.600 C 84.816 238.150,85.084 238.942,85.400 239.359 C 85.716 239.776,85.894 240.249,85.795 240.409 C 85.470 240.934,87.929 246.562,89.149 248.085 C 89.450 248.462,89.591 249.046,89.462 249.382 C 89.333 249.719,89.560 250.311,89.966 250.697 C 90.936 251.621,92.800 255.355,92.800 256.375 C 92.800 256.936,93.190 257.290,94.100 257.552 C 94.815 257.759,95.175 257.944,94.900 257.964 C 94.108 258.021,94.319 259.938,95.200 260.693 C 95.640 261.070,96.000 261.516,96.000 261.686 C 96.000 261.855,96.346 262.400,96.770 262.897 C 98.918 265.418,99.238 265.753,98.972 265.200 C 98.749 264.738,98.797 264.705,99.178 265.057 C 99.550 265.400,99.564 265.720,99.232 266.340 C 98.866 267.025,98.928 267.240,99.595 267.597 C 100.038 267.834,100.400 268.264,100.400 268.552 C 100.400 268.840,100.760 269.402,101.200 269.800 C 101.640 270.198,102.000 270.760,102.000 271.048 C 102.000 271.656,103.457 272.536,103.955 272.228 C 104.477 271.905,105.719 273.484,105.377 274.037 C 105.202 274.321,105.243 274.420,105.478 274.276 C 105.709 274.133,105.893 274.525,105.912 275.202 C 105.953 276.613,107.659 278.616,108.534 278.281 C 109.306 277.984,110.089 278.902,109.772 279.730 C 109.466 280.527,111.091 282.687,113.458 284.626 C 114.781 285.710,115.224 285.913,115.129 285.392 C 115.058 285.002,115.270 284.606,115.600 284.511 C 115.957 284.409,116.038 284.473,115.800 284.670 C 115.241 285.131,115.117 286.800,115.641 286.800 C 115.878 286.800,116.930 287.655,117.977 288.700 C 120.775 291.490,123.201 293.600,123.611 293.600 C 123.810 293.600,124.165 293.960,124.400 294.400 C 124.635 294.840,125.113 295.200,125.461 295.200 C 125.809 295.200,126.792 295.920,127.646 296.800 C 128.500 297.680,129.559 298.400,130.000 298.400 C 130.440 298.400,130.801 298.625,130.803 298.900 C 130.804 299.175,131.389 299.747,132.103 300.172 C 133.494 301.000,133.456 300.993,134.488 300.591 C 135.008 300.389,135.344 300.676,135.862 301.762 C 136.243 302.560,136.844 303.200,137.212 303.200 C 137.577 303.200,138.202 303.560,138.600 304.000 C 138.998 304.440,139.656 304.800,140.062 304.800 C 140.468 304.800,140.800 304.980,140.800 305.200 C 140.800 305.420,141.160 305.600,141.600 305.600 C 142.040 305.600,142.400 305.420,142.400 305.200 C 142.400 304.980,142.616 304.800,142.880 304.800 C 143.235 304.800,143.243 304.917,142.911 305.249 C 142.294 305.866,142.726 306.800,143.627 306.800 C 144.035 306.800,144.709 307.165,145.125 307.611 C 145.541 308.058,146.223 308.497,146.640 308.587 C 148.430 308.973,151.648 310.320,152.393 310.994 C 152.837 311.395,153.200 311.578,153.200 311.400 C 153.200 311.222,153.515 311.351,153.900 311.687 C 155.036 312.679,157.538 313.349,158.165 312.829 C 158.745 312.348,160.125 312.675,159.791 313.215 C 159.147 314.256,162.259 315.144,163.605 314.304 C 164.238 313.909,164.562 313.909,165.195 314.304 C 166.105 314.872,167.200 314.960,167.200 314.464 C 167.200 314.280,167.662 313.918,168.226 313.661 C 168.991 313.313,169.189 312.994,169.003 312.410 C 168.814 311.815,168.981 311.570,169.695 311.391 C 171.323 310.982,171.411 310.278,171.269 298.716 C 171.140 288.179,171.095 287.621,170.361 287.388 C 169.936 287.253,169.679 286.996,169.790 286.817 C 170.120 286.282,168.574 286.070,167.757 286.538 C 167.341 286.776,166.820 286.992,166.600 287.018 C 165.159 287.190,163.647 287.753,163.830 288.049 C 164.157 288.578,163.429 288.472,162.146 287.802 C 160.747 287.073,159.838 287.044,158.795 287.696 C 158.158 288.094,157.834 288.089,157.166 287.672 C 156.284 287.121,154.000 287.380,154.000 288.032 C 154.000 288.234,153.640 288.400,153.200 288.400 C 152.748 288.400,152.400 288.133,152.400 287.787 C 152.400 286.950,151.321 286.601,150.595 287.204 C 150.197 287.535,150.000 287.553,150.000 287.259 C 150.000 286.601,147.662 285.523,146.140 285.479 C 145.403 285.459,144.793 285.252,144.784 285.021 C 144.753 284.228,140.839 282.670,140.203 283.197 C 139.445 283.827,138.683 283.338,139.143 282.516 C 139.511 281.859,137.790 280.023,136.296 279.479 C 135.909 279.338,135.639 279.050,135.696 278.839 C 135.753 278.628,135.230 277.844,134.532 277.097 C 133.094 275.555,131.285 272.351,130.186 269.400 C 129.776 268.300,129.342 267.310,129.221 267.200 C 129.099 267.090,128.550 266.125,128.000 265.057 C 127.450 263.988,126.775 263.023,126.500 262.914 C 126.225 262.804,126.000 262.353,126.000 261.911 C 126.000 261.303,125.804 261.158,125.199 261.316 C 124.759 261.431,124.488 261.381,124.597 261.204 C 124.706 261.028,124.436 260.460,123.997 259.942 C 123.293 259.111,123.227 259.095,123.437 259.800 C 123.612 260.389,123.573 260.456,123.287 260.056 C 123.073 259.756,122.977 259.211,123.073 258.844 C 123.178 258.441,122.590 257.505,121.593 256.488 C 120.137 255.003,119.363 254.592,118.314 254.748 C 118.157 254.771,118.123 254.544,118.239 254.243 C 118.446 253.703,116.666 252.000,115.893 252.000 C 115.673 252.000,115.158 251.612,114.747 251.139 C 114.336 250.665,113.999 250.440,113.998 250.639 C 113.996 250.837,113.723 250.478,113.390 249.840 C 113.058 249.203,112.834 248.663,112.893 248.640 C 113.722 248.327,114.578 247.579,114.500 247.237 C 114.362 246.634,114.726 246.680,117.418 247.606 C 118.707 248.050,120.381 248.489,121.138 248.583 C 121.894 248.677,122.704 248.944,122.937 249.177 C 123.471 249.711,125.332 249.737,125.003 249.205 C 124.848 248.954,125.094 248.933,125.680 249.149 C 126.270 249.365,126.646 249.874,126.729 250.567 C 126.800 251.161,127.160 251.751,127.529 251.878 C 127.898 252.005,128.650 252.525,129.200 253.034 C 132.207 255.816,133.475 256.806,133.000 256.000 C 132.702 255.494,132.747 255.481,133.283 255.916 C 133.670 256.229,133.904 256.996,133.879 257.867 C 133.849 258.946,134.096 259.524,134.874 260.193 C 135.443 260.683,136.041 261.497,136.201 262.004 C 136.694 263.557,138.860 265.649,139.842 265.521 C 140.849 265.389,142.393 266.614,142.415 267.562 C 142.444 268.838,145.238 270.491,146.979 270.262 C 147.848 270.148,148.334 270.193,148.060 270.363 C 147.271 270.850,148.259 271.427,151.132 272.157 C 154.117 272.915,154.118 272.915,153.800 272.400 C 153.664 272.180,153.908 272.000,154.343 272.000 C 154.778 272.000,155.209 272.225,155.302 272.500 C 155.433 272.890,155.616 272.879,156.135 272.451 C 156.567 272.094,156.800 272.059,156.800 272.351 C 156.800 273.121,157.664 272.842,157.884 272.000 C 158.110 271.137,160.400 270.807,160.400 271.637 C 160.400 272.163,163.344 271.900,164.095 271.308 C 164.373 271.088,165.201 270.915,165.935 270.921 C 166.670 270.928,167.406 270.714,167.572 270.446 C 167.738 270.177,168.037 270.010,168.237 270.074 C 169.986 270.633,172.332 267.603,170.966 266.549 C 170.467 266.165,170.495 266.068,171.153 265.896 C 172.000 265.675,172.951 261.736,172.330 261.020 C 171.757 260.359,171.968 260.107,173.000 260.220 C 173.812 260.309,174.000 260.154,174.000 259.396 C 174.000 258.882,174.525 257.937,175.166 257.296 C 175.807 256.655,176.425 255.537,176.539 254.811 C 176.654 254.086,176.961 253.292,177.223 253.046 C 177.589 252.703,177.595 252.799,177.252 253.468 C 176.815 254.319,176.830 254.324,178.003 253.738 C 179.379 253.052,179.524 252.557,178.446 252.215 C 178.032 252.083,177.717 251.666,177.746 251.288 C 177.789 250.741,177.348 250.549,175.600 250.351 C 174.390 250.213,172.950 249.980,172.400 249.832 C 171.850 249.683,170.500 249.470,169.400 249.358 C 168.300 249.245,166.770 248.902,166.000 248.595 C 164.406 247.959,159.839 246.800,158.929 246.800 C 158.596 246.800,157.802 246.429,157.166 245.975 C 156.529 245.522,155.331 245.046,154.504 244.918 C 152.646 244.631,150.036 243.358,149.744 242.597 C 149.540 242.067,148.117 241.362,147.543 241.506 C 147.402 241.542,146.772 241.090,146.143 240.501 C 144.907 239.343,144.134 239.060,143.778 239.636 C 143.405 240.239,142.855 240.050,142.374 239.152 C 142.012 238.476,142.026 238.369,142.439 238.624 C 142.724 238.800,142.540 238.358,142.029 237.641 C 141.518 236.923,140.853 236.242,140.550 236.126 C 140.248 236.009,140.000 235.699,140.000 235.437 C 140.000 235.174,139.190 234.187,138.200 233.243 C 137.210 232.300,136.400 231.364,136.400 231.164 C 136.400 230.964,136.130 230.800,135.801 230.800 C 135.098 230.800,132.819 227.340,132.808 226.257 C 132.802 225.664,132.597 225.564,131.800 225.764 C 131.250 225.902,130.800 225.847,130.800 225.640 C 130.800 225.434,130.693 224.936,130.562 224.533 C 130.365 223.926,130.398 223.903,130.751 224.400 C 131.068 224.846,131.113 224.590,130.927 223.400 C 130.789 222.520,130.569 221.710,130.438 221.600 C 130.160 221.367,129.382 219.737,129.027 218.643 C 128.892 218.226,128.674 217.993,128.543 218.124 C 128.288 218.379,127.200 217.446,127.200 216.973 C 127.200 216.816,127.482 216.482,127.827 216.230 C 128.503 215.736,127.923 212.059,127.153 211.950 C 126.959 211.923,126.635 211.878,126.433 211.850 C 125.616 211.739,125.527 211.162,126.130 209.891 C 126.740 208.605,126.669 207.096,125.953 206.172 C 125.771 205.937,125.683 205.037,125.757 204.172 C 125.832 203.308,125.797 202.434,125.681 202.232 C 125.564 202.030,125.453 201.130,125.434 200.232 C 125.410 199.070,125.242 198.634,124.850 198.717 C 124.441 198.803,124.367 198.547,124.560 197.717 C 125.246 194.764,125.279 191.740,124.647 189.879 C 123.795 187.369,123.830 186.881,124.869 186.728 C 125.977 186.565,126.209 185.866,125.418 185.075 C 124.762 184.419,124.556 183.402,125.155 183.772 C 125.722 184.123,126.517 182.878,126.616 181.484 C 126.755 179.528,127.243 177.875,127.908 177.109 C 128.321 176.633,128.441 175.921,128.294 174.822 C 128.176 173.945,128.197 173.242,128.340 173.261 C 129.310 173.388,129.761 172.944,130.659 170.984 C 131.217 169.765,131.581 168.528,131.468 168.234 C 131.351 167.929,131.679 167.510,132.232 167.258 C 132.764 167.016,133.200 166.550,133.200 166.223 C 133.200 165.896,133.560 165.435,134.000 165.200 C 134.829 164.756,135.122 163.200,134.376 163.200 C 134.143 163.200,134.064 163.020,134.200 162.800 C 134.336 162.580,134.957 162.400,135.581 162.400 C 137.116 162.400,137.715 159.413,136.348 158.568 C 136.157 158.450,136.000 157.902,136.000 157.350 C 136.000 156.799,135.827 156.025,135.616 155.631 C 135.405 155.236,135.189 154.258,135.135 153.457 C 135.081 152.656,134.886 152.000,134.702 152.000 C 134.518 152.000,134.455 150.890,134.562 149.534 C 134.670 148.178,134.581 146.738,134.365 146.334 C 134.116 145.869,134.113 145.600,134.357 145.600 C 134.569 145.600,134.735 144.925,134.725 144.100 C 134.715 143.275,134.945 141.262,135.236 139.627 C 135.645 137.324,135.656 136.619,135.282 136.494 C 134.597 136.266,134.683 135.200,135.386 135.200 C 136.142 135.200,136.707 134.120,137.040 132.041 C 137.186 131.129,137.452 130.292,137.631 130.181 C 138.886 129.405,147.239 130.429,150.149 131.715 C 151.001 132.092,151.850 132.400,152.035 132.400 C 152.658 132.400,155.200 133.744,155.200 134.074 C 155.200 134.253,155.628 134.400,156.151 134.400 C 156.674 134.400,157.349 134.698,157.651 135.062 C 158.549 136.145,161.448 137.288,163.333 137.303 C 163.957 137.307,164.266 137.436,164.020 137.588 C 163.774 137.740,163.689 138.166,163.831 138.535 C 164.138 139.338,166.090 139.929,166.305 139.286 C 166.555 138.534,167.523 139.208,167.318 139.992 C 167.193 140.469,167.457 140.950,168.062 141.346 C 168.990 141.953,169.249 141.964,171.200 141.474 C 171.750 141.336,172.896 141.126,173.747 141.006 C 175.670 140.737,176.113 140.473,175.840 139.760 C 175.592 139.115,176.056 139.016,176.632 139.592 C 176.886 139.846,177.862 139.849,179.412 139.600 C 180.725 139.389,182.430 139.233,183.200 139.254 C 183.970 139.274,185.076 139.103,185.657 138.872 C 186.238 138.641,187.075 138.547,187.516 138.662 C 187.957 138.778,188.708 138.663,189.185 138.408 C 189.811 138.073,190.197 138.065,190.575 138.379 C 190.863 138.618,191.419 138.691,191.812 138.540 C 192.204 138.390,193.171 138.272,193.962 138.279 C 195.478 138.292,196.541 137.751,196.172 137.155 C 195.662 136.329,203.559 136.759,204.402 137.602 C 205.102 138.302,205.561 138.377,207.968 138.186 C 209.529 138.062,210.833 138.131,210.965 138.344 C 211.186 138.701,214.278 139.182,217.800 139.406 C 218.680 139.462,220.232 139.640,221.248 139.800 C 222.471 139.994,223.189 139.942,223.371 139.646 C 223.793 138.964,224.318 139.115,224.256 139.900 C 224.219 140.363,224.539 140.647,225.200 140.738 C 225.750 140.814,226.402 141.043,226.649 141.245 C 226.896 141.448,227.377 141.507,227.718 141.376 C 228.059 141.245,228.669 141.316,229.074 141.533 C 230.320 142.199,234.763 139.710,234.136 138.697 C 233.992 138.464,234.385 138.421,235.140 138.587 C 236.353 138.853,238.331 137.989,238.105 137.292 C 238.053 137.132,238.342 136.994,238.747 136.987 C 239.469 136.974,240.951 135.778,241.050 135.129 C 241.078 134.948,241.123 134.620,241.150 134.400 C 241.219 133.851,242.298 133.894,242.484 134.453 C 242.691 135.074,245.200 133.761,245.200 133.032 C 245.200 132.614,245.527 132.558,246.580 132.796 C 247.857 133.084,249.642 132.175,249.020 131.554 C 248.921 131.454,249.767 131.332,250.901 131.283 C 252.790 131.200,254.880 130.723,256.400 130.027 C 256.730 129.876,257.705 129.791,258.567 129.838 C 260.038 129.919,261.463 129.196,260.914 128.648 C 260.778 128.511,260.977 128.400,261.357 128.400 C 261.737 128.400,261.944 128.568,261.817 128.772 C 261.691 128.977,261.770 129.258,261.993 129.396 C 262.217 129.534,262.400 130.002,262.400 130.436 C 262.400 130.870,262.649 131.321,262.953 131.437 C 263.257 131.554,263.624 132.403,263.769 133.325 C 264.289 136.632,264.819 138.078,265.424 137.846 C 265.754 137.719,266.000 137.861,266.000 138.179 C 266.000 138.484,265.792 138.803,265.538 138.887 C 264.759 139.147,265.079 145.179,265.888 145.489 C 266.363 145.671,266.371 145.772,265.934 146.050 C 265.534 146.303,265.526 146.389,265.900 146.394 C 266.175 146.397,266.400 146.670,266.400 147.000 C 266.400 147.330,266.220 147.600,266.000 147.600 C 265.780 147.600,265.621 147.735,265.647 147.900 C 265.673 148.065,265.652 148.380,265.600 148.600 C 265.548 148.820,265.455 149.540,265.393 150.200 C 265.224 152.005,264.955 153.571,264.409 155.941 C 264.138 157.118,264.013 158.648,264.131 159.341 C 264.249 160.033,264.253 160.374,264.139 160.098 C 263.849 159.394,263.200 159.890,263.200 160.814 C 263.200 161.236,263.650 161.876,264.200 162.237 C 264.750 162.597,265.200 163.218,265.200 163.617 C 265.200 164.016,265.650 164.696,266.200 165.129 C 266.750 165.561,267.200 166.036,267.200 166.184 C 267.200 166.332,267.650 167.043,268.200 167.764 C 268.750 168.486,269.200 169.351,269.200 169.689 C 269.200 170.026,269.470 170.526,269.800 170.800 C 270.130 171.074,270.400 171.594,270.400 171.956 C 270.400 172.318,270.821 173.241,271.335 174.007 C 271.850 174.773,272.493 176.298,272.765 177.395 C 273.300 179.553,273.884 180.519,274.445 180.172 C 275.035 179.807,274.843 180.814,274.200 181.458 C 273.869 181.788,273.684 182.450,273.788 182.929 C 273.892 183.408,274.055 184.374,274.150 185.075 C 274.382 186.793,274.696 187.214,275.513 186.905 C 276.129 186.672,276.124 186.721,275.470 187.381 C 274.937 187.918,274.870 188.196,275.219 188.412 C 275.588 188.640,275.578 189.173,275.174 190.749 C 274.744 192.428,274.744 193.255,275.172 195.412 C 275.635 197.737,275.620 198.114,275.047 198.748 C 274.210 199.673,274.231 199.863,275.200 200.116 C 276.309 200.406,276.260 201.906,275.136 202.072 C 274.176 202.214,274.022 202.719,273.909 206.100 C 273.866 207.365,273.676 208.400,273.486 208.400 C 273.295 208.400,273.188 208.895,273.247 209.500 C 273.307 210.105,273.140 210.993,272.877 211.474 C 272.615 211.954,272.400 212.889,272.400 213.550 C 272.400 214.212,272.198 214.878,271.951 215.030 C 271.663 215.208,271.585 216.012,271.733 217.267 C 271.861 218.344,271.830 219.142,271.664 219.039 C 271.013 218.637,270.401 219.552,269.012 223.006 C 267.478 226.818,266.459 228.552,264.445 230.772 C 263.321 232.011,262.995 232.763,263.163 233.730 C 263.194 233.911,263.068 233.966,262.883 233.851 C 262.697 233.737,262.098 234.038,261.552 234.521 C 261.005 235.005,260.207 235.601,259.779 235.846 C 259.328 236.104,258.992 236.735,258.982 237.344 C 258.961 238.616,258.522 239.089,257.200 239.266 C 256.648 239.340,256.200 239.663,256.200 239.988 C 256.200 240.369,255.750 240.598,254.919 240.640 C 254.215 240.675,253.347 240.996,252.991 241.352 C 252.634 241.709,252.041 242.006,251.671 242.013 C 250.814 242.029,249.600 242.943,249.600 243.573 C 249.600 243.839,249.330 244.327,249.000 244.657 C 248.670 244.987,248.400 245.064,248.400 244.829 C 248.400 244.069,246.035 244.365,245.167 245.233 C 244.708 245.692,244.249 245.982,244.146 245.879 C 243.543 245.276,234.618 248.582,235.034 249.255 C 235.194 249.513,234.860 249.620,234.145 249.539 C 233.395 249.454,233.035 249.580,233.100 249.904 C 233.155 250.177,232.930 250.400,232.600 250.400 C 232.270 250.400,232.000 250.207,232.000 249.972 C 232.000 249.737,231.595 249.606,231.100 249.682 C 230.605 249.757,230.245 250.040,230.300 250.309 C 230.355 250.579,230.029 250.800,229.576 250.800 C 229.123 250.800,228.864 250.620,229.000 250.400 C 229.227 250.032,227.939 249.775,227.000 250.002 C 226.780 250.055,225.610 250.213,224.400 250.353 C 222.660 250.555,222.211 250.752,222.254 251.292 C 222.283 251.668,221.977 252.080,221.574 252.208 C 220.733 252.475,220.929 253.344,222.114 254.600 C 222.529 255.040,223.116 255.873,223.419 256.452 C 223.722 257.030,224.233 257.604,224.554 257.727 C 224.875 257.850,225.197 258.367,225.269 258.876 C 225.353 259.468,225.652 259.780,226.100 259.744 C 226.811 259.688,226.886 259.909,227.005 262.400 C 227.042 263.170,227.280 264.520,227.534 265.400 C 227.788 266.280,227.997 267.945,227.998 269.100 C 227.999 270.289,228.181 271.200,228.417 271.200 C 228.701 271.200,228.817 277.244,228.781 290.179 C 228.731 308.003,228.848 310.816,229.594 309.609 C 229.805 309.269,229.960 309.319,230.140 309.787 C 230.286 310.170,230.227 310.340,229.995 310.197 C 229.774 310.060,229.600 310.408,229.600 310.989 C 229.600 311.611,229.880 312.128,230.300 312.283 C 230.685 312.424,231.398 312.960,231.884 313.474 C 232.988 314.639,238.338 314.542,239.675 313.332 C 240.088 312.958,241.050 312.603,241.812 312.543 C 243.274 312.428,245.051 311.130,244.645 310.473 C 244.497 310.233,244.898 310.191,245.703 310.363 C 247.581 310.765,248.400 310.484,248.400 309.440 C 248.400 308.675,248.574 308.564,249.546 308.707 C 250.248 308.810,251.540 308.473,252.884 307.837 C 254.090 307.267,255.264 306.800,255.493 306.800 C 256.194 306.800,257.264 304.893,256.690 304.667 C 256.420 304.560,256.879 304.571,257.709 304.690 C 258.743 304.839,259.436 304.717,259.909 304.301 C 260.289 303.968,261.005 303.571,261.500 303.420 C 261.995 303.270,262.400 302.978,262.400 302.773 C 262.400 302.568,262.670 302.400,263.000 302.400 C 263.330 302.400,263.600 302.234,263.600 302.031 C 263.600 301.829,264.401 301.154,265.381 300.531 C 266.779 299.643,267.110 299.229,266.923 298.603 C 266.714 297.906,266.766 297.874,267.335 298.346 C 268.060 298.948,271.281 297.389,272.323 295.931 C 272.610 295.529,273.027 295.200,273.248 295.200 C 273.628 295.200,274.894 294.147,276.976 292.100 C 277.480 291.605,278.004 291.200,278.141 291.200 C 278.676 291.200,280.744 289.299,282.600 287.102 C 283.040 286.581,283.985 285.747,284.700 285.250 C 285.415 284.752,286.000 284.103,286.000 283.806 C 286.000 283.510,286.765 282.667,287.700 281.934 C 288.634 281.200,289.786 280.150,290.259 279.600 C 290.732 279.050,291.587 278.060,292.159 277.400 C 292.731 276.740,293.199 275.795,293.200 275.300 C 293.200 274.740,293.443 274.400,293.843 274.400 C 294.250 274.400,294.401 274.180,294.255 273.800 C 293.931 272.955,294.368 272.013,294.977 272.247 C 295.510 272.451,298.000 270.586,298.000 269.982 C 298.000 269.578,299.897 266.716,300.368 266.409 C 300.863 266.086,302.000 263.715,302.000 263.007 C 302.000 262.659,302.270 262.271,302.600 262.145 C 302.930 262.018,303.200 261.655,303.200 261.338 C 303.200 261.021,303.613 260.365,304.117 259.881 C 305.625 258.433,308.004 253.508,307.570 252.732 C 307.129 251.944,307.511 250.698,308.085 251.052 C 308.336 251.207,308.385 250.944,308.217 250.350 C 308.043 249.735,308.075 249.583,308.309 249.918 C 308.930 250.810,310.975 247.315,310.988 245.338 C 310.995 244.424,311.101 243.840,311.225 244.041 C 311.532 244.537,313.200 241.500,313.200 240.446 C 313.200 239.980,313.341 239.600,313.513 239.600 C 313.685 239.600,313.866 239.115,313.915 238.522 C 313.964 237.930,314.156 237.345,314.341 237.222 C 314.527 237.100,314.645 236.579,314.604 236.064 C 314.562 235.550,314.787 234.870,315.104 234.553 C 315.420 234.237,315.776 233.259,315.894 232.379 C 316.011 231.500,316.264 230.684,316.454 230.567 C 316.937 230.268,316.889 228.000,316.400 228.000 C 316.180 228.000,316.000 227.719,316.000 227.376 C 316.000 227.033,316.160 226.851,316.355 226.972 C 317.366 227.597,318.380 224.014,317.418 223.215 C 316.536 222.483,316.654 221.731,317.693 221.460 C 318.401 221.275,318.484 221.124,318.093 220.733 C 317.522 220.162,317.417 218.640,317.972 218.983 C 318.528 219.326,318.986 218.349,318.855 217.100 C 318.792 216.495,318.928 216.000,319.159 216.000 C 319.402 216.000,319.562 215.121,319.540 213.900 C 319.520 212.745,319.631 210.965,319.787 209.945 C 319.970 208.746,319.917 207.996,319.635 207.822 C 319.396 207.674,319.200 207.283,319.200 206.953 C 319.200 206.623,319.367 206.456,319.571 206.582 C 319.774 206.708,320.037 205.863,320.154 204.705 C 320.707 199.218,320.759 197.622,320.390 197.394 C 320.174 197.260,320.107 196.712,320.242 196.175 C 320.443 195.373,320.338 195.200,319.643 195.200 C 318.565 195.200,318.555 194.345,319.625 193.677 C 320.512 193.123,320.566 191.321,319.691 191.500 C 319.073 191.626,319.025 189.355,319.638 188.977 C 319.911 188.808,319.979 188.087,319.818 187.053 C 319.677 186.144,319.525 184.770,319.481 184.000 C 319.389 182.405,318.919 181.479,318.372 181.817 C 318.168 181.944,318.000 181.692,318.000 181.257 C 318.000 180.822,318.153 180.407,318.339 180.333 C 319.093 180.037,318.351 175.200,317.552 175.200 C 316.761 175.200,316.509 174.564,317.209 174.330 C 318.406 173.931,317.464 168.882,316.129 168.547 C 315.276 168.332,315.229 168.227,315.727 167.652 C 316.330 166.955,315.556 164.133,314.877 164.552 C 314.709 164.656,314.571 163.803,314.571 162.655 C 314.571 160.248,313.475 157.597,312.358 157.305 C 311.444 157.066,311.424 156.919,312.196 156.147 C 312.873 155.470,311.545 152.140,310.785 152.609 C 310.568 152.744,310.400 152.263,310.400 151.508 C 310.400 149.735,308.096 145.237,307.495 145.838 C 307.367 145.966,307.312 145.623,307.372 145.076 C 307.470 144.178,306.259 140.895,305.647 140.400 C 305.511 140.290,304.860 139.148,304.200 137.862 C 303.164 135.843,301.881 134.622,301.200 135.007 C 301.090 135.070,300.985 134.483,300.968 133.704 C 300.949 132.874,300.659 132.086,300.268 131.800 C 299.900 131.531,299.600 131.108,299.600 130.859 C 299.600 130.610,299.060 129.925,298.400 129.337 C 297.740 128.749,297.200 127.970,297.200 127.606 C 297.200 127.242,296.795 126.554,296.300 126.078 C 295.805 125.601,294.950 124.657,294.400 123.979 C 293.850 123.302,293.175 122.502,292.900 122.202 C 292.625 121.902,292.400 121.541,292.400 121.399 C 292.400 121.257,291.320 120.044,290.000 118.703 C 288.680 117.363,287.600 116.126,287.600 115.955 C 287.600 115.784,287.107 115.407,286.504 115.118 C 285.901 114.829,285.171 114.099,284.882 113.496 C 284.593 112.893,284.167 112.400,283.936 112.400 C 283.704 112.400,283.161 111.950,282.729 111.400 C 282.296 110.850,281.783 110.400,281.589 110.400 C 281.120 110.400,279.200 108.465,279.200 107.992 C 279.200 107.287,276.789 106.311,276.218 106.785 C 275.705 107.210,274.962 106.311,275.142 105.484 C 275.293 104.788,274.327 103.600,273.610 103.600 C 273.190 103.600,272.731 103.411,272.588 103.181 C 272.411 102.894,272.150 102.909,271.764 103.230 C 271.454 103.487,271.200 103.523,271.200 103.310 C 271.200 103.097,270.795 102.709,270.300 102.449 C 269.805 102.188,269.707 102.062,270.083 102.168 C 270.673 102.336,270.705 102.230,270.318 101.381 C 270.073 100.841,269.692 100.400,269.474 100.400 C 269.255 100.400,268.465 99.935,267.720 99.366 C 266.649 98.550,266.245 98.430,265.800 98.800 C 265.183 99.312,264.246 98.973,264.617 98.372 C 265.084 97.617,262.281 95.539,261.104 95.767 C 260.365 95.909,260.039 95.819,260.104 95.489 C 260.161 95.199,259.765 95.005,259.130 95.013 C 258.541 95.021,258.137 94.902,258.231 94.750 C 258.517 94.287,257.947 93.200,257.418 93.200 C 257.146 93.200,256.507 92.840,256.000 92.400 C 255.493 91.960,254.800 91.600,254.460 91.600 C 254.121 91.600,253.186 91.145,252.384 90.589 C 251.040 89.658,249.277 89.553,249.823 90.437 C 249.943 90.632,249.763 90.684,249.423 90.554 C 249.083 90.423,248.888 90.182,248.989 90.017 C 249.475 89.232,248.060 88.193,247.210 88.712 C 246.626 89.069,246.165 89.103,245.686 88.824 C 245.309 88.604,245.169 88.419,245.376 88.412 C 245.958 88.393,244.274 87.227,243.644 87.213 C 243.338 87.206,242.888 86.941,242.644 86.625 C 242.084 85.900,236.552 83.967,235.831 84.244 C 235.535 84.357,234.600 84.160,233.753 83.806 C 232.764 83.393,232.163 83.312,232.073 83.581 C 231.883 84.152,230.775 84.116,230.900 83.542 C 230.955 83.291,230.370 82.929,229.600 82.738 C 226.975 82.090,225.001 81.456,224.547 81.118 C 224.298 80.932,223.488 80.782,222.747 80.785 C 222.006 80.788,220.791 80.794,220.046 80.799 C 219.301 80.804,218.454 80.611,218.163 80.369 C 217.772 80.045,217.399 80.096,216.728 80.565 C 215.434 81.472,213.600 81.407,213.600 80.455 C 213.600 79.609,208.988 78.580,208.163 79.242 C 207.923 79.435,207.612 79.478,207.471 79.338 C 207.132 78.999,193.034 79.008,192.484 79.348 C 192.248 79.494,191.942 79.430,191.804 79.207 C 191.666 78.983,191.428 78.823,191.276 78.851 C 191.124 78.880,189.965 79.080,188.700 79.297 M200.700 79.876 C 200.315 79.976,199.685 79.976,199.300 79.876 C 198.915 79.775,199.230 79.693,200.000 79.693 C 200.770 79.693,201.085 79.775,200.700 79.876 M79.882 201.300 C 79.787 201.795,79.709 201.390,79.709 200.400 C 79.709 199.410,79.787 199.005,79.882 199.500 C 79.978 199.995,79.978 200.805,79.882 201.300 M111.378 246.912 C 111.246 247.256,110.881 247.637,110.568 247.757 C 110.116 247.930,110.133 247.768,110.653 246.975 C 111.351 245.909,111.777 245.872,111.378 246.912 M122.033 288.833 C 122.492 289.292,122.763 289.771,122.636 289.897 C 122.437 290.096,120.800 288.527,120.800 288.139 C 120.800 287.802,121.262 288.062,122.033 288.833 " stroke="none" fill="#04ec04" fill-rule="evenodd"></path><path id="path1" d="M194.200 78.800 C 194.640 78.989,197.250 79.144,200.000 79.144 C 202.750 79.144,205.360 78.989,205.800 78.800 C 206.289 78.590,204.034 78.456,200.000 78.456 C 195.966 78.456,193.711 78.590,194.200 78.800 M185.800 79.074 C 184.920 79.151,183.750 79.315,183.200 79.440 L 182.200 79.667 183.144 80.434 C 184.445 81.489,186.400 81.469,186.400 80.400 C 186.400 79.813,186.667 79.600,187.400 79.600 C 187.950 79.600,188.400 79.420,188.400 79.200 C 188.400 78.980,188.175 78.830,187.900 78.867 C 187.625 78.904,186.680 78.997,185.800 79.074 M211.600 79.219 C 211.600 79.428,212.050 79.600,212.600 79.600 C 213.333 79.600,213.600 79.813,213.600 80.400 C 213.600 81.469,215.555 81.489,216.856 80.434 L 217.800 79.667 216.800 79.459 C 214.563 78.994,211.600 78.857,211.600 79.219 M199.300 79.876 C 199.685 79.976,200.315 79.976,200.700 79.876 C 201.085 79.775,200.770 79.693,200.000 79.693 C 199.230 79.693,198.915 79.775,199.300 79.876 M179.600 80.400 C 179.600 80.620,180.039 80.800,180.576 80.800 C 181.113 80.800,181.664 80.620,181.800 80.400 C 181.944 80.167,181.537 80.000,180.824 80.000 C 180.151 80.000,179.600 80.180,179.600 80.400 M218.200 80.400 C 218.336 80.620,218.887 80.800,219.424 80.800 C 219.961 80.800,220.400 80.620,220.400 80.400 C 220.400 80.180,219.849 80.000,219.176 80.000 C 218.463 80.000,218.056 80.167,218.200 80.400 M173.860 81.083 C 173.222 81.248,173.270 81.351,174.206 81.837 C 175.632 82.577,175.818 82.551,175.890 81.600 C 175.951 80.795,175.462 80.671,173.860 81.083 M224.600 81.076 C 224.988 81.450,226.732 82.029,229.600 82.738 C 230.370 82.929,230.955 83.291,230.900 83.542 C 230.775 84.116,231.883 84.152,232.073 83.581 C 232.163 83.311,232.736 83.381,233.693 83.781 C 235.361 84.478,236.000 84.556,236.000 84.063 C 236.000 83.702,233.009 82.766,228.800 81.809 C 227.370 81.484,225.750 81.099,225.200 80.955 C 224.555 80.785,224.342 80.828,224.600 81.076 M171.000 81.871 C 166.825 82.802,155.124 86.643,153.646 87.567 C 153.207 87.842,153.280 88.014,153.994 88.397 C 154.503 88.669,154.785 88.700,154.642 88.468 C 154.247 87.829,155.240 87.426,155.675 88.049 C 155.973 88.475,156.107 88.487,156.264 88.100 C 156.375 87.825,156.732 87.600,157.057 87.600 C 157.382 87.600,157.541 87.428,157.412 87.219 C 157.084 86.689,160.287 85.885,161.504 86.190 C 162.299 86.390,162.453 86.314,162.261 85.815 C 162.068 85.311,162.224 85.241,163.070 85.453 C 163.808 85.639,164.035 85.581,163.836 85.258 C 163.662 84.976,163.987 84.641,164.676 84.391 C 165.294 84.167,166.209 83.775,166.708 83.520 C 167.400 83.167,167.729 83.169,168.088 83.528 C 168.664 84.104,169.343 84.155,168.998 83.597 C 168.861 83.376,169.065 83.073,169.451 82.925 C 169.854 82.770,170.219 82.857,170.309 83.128 C 170.562 83.886,171.344 83.652,172.119 82.587 C 172.858 81.572,172.725 81.487,171.000 81.871 M242.638 86.555 C 242.774 86.910,243.181 87.206,243.543 87.213 C 244.238 87.226,246.020 88.391,245.376 88.412 C 245.169 88.419,245.324 88.613,245.721 88.844 C 246.237 89.144,246.605 89.128,247.017 88.786 C 247.804 88.133,247.486 87.775,245.500 87.080 C 244.565 86.752,243.483 86.356,243.095 86.198 C 242.556 85.978,242.449 86.062,242.638 86.555 M150.500 88.812 C 149.741 89.118,149.207 90.000,149.781 90.000 C 150.292 90.000,152.000 89.027,152.000 88.736 C 152.000 88.325,151.670 88.342,150.500 88.812 M248.777 89.157 C 248.994 89.563,249.080 89.986,248.969 90.098 C 248.857 90.210,249.053 90.411,249.404 90.546 C 249.773 90.688,249.939 90.624,249.797 90.395 C 249.663 90.178,249.758 90.000,250.010 90.000 C 250.759 90.000,250.229 89.102,249.270 88.748 C 248.493 88.460,248.431 88.511,248.777 89.157 M143.700 92.109 C 141.445 93.255,139.600 94.308,139.600 94.449 C 139.600 94.817,141.758 95.182,141.999 94.855 C 142.110 94.706,142.705 94.362,143.323 94.090 C 143.940 93.819,144.331 93.412,144.192 93.187 C 143.859 92.648,145.510 91.306,146.895 90.989 C 147.900 90.759,148.876 89.983,148.124 90.013 C 147.946 90.019,145.955 90.963,143.700 92.109 M252.976 91.013 C 253.404 91.336,254.109 91.600,254.543 91.600 C 255.619 91.600,255.190 91.253,253.554 90.801 C 252.315 90.458,252.266 90.475,252.976 91.013 M258.141 94.108 C 258.184 94.798,258.439 95.014,259.199 95.008 C 259.777 95.003,260.159 95.207,260.104 95.489 C 260.039 95.819,260.365 95.909,261.104 95.767 C 262.281 95.539,265.084 97.617,264.617 98.372 C 264.240 98.982,265.187 99.309,265.818 98.785 C 266.636 98.107,266.544 97.699,265.500 97.373 C 265.005 97.219,264.510 96.966,264.400 96.813 C 264.156 96.472,258.648 93.200,258.319 93.200 C 258.190 93.200,258.110 93.609,258.141 94.108 M135.617 96.676 C 134.636 97.264,134.038 97.813,134.287 97.896 C 134.726 98.042,138.000 96.190,138.000 95.795 C 138.000 95.397,137.353 95.636,135.617 96.676 M131.844 99.100 C 131.006 99.697,130.549 100.250,130.821 100.340 C 131.090 100.430,131.474 100.210,131.675 99.852 C 131.876 99.493,132.290 99.200,132.596 99.200 C 132.902 99.200,133.271 99.008,133.416 98.773 C 133.945 97.919,133.323 98.048,131.844 99.100 M267.800 99.412 C 268.460 99.953,269.270 100.383,269.600 100.366 C 270.114 100.341,270.116 100.304,269.618 100.108 C 269.298 99.982,268.679 99.546,268.243 99.139 C 267.806 98.733,267.258 98.406,267.025 98.414 C 266.791 98.422,267.140 98.871,267.800 99.412 M270.395 101.591 C 270.752 102.258,270.707 102.350,270.109 102.179 C 269.719 102.067,269.805 102.188,270.300 102.449 C 270.795 102.709,271.200 103.097,271.200 103.310 C 271.200 103.523,271.454 103.487,271.764 103.230 C 272.150 102.909,272.411 102.894,272.588 103.181 C 272.731 103.411,273.190 103.600,273.610 103.600 C 274.327 103.600,275.293 104.788,275.142 105.484 C 274.961 106.315,275.705 107.211,276.221 106.782 C 276.604 106.464,276.984 106.470,277.609 106.805 C 278.082 107.058,278.557 107.177,278.664 107.069 C 278.772 106.961,278.487 106.754,278.030 106.610 C 277.574 106.465,277.200 106.192,277.200 106.003 C 277.200 105.586,270.910 100.800,270.361 100.800 C 270.120 100.800,270.133 101.101,270.395 101.591 M125.378 103.800 C 123.626 105.161,123.265 105.600,123.901 105.600 C 124.364 105.600,125.096 105.150,125.529 104.600 C 125.961 104.050,126.471 103.600,126.661 103.600 C 126.852 103.600,127.232 103.240,127.507 102.800 C 128.215 101.667,127.988 101.774,125.378 103.800 M120.200 108.000 C 119.591 108.673,119.574 108.800,120.091 108.800 C 120.430 108.800,120.801 108.440,120.916 108.000 C 121.031 107.560,121.080 107.200,121.025 107.200 C 120.969 107.200,120.598 107.560,120.200 108.000 M279.200 107.948 C 279.200 108.453,281.097 110.400,281.589 110.400 C 281.783 110.400,282.309 110.867,282.758 111.438 C 283.207 112.008,283.779 112.407,284.029 112.324 C 284.280 112.240,283.295 111.128,281.842 109.852 C 280.389 108.576,279.200 107.719,279.200 107.948 M117.151 110.784 C 116.188 111.655,115.644 112.375,115.942 112.384 C 116.654 112.405,118.943 110.468,119.048 109.756 C 119.161 108.982,119.117 109.006,117.151 110.784 M113.992 113.810 C 113.714 114.145,113.597 114.531,113.733 114.667 C 114.024 114.957,115.200 114.063,115.200 113.551 C 115.200 113.000,114.548 113.140,113.992 113.810 M284.800 113.538 C 284.800 114.069,286.375 115.358,286.667 115.067 C 286.811 114.923,286.602 114.444,286.202 114.002 C 285.448 113.169,284.800 112.954,284.800 113.538 M111.366 116.500 C 108.883 119.210,108.675 119.729,110.778 117.963 C 112.881 116.197,113.651 115.200,112.912 115.200 C 112.717 115.200,112.021 115.785,111.366 116.500 M287.638 116.051 C 287.658 116.353,288.507 117.320,289.524 118.200 L 291.374 119.800 290.102 118.162 C 288.452 116.035,287.586 115.294,287.638 116.051 M107.252 121.128 C 106.735 121.853,105.780 123.021,105.129 123.723 C 104.478 124.425,103.771 125.315,103.559 125.700 C 103.012 126.690,103.779 126.585,104.451 125.578 C 104.929 124.862,105.614 124.548,106.949 124.431 C 107.141 124.414,107.056 124.109,106.761 123.753 C 106.297 123.194,106.377 122.983,107.351 122.206 C 108.043 121.655,108.423 121.017,108.335 120.558 C 108.214 119.928,108.040 120.020,107.252 121.128 M292.400 121.128 C 292.400 121.649,292.621 121.951,294.500 123.996 C 295.105 124.654,295.600 125.355,295.600 125.554 C 295.600 125.752,295.874 126.020,296.209 126.148 C 297.029 126.463,296.459 125.437,294.850 123.701 C 294.188 122.986,293.366 122.001,293.023 121.512 C 292.680 121.022,292.400 120.850,292.400 121.128 M101.900 127.796 C 100.931 129.118,100.976 129.748,102.000 129.200 C 102.440 128.965,102.800 128.890,102.800 129.035 C 102.800 129.180,103.070 129.074,103.400 128.800 C 103.730 128.526,104.000 128.114,104.000 127.884 C 104.000 127.655,103.883 127.584,103.740 127.727 C 103.596 127.870,103.281 127.730,103.040 127.414 C 102.671 126.933,102.487 126.994,101.900 127.796 M297.214 127.638 C 297.200 128.293,298.662 129.871,298.985 129.549 C 299.084 129.450,298.729 128.836,298.197 128.184 C 297.528 127.366,297.224 127.197,297.214 127.638 M261.000 128.800 C 261.136 129.020,261.057 129.200,260.824 129.200 C 259.972 129.200,260.429 129.912,261.400 130.098 C 262.401 130.289,262.758 129.868,261.993 129.396 C 261.770 129.258,261.691 128.977,261.817 128.772 C 261.944 128.568,261.756 128.400,261.400 128.400 C 261.044 128.400,260.864 128.580,261.000 128.800 M256.600 130.000 C 256.457 130.231,256.828 130.397,257.476 130.394 C 258.349 130.389,258.466 130.301,258.000 130.000 C 257.231 129.503,256.907 129.503,256.600 130.000 M137.467 130.267 C 137.320 130.413,137.200 130.893,137.200 131.333 C 137.200 132.315,137.565 132.018,137.790 130.854 C 137.964 129.951,137.899 129.834,137.467 130.267 M144.800 130.800 C 145.576 131.301,146.000 131.301,146.000 130.800 C 146.000 130.580,145.595 130.403,145.100 130.406 C 144.372 130.411,144.315 130.486,144.800 130.800 M147.000 131.186 C 149.815 132.355,154.442 133.997,154.880 133.983 C 155.522 133.963,152.801 132.440,152.081 132.417 C 151.795 132.408,150.816 132.040,149.906 131.600 C 148.995 131.160,147.789 130.812,147.225 130.827 C 146.299 130.852,146.277 130.886,147.000 131.186 M249.015 131.548 C 249.113 131.646,248.993 131.968,248.748 132.263 C 248.160 132.972,248.568 132.927,251.200 131.995 L 253.400 131.215 251.118 131.293 C 249.864 131.335,248.917 131.450,249.015 131.548 M262.533 131.770 C 262.814 132.502,263.717 135.667,263.796 136.200 C 264.266 139.338,265.200 141.467,265.200 139.400 C 265.200 139.070,265.380 138.800,265.600 138.800 C 265.820 138.800,266.000 138.536,266.000 138.213 C 266.000 137.866,265.764 137.716,265.424 137.846 C 264.819 138.078,264.289 136.632,263.769 133.325 C 263.624 132.403,263.237 131.546,262.908 131.420 C 262.503 131.265,262.382 131.377,262.533 131.770 M98.911 132.100 C 98.129 133.111,97.863 133.732,98.336 133.440 C 98.810 133.147,99.757 131.600,99.463 131.600 C 99.372 131.600,99.124 131.825,98.911 132.100 M300.938 133.534 C 300.972 134.409,301.064 135.063,301.141 134.988 C 301.219 134.913,301.713 135.015,302.240 135.215 L 303.197 135.579 302.145 133.889 C 301.566 132.960,301.044 132.142,300.984 132.072 C 300.925 132.001,300.904 132.659,300.938 133.534 M245.200 133.059 C 245.200 133.770,242.687 135.060,242.484 134.453 C 242.298 133.894,241.219 133.851,241.150 134.400 C 241.123 134.620,241.078 134.987,241.050 135.215 C 241.023 135.443,240.735 135.793,240.412 135.993 C 238.556 137.140,240.823 136.571,243.925 135.111 C 247.912 133.235,248.179 132.976,246.400 132.715 C 245.591 132.596,245.200 132.708,245.200 133.059 M96.300 136.228 C 95.027 138.308,94.931 138.633,95.524 138.872 C 96.546 139.283,96.694 139.253,96.953 138.579 C 97.094 138.210,97.024 138.062,96.779 138.213 C 96.181 138.583,96.774 136.354,97.495 135.523 C 97.818 135.151,98.008 134.624,97.917 134.351 C 97.826 134.079,97.099 134.924,96.300 136.228 M136.255 134.600 C 136.129 134.930,135.749 135.200,135.413 135.200 C 135.076 135.200,134.800 135.470,134.800 135.800 C 134.800 136.130,134.980 136.400,135.200 136.400 C 135.420 136.400,135.605 136.715,135.612 137.100 C 135.630 138.125,136.219 136.975,136.535 135.300 C 136.792 133.938,136.648 133.577,136.255 134.600 M156.576 135.013 C 157.587 135.777,158.238 135.769,157.600 135.000 C 157.326 134.670,156.809 134.406,156.451 134.413 C 155.904 134.423,155.924 134.519,156.576 135.013 M161.200 137.176 C 161.200 137.398,161.731 137.854,162.380 138.190 C 163.782 138.915,164.145 138.958,163.772 138.355 C 163.621 138.111,163.746 137.739,164.049 137.529 C 164.442 137.257,164.346 137.219,163.715 137.396 C 163.228 137.533,162.463 137.448,162.015 137.208 C 161.488 136.926,161.200 136.915,161.200 137.176 M196.130 137.063 C 196.275 137.208,196.193 137.568,195.948 137.863 C 195.579 138.307,196.340 138.400,200.351 138.400 L 205.200 138.400 204.400 137.600 C 203.710 136.910,203.067 136.800,199.733 136.800 C 197.607 136.800,195.985 136.918,196.130 137.063 M237.969 136.900 C 237.606 138.089,237.724 138.362,238.436 137.981 C 239.347 137.493,239.443 136.800,238.600 136.800 C 238.270 136.800,237.986 136.845,237.969 136.900 M189.200 138.400 C 188.734 138.701,188.851 138.789,189.724 138.794 C 190.372 138.797,190.743 138.631,190.600 138.400 C 190.293 137.903,189.969 137.903,189.200 138.400 M191.964 138.431 C 191.553 138.691,191.699 138.789,192.500 138.794 C 193.694 138.801,193.910 138.604,193.064 138.280 C 192.769 138.167,192.274 138.235,191.964 138.431 M206.770 138.427 C 206.396 138.664,207.069 138.790,208.724 138.794 C 210.153 138.797,211.149 138.641,211.021 138.433 C 210.729 137.961,207.514 137.956,206.770 138.427 M185.827 138.759 C 184.717 139.194,185.703 139.690,187.020 139.359 C 187.798 139.164,187.935 139.005,187.538 138.753 C 186.913 138.357,186.852 138.357,185.827 138.759 M234.163 138.740 C 234.810 139.787,230.336 142.136,228.921 141.491 C 228.413 141.260,227.877 141.189,227.732 141.335 C 227.263 141.804,227.883 142.057,229.662 142.121 C 231.812 142.199,237.079 139.274,235.739 138.747 C 234.704 138.340,233.913 138.336,234.163 138.740 M305.033 139.200 C 305.330 140.314,305.519 140.614,305.767 140.366 C 305.859 140.274,305.672 139.749,305.351 139.199 L 304.767 138.200 305.033 139.200 M166.400 139.213 C 166.400 139.426,166.015 139.600,165.544 139.600 C 164.834 139.600,164.940 139.771,166.162 140.600 C 167.835 141.736,168.324 141.873,167.604 141.005 C 167.333 140.678,167.209 140.153,167.330 139.838 C 167.451 139.524,167.291 139.167,166.975 139.046 C 166.659 138.924,166.400 138.999,166.400 139.213 M175.840 139.760 C 176.113 140.473,175.670 140.737,173.747 141.006 C 172.896 141.126,171.750 141.338,171.200 141.479 C 170.650 141.620,170.080 141.749,169.933 141.767 C 169.787 141.785,169.517 141.951,169.333 142.136 C 168.935 142.537,171.040 142.208,175.400 141.188 C 179.039 140.337,182.364 139.797,183.100 139.939 C 183.375 139.992,183.600 139.847,183.600 139.618 C 183.600 139.098,182.484 139.093,179.413 139.595 C 177.852 139.851,176.890 139.850,176.633 139.593 C 176.057 139.017,175.592 139.114,175.840 139.760 M216.400 139.558 C 216.400 139.801,217.005 140.000,217.745 140.000 C 219.170 140.000,222.553 140.572,223.659 141.000 C 224.174 141.199,224.306 141.029,224.259 140.227 C 224.197 139.143,223.831 138.903,223.371 139.646 C 223.191 139.938,222.457 139.997,221.248 139.815 C 216.745 139.141,216.400 139.123,216.400 139.558 M93.600 140.800 C 93.365 141.240,93.315 141.600,93.490 141.600 C 93.665 141.600,94.032 141.240,94.307 140.800 C 94.584 140.357,94.633 140.000,94.417 140.000 C 94.203 140.000,93.835 140.360,93.600 140.800 M225.000 141.200 C 225.136 141.420,225.607 141.600,226.047 141.600 C 226.487 141.600,226.736 141.420,226.600 141.200 C 226.464 140.980,225.993 140.800,225.553 140.800 C 225.113 140.800,224.864 140.980,225.000 141.200 M306.418 141.454 C 306.408 141.704,306.645 142.381,306.945 142.958 C 307.244 143.536,307.438 144.472,307.376 145.039 C 307.314 145.607,307.367 145.966,307.495 145.838 C 308.096 145.237,310.400 149.735,310.400 151.508 C 310.400 152.255,310.569 152.743,310.781 152.612 C 310.991 152.482,311.433 152.877,311.765 153.488 C 313.130 156.006,312.258 153.350,310.268 148.933 C 307.789 143.428,306.443 140.813,306.418 141.454 M134.749 142.100 C 134.721 142.375,134.655 143.005,134.604 143.500 C 134.552 143.995,134.665 144.400,134.855 144.400 C 135.045 144.400,135.200 143.770,135.200 143.000 C 135.200 141.685,134.860 141.008,134.749 142.100 M91.578 144.698 C 91.274 145.304,90.960 145.935,90.880 146.100 C 90.799 146.265,90.906 146.400,91.118 146.400 C 91.549 146.400,92.614 144.081,92.319 143.785 C 92.215 143.682,91.881 144.092,91.578 144.698 M88.855 150.462 C 88.160 152.036,87.670 153.403,87.766 153.499 C 88.018 153.752,89.200 151.360,89.200 150.596 C 89.200 150.242,89.380 150.064,89.600 150.200 C 89.820 150.336,90.003 150.212,90.006 149.924 C 90.011 149.543,90.118 149.564,90.400 150.000 C 90.633 150.361,90.790 150.410,90.794 150.124 C 90.797 149.862,90.637 149.546,90.438 149.423 C 90.238 149.300,90.169 148.839,90.284 148.400 C 90.708 146.778,90.085 147.678,88.855 150.462 M134.400 150.800 C 134.400 151.460,134.580 152.000,134.800 152.000 C 135.020 152.000,135.200 151.460,135.200 150.800 C 135.200 150.140,135.020 149.600,134.800 149.600 C 134.580 149.600,134.400 150.140,134.400 150.800 M264.806 150.900 C 264.811 151.886,264.906 152.055,265.200 151.600 C 265.708 150.814,265.708 149.600,265.200 149.600 C 264.980 149.600,264.803 150.185,264.806 150.900 M264.629 153.429 C 264.481 154.015,264.438 154.572,264.532 154.666 C 264.627 154.760,264.824 154.358,264.971 153.771 C 265.119 153.185,265.162 152.628,265.068 152.534 C 264.973 152.440,264.776 152.842,264.629 153.429 M135.234 154.200 C 135.222 154.640,135.387 155.270,135.600 155.600 C 136.114 156.395,136.114 155.396,135.600 154.200 L 135.256 153.400 135.234 154.200 M86.274 156.709 C 85.498 158.874,85.458 159.200,85.967 159.200 C 86.316 159.200,87.361 155.228,87.084 154.951 C 87.011 154.878,86.647 155.669,86.274 156.709 M312.100 156.198 C 311.433 156.956,311.463 157.071,312.395 157.315 C 312.833 157.429,313.368 157.990,313.585 158.561 C 314.069 159.835,314.551 159.943,314.200 158.700 C 313.351 155.690,312.959 155.223,312.100 156.198 M136.000 157.710 C 136.000 158.063,136.180 158.464,136.400 158.600 C 136.620 158.736,136.814 159.242,136.832 159.724 C 136.849 160.206,136.956 160.369,137.069 160.087 C 137.183 159.805,137.139 159.265,136.972 158.887 C 136.806 158.509,136.654 158.080,136.635 157.933 C 136.555 157.316,136.000 157.121,136.000 157.710 M263.240 158.307 C 262.379 160.380,263.410 164.000,264.862 164.000 C 265.580 164.000,265.152 162.861,264.200 162.237 C 263.189 161.574,262.864 160.255,263.600 159.800 C 263.820 159.664,264.000 159.773,264.000 160.043 C 264.000 160.313,264.071 160.458,264.158 160.367 C 264.245 160.275,264.196 159.480,264.050 158.600 L 263.783 157.000 263.240 158.307 M314.558 162.287 C 314.576 163.630,314.724 164.647,314.887 164.546 C 315.595 164.109,316.318 166.970,315.684 167.700 C 315.347 168.088,315.268 168.400,315.505 168.400 C 315.741 168.400,316.248 168.520,316.632 168.667 C 317.183 168.879,317.279 168.774,317.091 168.167 C 316.679 166.834,315.573 163.025,315.417 162.400 C 314.817 159.995,314.526 159.957,314.558 162.287 M134.200 162.800 C 134.064 163.020,134.131 163.200,134.349 163.200 C 134.566 163.200,134.802 163.530,134.872 163.934 C 134.983 164.567,135.127 164.512,135.930 163.534 L 136.861 162.400 135.654 162.400 C 134.990 162.400,134.336 162.580,134.200 162.800 M265.299 164.632 C 265.426 164.834,266.377 166.260,267.413 167.800 C 270.113 171.815,273.174 179.216,273.194 181.775 C 273.200 182.515,273.237 182.512,274.000 181.692 C 274.800 180.834,275.115 179.758,274.445 180.172 C 273.884 180.519,273.300 179.553,272.765 177.395 C 272.493 176.298,271.850 174.773,271.335 174.007 C 270.821 173.241,270.400 172.318,270.400 171.956 C 270.400 171.594,270.130 171.074,269.800 170.800 C 269.470 170.526,269.200 170.026,269.200 169.689 C 269.200 169.351,268.750 168.486,268.200 167.764 C 267.650 167.043,267.194 166.306,267.187 166.127 C 267.181 165.947,266.701 165.454,266.122 165.032 C 265.542 164.609,265.172 164.429,265.299 164.632 M133.384 165.627 C 133.239 165.861,133.216 166.149,133.333 166.267 C 133.620 166.553,134.400 166.048,134.400 165.576 C 134.400 165.065,133.709 165.099,133.384 165.627 M82.863 167.146 C 82.222 169.286,82.279 169.994,83.013 169.024 C 83.393 168.521,83.600 168.439,83.600 168.790 C 83.600 169.089,83.716 169.218,83.857 169.076 C 83.998 168.935,83.901 168.562,83.640 168.248 C 83.367 167.919,83.276 167.235,83.426 166.638 C 83.834 165.012,83.380 165.423,82.863 167.146 M132.199 167.333 C 131.760 167.590,131.386 168.160,131.369 168.600 C 131.352 169.040,131.205 169.850,131.041 170.400 C 130.878 170.950,131.310 170.438,132.001 169.263 C 133.375 166.928,133.406 166.628,132.199 167.333 M128.190 173.919 C 128.306 174.219,128.406 174.856,128.414 175.333 C 128.428 176.163,128.453 176.158,129.000 175.200 C 129.798 173.805,129.735 173.240,128.790 173.311 C 128.283 173.349,128.059 173.576,128.190 173.919 M317.600 173.800 C 317.600 174.130,317.420 174.400,317.200 174.400 C 316.980 174.400,316.800 174.580,316.800 174.800 C 316.800 175.020,317.138 175.200,317.552 175.200 C 318.351 175.200,319.093 180.037,318.339 180.333 C 318.153 180.407,318.000 180.842,318.000 181.300 C 318.000 181.758,318.118 182.015,318.263 181.870 C 318.408 181.725,318.797 181.830,319.128 182.103 C 319.823 182.677,319.624 179.853,318.607 174.700 C 318.319 173.240,317.600 172.598,317.600 173.800 M81.067 174.267 C 80.920 174.413,80.800 174.893,80.800 175.333 C 80.800 176.302,81.306 175.894,81.474 174.790 C 81.602 173.956,81.503 173.830,81.067 174.267 M127.414 177.800 C 127.261 178.240,126.986 178.977,126.805 179.437 C 126.623 179.897,126.623 180.513,126.803 180.806 C 127.028 181.169,127.277 180.800,127.590 179.639 C 128.061 177.889,127.915 176.363,127.414 177.800 M80.000 180.624 C 80.000 181.204,80.173 181.540,80.400 181.400 C 80.620 181.264,80.800 180.803,80.800 180.376 C 80.800 179.949,80.620 179.600,80.400 179.600 C 80.180 179.600,80.000 180.061,80.000 180.624 M79.465 183.249 C 78.865 185.491,79.111 186.366,80.197 185.862 C 81.377 185.315,81.451 184.550,80.451 183.249 L 79.720 182.298 79.465 183.249 M319.372 183.771 C 319.237 184.305,319.319 185.070,319.552 185.471 C 319.899 186.068,319.978 185.892,319.988 184.500 C 320.001 182.605,319.741 182.298,319.372 183.771 M125.872 183.507 C 125.692 183.785,125.377 183.909,125.172 183.783 C 124.560 183.404,124.751 184.409,125.419 185.076 C 126.209 185.866,126.494 185.571,126.330 184.137 C 126.243 183.373,126.092 183.166,125.872 183.507 M274.211 192.391 C 274.261 199.041,274.352 199.622,275.187 198.615 C 275.590 198.130,275.586 197.494,275.170 195.400 C 274.744 193.257,274.745 192.425,275.174 190.749 C 275.578 189.173,275.588 188.640,275.219 188.412 C 274.870 188.196,274.937 187.918,275.470 187.381 C 276.127 186.718,276.131 186.671,275.511 186.906 C 275.095 187.063,274.691 186.933,274.492 186.579 C 274.310 186.254,274.184 188.861,274.211 192.391 M124.900 186.682 C 123.829 186.889,123.792 187.358,124.647 189.879 C 125.273 191.720,125.246 194.796,124.580 197.613 C 124.392 198.405,124.500 198.637,125.074 198.680 C 125.754 198.732,125.810 198.289,125.848 192.568 C 125.870 189.176,125.868 186.425,125.844 186.454 C 125.820 186.484,125.395 186.587,124.900 186.682 M79.100 187.030 C 78.935 187.197,78.800 188.239,78.800 189.347 C 78.800 190.765,78.925 191.235,79.224 190.936 C 79.458 190.702,79.593 189.660,79.524 188.619 C 79.456 187.578,79.265 186.862,79.100 187.030 M319.700 188.698 C 319.059 190.059,319.054 191.630,319.691 191.500 C 320.566 191.321,320.512 193.123,319.625 193.677 C 318.555 194.345,318.565 195.200,319.643 195.200 C 320.338 195.200,320.443 195.373,320.242 196.175 C 320.107 196.712,320.178 197.263,320.399 197.399 C 320.854 197.681,320.921 189.444,320.472 188.318 C 320.242 187.742,320.123 187.801,319.700 188.698 M78.406 199.724 C 78.402 203.839,78.540 205.961,78.800 205.800 C 79.319 205.479,79.319 194.803,78.800 194.000 C 78.541 193.599,78.410 195.493,78.406 199.724 M79.709 200.400 C 79.709 201.390,79.787 201.795,79.882 201.300 C 79.978 200.805,79.978 199.995,79.882 199.500 C 79.787 199.005,79.709 199.410,79.709 200.400 M274.000 201.117 C 274.000 202.158,274.114 202.267,275.021 202.094 C 276.345 201.841,276.251 200.264,274.900 200.072 C 274.142 199.965,274.000 200.130,274.000 201.117 M125.877 203.100 C 125.547 203.680,125.658 205.989,126.027 206.217 C 126.237 206.346,126.400 205.650,126.400 204.624 C 126.400 202.882,126.250 202.444,125.877 203.100 M320.200 204.800 C 320.049 205.901,319.762 206.700,319.562 206.577 C 319.363 206.454,319.200 206.623,319.200 206.953 C 319.200 207.283,319.397 207.675,319.638 207.824 C 319.879 207.973,320.005 208.703,319.919 209.447 C 319.822 210.270,319.905 210.655,320.129 210.431 C 320.523 210.037,321.058 202.800,320.693 202.800 C 320.573 202.800,320.351 203.700,320.200 204.800 M273.200 207.576 C 273.200 208.029,273.380 208.400,273.600 208.400 C 273.820 208.400,274.000 208.141,274.000 207.824 C 274.000 207.507,273.820 207.136,273.600 207.000 C 273.380 206.864,273.200 207.123,273.200 207.576 M126.044 210.044 C 125.646 210.945,125.622 211.382,125.952 211.712 C 126.198 211.958,126.400 212.028,126.400 211.866 C 126.400 211.704,126.740 211.754,127.156 211.976 C 127.854 212.350,127.887 212.272,127.587 210.941 C 127.127 208.904,126.668 208.636,126.044 210.044 M78.800 210.727 C 78.800 211.621,78.980 212.464,79.200 212.600 C 79.420 212.736,79.600 212.477,79.600 212.024 C 79.600 211.571,79.780 211.200,80.000 211.200 C 80.220 211.200,80.400 210.810,80.400 210.333 C 80.400 209.857,80.282 209.585,80.137 209.730 C 79.992 209.875,79.632 209.793,79.337 209.548 C 78.903 209.187,78.800 209.413,78.800 210.727 M272.693 210.366 C 272.573 210.825,272.627 211.200,272.814 211.200 C 273.359 211.200,273.573 210.604,273.229 210.047 C 272.997 209.672,272.852 209.758,272.693 210.366 M319.429 212.099 C 319.256 212.704,319.255 213.514,319.427 213.899 C 319.819 214.774,320.153 213.362,319.900 211.900 C 319.754 211.054,319.726 211.065,319.429 212.099 M79.242 214.471 C 79.345 216.779,79.583 217.312,80.259 216.751 C 80.626 216.446,80.763 215.906,80.618 215.330 C 80.472 214.748,80.562 214.400,80.859 214.400 C 81.341 214.400,80.956 213.805,80.467 213.794 C 80.320 213.791,79.971 213.643,79.691 213.465 C 79.314 213.225,79.198 213.485,79.242 214.471 M272.046 213.467 C 272.021 213.724,271.884 214.264,271.741 214.667 C 271.540 215.236,271.594 215.297,271.979 214.942 C 272.252 214.691,272.389 214.151,272.284 213.742 C 272.179 213.334,272.072 213.210,272.046 213.467 M127.900 216.157 C 127.515 216.449,127.200 216.816,127.200 216.973 C 127.200 217.446,128.288 218.379,128.543 218.124 C 128.674 217.993,128.896 218.226,129.037 218.643 C 129.666 220.502,130.221 221.600,130.532 221.600 C 130.717 221.600,130.828 222.275,130.778 223.100 C 130.615 225.818,130.700 226.040,131.800 225.764 C 132.597 225.564,132.802 225.664,132.808 226.257 C 132.819 227.369,135.107 230.800,135.838 230.800 C 136.312 230.800,136.100 230.278,135.009 228.759 C 133.249 226.309,130.367 220.606,129.420 217.700 C 129.044 216.545,128.705 215.606,128.668 215.613 C 128.631 215.620,128.285 215.865,127.900 216.157 M318.800 217.000 C 318.800 217.550,318.980 218.000,319.200 218.000 C 319.420 218.000,319.600 217.550,319.600 217.000 C 319.600 216.450,319.420 216.000,319.200 216.000 C 318.980 216.000,318.800 216.450,318.800 217.000 M270.891 217.359 C 270.215 218.844,270.271 219.160,271.200 219.090 C 272.038 219.027,272.091 218.811,271.652 217.240 L 271.383 216.280 270.891 217.359 M80.012 219.380 C 80.003 220.241,80.120 220.440,80.441 220.119 C 80.758 219.802,80.761 219.468,80.454 218.939 C 80.077 218.291,80.023 218.346,80.012 219.380 M318.646 218.726 C 318.480 218.994,318.177 219.109,317.972 218.983 C 317.417 218.640,317.522 220.162,318.093 220.733 C 318.484 221.124,318.401 221.275,317.693 221.460 C 316.602 221.745,316.572 222.184,317.555 223.434 L 318.311 224.394 318.796 221.820 C 319.295 219.179,319.227 217.786,318.646 218.726 M268.865 222.217 C 268.609 222.778,268.407 223.454,268.416 223.719 C 268.424 223.983,268.697 223.588,269.022 222.839 C 269.705 221.265,269.561 220.690,268.865 222.217 M80.601 223.440 C 80.744 224.298,81.013 225.450,81.200 226.000 C 81.387 226.550,81.747 227.990,82.001 229.200 C 82.704 232.553,82.704 232.553,83.399 231.858 C 84.052 231.205,84.232 230.210,83.629 230.582 C 83.223 230.833,83.043 230.375,82.403 227.455 C 82.092 226.035,82.099 225.363,82.429 224.965 C 82.782 224.540,82.601 224.139,81.611 223.150 L 80.341 221.880 80.601 223.440 M267.362 225.465 C 266.976 226.089,266.152 227.395,265.531 228.367 C 264.910 229.340,264.487 230.220,264.591 230.324 C 264.869 230.602,266.208 228.874,267.419 226.673 C 268.564 224.592,268.517 223.599,267.362 225.465 M317.204 226.596 C 316.932 226.923,316.550 227.093,316.355 226.972 C 316.160 226.851,316.000 227.033,316.000 227.376 C 316.000 227.719,316.180 228.000,316.400 228.000 C 316.620 228.000,316.800 228.300,316.800 228.667 C 316.800 229.698,317.234 229.021,317.593 227.432 C 317.954 225.831,317.912 225.742,317.204 226.596 M260.985 234.022 C 259.063 235.980,259.550 236.412,261.573 234.542 C 262.108 234.047,262.655 233.710,262.788 233.793 C 262.921 233.875,263.066 233.505,263.111 232.971 C 263.215 231.711,263.289 231.675,260.985 234.022 M83.373 234.075 C 84.252 237.318,84.557 238.115,84.694 237.523 C 84.780 237.150,84.476 236.070,84.020 235.123 C 83.563 234.175,83.272 233.704,83.373 234.075 M314.767 234.700 C 314.748 234.865,314.688 235.405,314.634 235.900 C 314.579 236.395,314.663 236.800,314.820 236.800 C 314.978 236.800,315.215 236.395,315.348 235.900 C 315.684 234.647,315.659 234.400,315.200 234.400 C 314.980 234.400,314.785 234.535,314.767 234.700 M140.000 235.534 C 140.000 235.743,140.248 236.009,140.550 236.126 C 140.853 236.242,141.518 236.923,142.029 237.641 C 142.540 238.358,142.724 238.800,142.439 238.624 C 142.026 238.369,142.012 238.476,142.374 239.152 C 142.866 240.070,143.406 240.237,143.804 239.593 C 143.942 239.370,144.223 239.291,144.428 239.417 C 145.574 240.126,144.522 238.693,142.900 237.337 C 140.586 235.402,140.000 235.038,140.000 235.534 M256.128 238.358 C 253.265 240.492,253.136 240.730,254.900 240.641 C 255.747 240.598,256.200 240.371,256.200 239.988 C 256.200 239.648,256.652 239.348,257.271 239.276 C 258.600 239.123,259.145 238.456,258.836 237.358 C 258.614 236.567,258.452 236.627,256.128 238.358 M313.902 238.200 C 313.797 238.750,313.866 239.200,314.055 239.200 C 314.245 239.200,314.400 239.035,314.400 238.833 C 314.400 238.631,314.509 238.181,314.643 237.833 C 314.776 237.485,314.707 237.200,314.489 237.200 C 314.272 237.200,314.007 237.650,313.902 238.200 M145.448 239.782 C 145.670 240.359,147.600 241.807,147.600 241.395 C 147.600 241.272,148.005 241.368,148.500 241.608 C 149.364 242.027,149.369 242.019,148.624 241.422 C 148.196 241.080,147.611 240.800,147.324 240.800 C 147.036 240.800,146.800 240.663,146.800 240.496 C 146.800 240.329,146.447 239.972,146.015 239.702 C 145.365 239.296,145.267 239.310,145.448 239.782 M251.776 241.387 C 251.349 241.710,251.210 241.980,251.467 241.987 C 252.227 242.008,253.200 241.542,253.200 241.157 C 253.200 240.633,252.658 240.721,251.776 241.387 M312.351 242.802 C 311.855 243.684,311.349 244.241,311.225 244.041 C 311.101 243.840,310.995 244.424,310.988 245.338 C 310.975 247.315,308.930 250.810,308.309 249.918 C 308.075 249.583,308.043 249.735,308.217 250.350 C 308.385 250.944,308.336 251.207,308.085 251.052 C 307.516 250.701,307.127 251.941,307.563 252.720 C 307.817 253.173,307.633 253.951,306.957 255.285 C 306.423 256.338,306.077 257.200,306.188 257.200 C 306.605 257.200,310.995 247.839,312.799 243.100 C 313.684 240.779,313.541 240.684,312.351 242.802 M149.802 242.803 C 150.331 243.659,155.600 245.641,155.600 244.984 C 155.600 244.800,150.334 242.400,149.931 242.400 C 149.723 242.400,149.665 242.581,149.802 242.803 M247.600 243.600 L 246.200 244.366 247.300 244.383 C 247.905 244.392,248.400 244.593,248.400 244.829 C 248.400 245.064,248.670 244.987,249.000 244.657 C 250.524 243.133,249.654 242.476,247.600 243.600 M242.800 245.654 C 241.597 246.170,241.398 246.337,242.200 246.157 C 242.860 246.009,243.700 245.901,244.068 245.917 C 244.435 245.933,244.834 245.688,244.955 245.373 C 245.226 244.666,245.052 244.689,242.800 245.654 M87.815 246.849 C 88.156 247.592,88.538 248.515,88.664 248.900 C 88.790 249.285,89.052 249.600,89.247 249.600 C 89.816 249.600,89.653 248.542,89.000 248.000 C 88.670 247.726,88.400 247.276,88.400 247.000 C 88.400 246.724,88.129 246.273,87.798 245.998 C 87.272 245.562,87.274 245.669,87.815 246.849 M157.411 246.141 C 158.172 246.663,161.600 247.393,161.600 247.033 C 161.600 246.852,157.537 245.600,156.949 245.600 C 156.769 245.600,156.977 245.843,157.411 246.141 M114.530 247.063 C 114.675 247.208,114.593 247.568,114.348 247.863 C 113.985 248.300,114.282 248.400,115.951 248.400 C 118.384 248.400,118.602 247.907,116.454 247.263 C 114.702 246.738,114.147 246.681,114.530 247.063 M233.000 248.434 C 231.460 248.844,229.716 249.184,229.124 249.189 C 228.532 249.195,227.936 249.380,227.800 249.600 C 227.664 249.820,227.934 250.000,228.400 250.000 C 228.866 250.000,229.136 250.180,229.000 250.400 C 228.864 250.620,229.123 250.800,229.576 250.800 C 230.029 250.800,230.355 250.579,230.300 250.309 C 230.245 250.040,230.605 249.757,231.100 249.682 C 231.595 249.606,232.000 249.737,232.000 249.972 C 232.000 250.207,232.270 250.400,232.600 250.400 C 232.930 250.400,233.155 250.177,233.100 249.904 C 233.035 249.580,233.395 249.454,234.145 249.539 C 234.852 249.619,235.193 249.512,235.037 249.259 C 234.897 249.034,235.100 248.672,235.488 248.455 C 236.835 247.701,235.785 247.692,233.000 248.434 M166.000 248.448 C 166.000 248.871,167.705 249.316,168.636 249.135 C 169.030 249.059,168.607 248.806,167.667 248.556 C 166.750 248.311,166.000 248.263,166.000 248.448 M112.800 248.554 C 112.800 248.639,113.069 249.224,113.398 249.854 C 113.726 250.484,113.996 250.837,113.998 250.639 C 113.999 250.440,114.315 250.639,114.700 251.082 C 115.085 251.524,115.850 252.010,116.400 252.162 C 117.313 252.414,117.330 252.397,116.600 251.966 C 115.254 251.172,113.219 249.093,113.439 248.737 C 113.554 248.551,113.457 248.400,113.224 248.400 C 112.991 248.400,112.800 248.469,112.800 248.554 M121.600 248.705 C 121.600 248.924,122.185 249.344,122.900 249.640 C 123.615 249.935,125.327 250.947,126.704 251.888 C 128.081 252.830,129.318 253.600,129.453 253.600 C 129.962 253.600,128.595 252.302,127.745 251.979 C 127.192 251.769,126.809 251.236,126.729 250.564 C 126.646 249.874,126.269 249.365,125.680 249.149 C 125.094 248.933,124.848 248.954,125.003 249.205 C 125.395 249.840,123.662 249.659,122.586 248.954 C 122.044 248.599,121.600 248.487,121.600 248.705 M173.200 250.000 C 173.530 250.213,174.340 250.378,175.000 250.366 C 176.030 250.347,176.087 250.295,175.400 250.000 C 174.224 249.494,172.418 249.494,173.200 250.000 M224.600 250.000 C 223.891 250.305,223.925 250.347,224.900 250.372 C 225.505 250.387,226.000 250.220,226.000 250.000 C 226.000 249.531,225.693 249.531,224.600 250.000 M177.744 251.033 C 177.775 251.576,178.111 252.108,178.500 252.231 C 179.525 252.557,179.358 253.062,178.003 253.738 C 176.830 254.324,176.815 254.319,177.252 253.468 C 177.595 252.799,177.589 252.703,177.223 253.046 C 176.961 253.292,176.654 254.102,176.541 254.846 L 176.334 256.200 177.967 254.619 C 179.899 252.749,180.156 251.182,178.644 250.493 C 177.774 250.096,177.693 250.145,177.744 251.033 M221.300 250.488 C 220.072 251.080,220.120 252.841,221.402 254.278 C 221.999 254.947,222.305 255.117,222.159 254.700 C 222.024 254.315,221.775 254.000,221.604 254.000 C 220.867 254.000,220.905 252.421,221.647 252.185 C 222.067 252.052,222.304 251.767,222.171 251.554 C 222.039 251.340,222.149 250.903,222.415 250.582 C 222.976 249.907,222.576 249.873,221.300 250.488 M90.000 251.167 C 90.000 251.764,91.470 254.935,92.148 255.800 C 93.180 257.118,92.893 255.761,91.594 253.189 C 90.448 250.918,90.000 250.350,90.000 251.167 M117.985 253.382 C 118.251 253.703,118.335 254.198,118.170 254.482 C 118.006 254.767,118.009 254.876,118.177 254.726 C 118.345 254.575,118.914 254.615,119.441 254.816 C 120.696 255.293,120.653 254.984,119.300 253.793 C 118.093 252.731,117.218 252.457,117.985 253.382 M131.369 256.093 C 132.376 257.244,133.200 258.324,133.200 258.493 C 133.200 258.662,133.335 258.800,133.500 258.799 C 134.111 258.798,133.951 256.458,133.304 255.933 C 132.743 255.478,132.698 255.488,133.000 256.000 C 133.400 256.679,132.528 256.077,131.117 254.700 C 129.485 253.107,129.675 254.156,131.369 256.093 M120.800 255.502 C 120.800 255.722,121.070 256.126,121.400 256.400 C 121.735 256.678,122.000 256.721,122.000 256.498 C 122.000 256.278,121.730 255.874,121.400 255.600 C 121.065 255.322,120.800 255.279,120.800 255.502 M174.621 257.824 C 174.252 258.388,174.039 259.063,174.148 259.324 C 174.259 259.590,174.467 259.403,174.620 258.900 C 174.770 258.405,175.033 258.000,175.204 258.000 C 175.375 258.000,175.618 257.730,175.745 257.400 C 176.119 256.424,175.347 256.716,174.621 257.824 M93.214 257.755 C 93.222 258.000,93.486 258.650,93.800 259.200 L 94.372 260.200 94.386 259.133 C 94.394 258.547,94.625 257.991,94.900 257.900 C 95.175 257.808,94.905 257.638,94.300 257.522 C 93.630 257.393,93.206 257.485,93.214 257.755 M122.796 257.795 C 123.067 258.122,123.196 258.633,123.082 258.931 C 122.968 259.229,123.054 259.726,123.275 260.036 C 123.580 260.466,123.619 260.410,123.437 259.800 C 123.227 259.095,123.293 259.111,123.997 259.942 C 124.436 260.460,124.697 261.043,124.577 261.237 C 124.457 261.432,124.638 261.484,124.979 261.353 C 126.019 260.953,123.975 257.200,122.717 257.200 C 122.465 257.200,122.496 257.434,122.796 257.795 M224.000 257.711 C 224.000 257.809,224.521 259.039,225.158 260.445 C 226.316 262.999,227.198 265.793,227.391 267.513 C 227.447 268.015,227.607 268.540,227.746 268.680 C 228.159 269.093,228.032 267.125,227.534 265.400 C 227.280 264.520,227.042 263.170,227.005 262.400 C 226.886 259.916,226.811 259.688,226.128 259.744 C 225.723 259.778,225.360 259.414,225.217 258.830 C 225.021 258.034,224.000 257.096,224.000 257.711 M303.496 260.700 C 303.229 261.305,302.806 261.980,302.556 262.200 C 302.034 262.660,301.545 264.400,301.937 264.400 C 302.082 264.399,302.740 263.456,303.400 262.303 C 304.944 259.606,304.946 259.600,304.425 259.600 C 304.182 259.600,303.764 260.095,303.496 260.700 M172.000 260.387 C 172.000 260.526,172.148 260.811,172.330 261.020 C 172.966 261.754,172.003 265.625,171.101 265.958 C 170.374 266.227,170.355 266.297,170.946 266.524 C 171.437 266.712,171.551 267.055,171.366 267.791 C 171.219 268.380,171.285 268.800,171.525 268.800 C 171.928 268.800,172.529 266.863,172.345 266.157 C 172.294 265.961,172.592 264.630,173.007 263.200 C 173.422 261.770,173.680 260.518,173.581 260.418 C 173.296 260.132,172.000 260.106,172.000 260.387 M135.243 261.700 C 136.502 263.522,136.548 263.546,136.225 262.204 C 135.951 261.067,135.392 260.420,134.673 260.406 C 134.493 260.403,134.749 260.985,135.243 261.700 M126.000 261.933 C 126.000 262.466,126.250 262.800,126.649 262.800 C 127.204 262.800,127.221 262.699,126.762 262.100 C 126.467 261.715,126.175 261.325,126.113 261.233 C 126.051 261.142,126.000 261.457,126.000 261.933 M96.000 262.665 C 96.000 263.143,98.476 266.800,98.799 266.800 C 99.370 266.800,99.636 265.475,99.154 265.033 C 98.804 264.711,98.758 264.754,98.975 265.200 C 99.136 265.530,98.717 265.170,98.044 264.400 C 97.372 263.630,96.817 262.865,96.811 262.700 C 96.798 262.330,96.000 262.296,96.000 262.665 M137.535 264.654 C 138.285 266.097,143.842 270.394,144.964 270.399 C 145.165 270.399,144.676 269.905,143.879 269.300 C 143.082 268.695,142.423 267.913,142.415 267.562 C 142.393 266.636,140.846 265.378,139.917 265.532 C 139.478 265.605,138.663 265.245,138.106 264.732 C 137.141 263.846,137.113 263.842,137.535 264.654 M299.600 267.200 C 299.365 267.640,299.315 268.000,299.490 268.000 C 299.665 268.000,300.032 267.640,300.307 267.200 C 300.584 266.757,300.633 266.400,300.417 266.400 C 300.203 266.400,299.835 266.760,299.600 267.200 M99.820 268.726 C 101.073 270.846,101.981 271.861,101.991 271.149 C 101.996 270.791,101.711 270.258,101.358 269.965 C 101.005 269.673,100.560 269.020,100.368 268.516 C 100.177 268.012,99.825 267.600,99.587 267.600 C 99.332 267.600,99.428 268.063,99.820 268.726 M130.009 268.667 C 129.995 269.377,131.479 272.678,131.940 272.963 C 132.163 273.101,132.115 272.715,131.832 272.107 C 131.550 271.498,131.027 270.370,130.669 269.600 C 130.311 268.830,130.014 268.410,130.009 268.667 M298.138 269.417 C 297.778 270.355,298.167 270.466,298.719 269.582 C 299.028 269.087,299.054 268.800,298.791 268.800 C 298.562 268.800,298.268 269.078,298.138 269.417 M146.600 270.356 C 145.829 270.524,145.574 270.727,145.886 270.923 C 146.743 271.464,150.007 272.334,149.776 271.961 C 149.653 271.762,149.315 271.600,149.025 271.600 C 148.203 271.600,147.443 270.527,148.083 270.270 C 148.773 269.994,148.080 270.034,146.600 270.356 M163.841 271.400 C 163.424 271.716,162.929 271.880,162.741 271.764 C 162.553 271.648,162.400 271.763,162.400 272.019 C 162.400 272.300,162.679 272.378,163.100 272.215 C 163.485 272.066,164.292 271.845,164.894 271.723 C 165.495 271.602,165.889 271.345,165.770 271.151 C 165.456 270.644,164.713 270.740,163.841 271.400 M157.884 272.000 C 157.650 272.895,160.380 273.189,161.600 272.400 C 162.085 272.086,162.028 272.011,161.300 272.006 C 160.805 272.003,160.400 271.820,160.400 271.600 C 160.400 270.796,158.104 271.161,157.884 272.000 M228.006 289.700 C 228.010 301.792,228.147 307.992,228.400 307.600 C 228.937 306.769,228.937 271.200,228.400 271.200 C 228.139 271.200,228.002 277.629,228.006 289.700 M295.897 272.034 C 295.510 272.259,295.034 272.345,294.839 272.224 C 294.371 271.935,293.963 273.037,294.255 273.800 C 294.401 274.180,294.250 274.400,293.843 274.400 C 293.458 274.400,293.200 274.735,293.200 275.233 C 293.200 276.410,293.676 276.101,295.566 273.700 C 297.196 271.629,297.275 271.231,295.897 272.034 M103.090 273.244 C 103.477 273.900,104.279 274.901,104.872 275.469 L 105.949 276.501 105.914 275.264 C 105.895 274.584,105.728 274.121,105.544 274.235 C 105.360 274.348,105.305 274.191,105.423 273.885 C 105.694 273.177,104.644 272.294,103.369 272.158 L 102.386 272.053 103.090 273.244 M153.800 272.400 C 153.936 272.620,154.307 272.800,154.624 272.800 C 154.941 272.800,155.200 272.620,155.200 272.400 C 155.200 272.180,154.829 272.000,154.376 272.000 C 153.923 272.000,153.664 272.180,153.800 272.400 M132.422 274.200 C 132.420 274.420,132.770 275.050,133.200 275.600 C 133.630 276.150,133.986 276.395,133.991 276.144 C 133.996 275.894,133.646 275.264,133.213 274.744 C 132.781 274.225,132.425 273.980,132.422 274.200 M107.611 278.821 C 108.285 280.081,109.219 280.615,109.624 279.974 C 110.306 278.896,109.797 278.287,108.153 278.215 C 107.457 278.185,107.340 278.315,107.611 278.821 M135.810 278.783 C 135.667 279.016,135.838 279.317,136.192 279.452 C 137.072 279.790,137.346 279.419,136.645 278.838 C 136.251 278.510,135.989 278.493,135.810 278.783 M289.740 280.100 C 289.298 280.595,288.231 281.564,287.368 282.254 C 286.506 282.944,285.938 283.652,286.106 283.827 C 286.436 284.171,288.776 282.085,290.062 280.300 C 291.020 278.970,290.846 278.862,289.740 280.100 M110.364 281.933 C 110.580 282.336,111.071 282.921,111.455 283.233 C 111.887 283.584,111.790 283.304,111.201 282.500 C 110.151 281.065,109.757 280.798,110.364 281.933 M139.207 282.388 C 138.657 283.415,139.272 283.723,140.551 283.059 L 141.586 282.522 140.601 282.073 C 139.766 281.693,139.553 281.741,139.207 282.388 M144.800 285.013 C 144.800 285.660,145.425 285.807,145.774 285.242 C 145.896 285.045,145.726 284.781,145.398 284.654 C 145.035 284.515,144.800 284.656,144.800 285.013 M283.358 286.317 C 282.694 286.913,281.826 287.940,281.429 288.600 C 280.888 289.501,281.239 289.280,282.835 287.714 C 285.051 285.542,285.468 284.425,283.358 286.317 M148.900 286.211 C 149.505 286.549,150.000 287.022,150.000 287.262 C 150.000 287.551,150.201 287.532,150.595 287.204 C 151.321 286.601,152.400 286.950,152.400 287.787 C 152.400 288.133,152.748 288.400,153.200 288.400 C 153.640 288.400,154.000 288.255,154.000 288.077 C 154.000 287.900,154.495 287.559,155.100 287.320 C 156.181 286.893,156.172 286.884,154.600 286.840 C 153.720 286.816,152.370 286.634,151.600 286.437 C 150.830 286.239,149.660 285.970,149.000 285.838 L 147.800 285.597 148.900 286.211 M168.800 286.000 C 168.800 286.220,169.081 286.400,169.424 286.400 C 169.767 286.400,169.944 286.567,169.818 286.771 C 169.692 286.975,169.951 287.257,170.394 287.398 C 171.172 287.645,171.201 287.999,171.240 297.527 C 171.262 302.957,171.424 307.850,171.600 308.400 C 171.778 308.957,171.938 304.401,171.960 298.129 C 171.995 288.380,171.915 286.772,171.371 286.229 C 170.677 285.535,168.800 285.368,168.800 286.000 M165.800 286.400 C 165.360 286.589,163.920 286.764,162.600 286.788 L 160.200 286.832 161.771 287.616 C 163.462 288.460,164.177 288.610,163.830 288.049 C 163.632 287.727,165.400 287.115,166.767 287.031 C 167.079 287.012,167.409 286.772,167.501 286.498 C 167.689 285.933,166.981 285.892,165.800 286.400 M116.030 287.837 C 116.564 288.407,117.329 289.051,117.730 289.267 C 118.784 289.835,117.915 288.266,116.708 287.421 C 115.333 286.457,114.956 286.688,116.030 287.837 M277.000 292.107 C 276.560 292.598,275.750 293.295,275.200 293.656 C 274.650 294.017,274.311 294.428,274.446 294.569 C 274.698 294.832,278.092 292.201,278.333 291.556 C 278.583 290.889,277.802 291.212,277.000 292.107 M121.762 292.742 C 122.609 293.695,122.800 293.782,122.800 293.214 C 122.800 293.002,122.395 292.616,121.900 292.356 C 121.005 291.886,121.004 291.888,121.762 292.742 M125.900 296.078 C 126.383 296.561,126.898 296.835,127.046 296.687 C 127.435 296.298,126.413 295.200,125.662 295.200 C 125.148 295.200,125.195 295.372,125.900 296.078 M272.392 295.810 C 271.624 296.735,272.079 296.829,273.144 295.966 C 273.788 295.444,273.899 295.200,273.493 295.200 C 273.166 295.200,272.670 295.474,272.392 295.810 M266.923 298.603 C 267.111 299.231,266.770 299.649,265.311 300.577 C 264.293 301.224,263.666 301.822,263.916 301.905 C 264.377 302.059,268.086 299.722,268.333 299.123 C 268.407 298.945,268.722 298.800,269.033 298.800 C 269.345 298.800,269.600 298.614,269.600 298.386 C 269.600 298.109,269.326 298.119,268.774 298.414 C 268.150 298.748,267.795 298.728,267.317 298.331 C 266.770 297.877,266.717 297.914,266.923 298.603 M129.233 298.504 C 129.325 298.562,129.792 298.938,130.272 299.341 C 131.126 300.058,131.140 300.056,130.926 299.237 C 130.793 298.731,130.382 298.400,129.887 298.400 C 129.436 298.400,129.142 298.447,129.233 298.504 M134.000 300.809 C 133.492 301.145,133.553 301.326,134.400 301.994 C 135.948 303.214,136.547 303.045,135.800 301.600 C 135.128 300.300,134.913 300.205,134.000 300.809 M137.200 303.716 C 137.750 303.970,138.290 304.291,138.400 304.429 C 139.039 305.232,140.800 305.797,140.800 305.200 C 140.800 304.980,140.468 304.800,140.062 304.800 C 139.656 304.800,138.998 304.440,138.600 304.000 C 138.202 303.560,137.499 303.212,137.038 303.227 C 136.272 303.252,136.286 303.294,137.200 303.716 M256.917 304.704 C 257.091 304.800,257.020 305.135,256.760 305.449 C 256.075 306.273,256.495 306.467,257.726 305.896 C 258.883 305.358,259.142 304.800,258.233 304.800 C 257.921 304.800,257.426 304.740,257.133 304.666 C 256.840 304.592,256.743 304.609,256.917 304.704 M142.400 305.200 C 142.400 305.420,142.108 305.600,141.751 305.600 C 141.220 305.600,141.192 305.709,141.600 306.200 C 142.224 306.952,142.957 306.986,142.674 306.249 C 142.558 305.946,142.664 305.496,142.911 305.249 C 143.243 304.917,143.235 304.800,142.880 304.800 C 142.616 304.800,142.400 304.980,142.400 305.200 M143.776 307.413 C 144.658 308.079,145.200 308.167,145.200 307.643 C 145.200 307.258,144.227 306.792,143.467 306.813 C 143.210 306.820,143.349 307.090,143.776 307.413 M251.464 308.452 C 251.059 308.688,250.204 308.803,249.564 308.709 C 248.641 308.574,248.400 308.690,248.400 309.269 C 248.400 309.671,248.625 309.989,248.900 309.975 C 249.693 309.937,253.467 308.069,252.800 308.045 C 252.470 308.034,251.869 308.217,251.464 308.452 M146.800 308.757 C 146.800 309.092,152.949 312.000,153.657 312.000 C 153.872 312.000,153.934 311.817,153.796 311.593 C 153.658 311.370,153.401 311.276,153.226 311.384 C 153.050 311.492,152.585 311.225,152.191 310.791 C 151.798 310.356,151.249 310.000,150.971 310.000 C 150.694 310.000,149.641 309.646,148.633 309.214 C 147.625 308.782,146.800 308.576,146.800 308.757 M228.426 309.400 C 228.427 309.840,228.686 310.650,229.000 311.200 L 229.572 312.200 229.586 311.076 C 229.594 310.441,229.772 310.059,229.995 310.197 C 230.227 310.340,230.286 310.170,230.140 309.787 C 229.958 309.314,229.806 309.266,229.591 309.614 C 229.378 309.960,229.170 309.884,228.859 309.348 C 228.442 308.630,228.424 308.632,228.426 309.400 M170.980 310.507 C 170.849 310.848,170.295 311.240,169.748 311.377 C 168.984 311.569,168.812 311.807,169.003 312.410 C 169.189 312.994,168.991 313.313,168.226 313.661 C 167.102 314.173,166.860 314.800,167.786 314.800 C 168.700 314.800,171.087 312.507,171.377 311.348 C 171.668 310.191,171.356 309.529,170.980 310.507 M244.661 310.498 C 244.804 310.731,244.590 311.164,244.185 311.461 C 243.575 311.906,243.557 312.000,244.078 312.000 C 245.179 312.000,247.463 310.880,246.800 310.665 C 245.244 310.161,244.412 310.096,244.661 310.498 M158.006 312.993 C 157.490 313.614,157.823 313.835,160.400 314.584 L 161.400 314.874 160.493 314.210 C 159.995 313.844,159.679 313.396,159.791 313.215 C 159.903 313.033,159.712 312.775,159.365 312.642 C 158.532 312.322,158.571 312.312,158.006 312.993 M230.489 312.866 C 230.574 313.122,231.072 313.616,231.595 313.963 L 232.546 314.594 231.827 313.497 C 231.113 312.408,230.191 311.973,230.489 312.866 M240.300 312.832 C 239.149 313.502,239.508 313.965,240.800 313.478 C 242.010 313.021,242.425 312.390,241.500 312.412 C 241.225 312.419,240.685 312.608,240.300 312.832 M163.400 314.400 C 163.264 314.620,162.758 314.816,162.276 314.836 C 161.657 314.862,161.802 314.988,162.774 315.267 C 163.530 315.484,164.770 315.545,165.530 315.402 L 166.911 315.143 165.810 314.571 C 164.516 313.900,163.743 313.845,163.400 314.400 M234.400 314.400 C 233.958 314.686,234.221 314.788,235.400 314.788 C 236.579 314.788,236.842 314.686,236.400 314.400 C 236.070 314.187,235.620 314.012,235.400 314.012 C 235.180 314.012,234.730 314.187,234.400 314.400 " stroke="none" fill="#191515" fill-rule="evenodd"></path><path id="path2" d="M265.200 147.036 C 265.200 148.161,265.354 148.752,265.607 148.596 C 265.830 148.458,265.909 148.177,265.783 147.972 C 265.656 147.768,265.743 147.600,265.976 147.600 C 266.209 147.600,266.400 147.330,266.400 147.000 C 266.400 146.670,266.175 146.397,265.900 146.394 C 265.526 146.389,265.534 146.303,265.934 146.050 C 266.363 145.777,266.344 145.664,265.834 145.468 C 265.313 145.268,265.200 145.548,265.200 147.036 M110.653 246.975 C 110.133 247.768,110.116 247.930,110.568 247.757 C 110.881 247.637,111.246 247.256,111.378 246.912 C 111.777 245.872,111.351 245.909,110.653 246.975 M113.200 284.661 C 113.200 285.265,115.191 287.013,115.260 286.470 C 115.293 286.211,115.338 285.775,115.360 285.500 C 115.382 285.225,115.580 284.851,115.800 284.670 C 116.038 284.473,115.957 284.409,115.600 284.511 C 115.265 284.607,115.061 285.019,115.138 285.441 C 115.259 286.109,115.151 286.084,114.238 285.230 C 113.667 284.697,113.200 284.441,113.200 284.661 M157.000 287.600 C 157.136 287.820,157.586 288.000,158.000 288.000 C 158.414 288.000,158.864 287.820,159.000 287.600 C 159.145 287.366,158.730 287.200,158.000 287.200 C 157.270 287.200,156.855 287.366,157.000 287.600 M120.800 288.139 C 120.800 288.527,122.437 290.096,122.636 289.897 C 122.763 289.771,122.492 289.292,122.033 288.833 C 121.262 288.062,120.800 287.802,120.800 288.139 M118.996 290.378 C 119.898 291.394,121.202 292.186,121.195 291.714 C 121.192 291.541,120.517 290.969,119.695 290.441 C 118.229 289.501,118.215 289.500,118.996 290.378 M123.800 294.400 C 124.198 294.840,124.592 295.200,124.676 295.200 C 124.760 295.200,124.635 294.840,124.400 294.400 C 124.165 293.960,123.770 293.600,123.524 293.600 C 123.278 293.600,123.402 293.960,123.800 294.400 " stroke="none" fill="#10f010" fill-rule="evenodd"></path><path id="path3" d="M265.200 147.036 C 265.200 148.161,265.354 148.752,265.607 148.596 C 265.830 148.458,265.909 148.177,265.783 147.972 C 265.656 147.768,265.743 147.600,265.976 147.600 C 266.209 147.600,266.400 147.330,266.400 147.000 C 266.400 146.670,266.175 146.397,265.900 146.394 C 265.526 146.389,265.534 146.303,265.934 146.050 C 266.363 145.777,266.344 145.664,265.834 145.468 C 265.313 145.268,265.200 145.548,265.200 147.036 M110.653 246.975 C 110.133 247.768,110.116 247.930,110.568 247.757 C 110.881 247.637,111.246 247.256,111.378 246.912 C 111.777 245.872,111.351 245.909,110.653 246.975 M113.200 284.661 C 113.200 285.265,115.191 287.013,115.260 286.470 C 115.293 286.211,115.338 285.775,115.360 285.500 C 115.382 285.225,115.580 284.851,115.800 284.670 C 116.038 284.473,115.957 284.409,115.600 284.511 C 115.265 284.607,115.061 285.019,115.138 285.441 C 115.259 286.109,115.151 286.084,114.238 285.230 C 113.667 284.697,113.200 284.441,113.200 284.661 M157.000 287.600 C 157.136 287.820,157.586 288.000,158.000 288.000 C 158.414 288.000,158.864 287.820,159.000 287.600 C 159.145 287.366,158.730 287.200,158.000 287.200 C 157.270 287.200,156.855 287.366,157.000 287.600 M120.800 288.139 C 120.800 288.527,122.437 290.096,122.636 289.897 C 122.763 289.771,122.492 289.292,122.033 288.833 C 121.262 288.062,120.800 287.802,120.800 288.139 M118.996 290.378 C 119.898 291.394,121.202 292.186,121.195 291.714 C 121.192 291.541,120.517 290.969,119.695 290.441 C 118.229 289.501,118.215 289.500,118.996 290.378 M123.800 294.400 C 124.198 294.840,124.592 295.200,124.676 295.200 C 124.760 295.200,124.635 294.840,124.400 294.400 C 124.165 293.960,123.770 293.600,123.524 293.600 C 123.278 293.600,123.402 293.960,123.800 294.400 " stroke="none" fill="#10f010" fill-rule="evenodd"></path><path id="path4" d="M265.200 147.036 C 265.200 148.161,265.354 148.752,265.607 148.596 C 265.830 148.458,265.909 148.177,265.783 147.972 C 265.656 147.768,265.743 147.600,265.976 147.600 C 266.209 147.600,266.400 147.330,266.400 147.000 C 266.400 146.670,266.175 146.397,265.900 146.394 C 265.526 146.389,265.534 146.303,265.934 146.050 C 266.363 145.777,266.344 145.664,265.834 145.468 C 265.313 145.268,265.200 145.548,265.200 147.036 M110.653 246.975 C 110.133 247.768,110.116 247.930,110.568 247.757 C 110.881 247.637,111.246 247.256,111.378 246.912 C 111.777 245.872,111.351 245.909,110.653 246.975 M113.200 284.661 C 113.200 285.265,115.191 287.013,115.260 286.470 C 115.293 286.211,115.338 285.775,115.360 285.500 C 115.382 285.225,115.580 284.851,115.800 284.670 C 116.038 284.473,115.957 284.409,115.600 284.511 C 115.265 284.607,115.061 285.019,115.138 285.441 C 115.259 286.109,115.151 286.084,114.238 285.230 C 113.667 284.697,113.200 284.441,113.200 284.661 M157.000 287.600 C 157.136 287.820,157.586 288.000,158.000 288.000 C 158.414 288.000,158.864 287.820,159.000 287.600 C 159.145 287.366,158.730 287.200,158.000 287.200 C 157.270 287.200,156.855 287.366,157.000 287.600 M120.800 288.139 C 120.800 288.527,122.437 290.096,122.636 289.897 C 122.763 289.771,122.492 289.292,122.033 288.833 C 121.262 288.062,120.800 287.802,120.800 288.139 M118.996 290.378 C 119.898 291.394,121.202 292.186,121.195 291.714 C 121.192 291.541,120.517 290.969,119.695 290.441 C 118.229 289.501,118.215 289.500,118.996 290.378 M123.800 294.400 C 124.198 294.840,124.592 295.200,124.676 295.200 C 124.760 295.200,124.635 294.840,124.400 294.400 C 124.165 293.960,123.770 293.600,123.524 293.600 C 123.278 293.600,123.402 293.960,123.800 294.400 " stroke="none" fill="#10f010" fill-rule="evenodd"></path></g></svg>
