<svg id="svg" version="1.1" xmlns="http://www.w3.org/2000/svg" xmlns:xlink="http://www.w3.org/1999/xlink" width="50" height="50" viewBox="0, 0, 400,400"><g id="svgg"><path id="path0" d="M31.606 0.823 C 30.840 1.250,29.935 1.600,29.595 1.600 C 29.256 1.600,28.623 1.846,28.189 2.146 C 27.755 2.446,26.966 2.828,26.436 2.993 C 25.906 3.159,24.466 3.993,23.236 4.847 C 22.006 5.700,20.845 6.399,20.656 6.399 C 19.293 6.402,6.402 19.293,6.399 20.656 C 6.399 20.845,5.700 22.006,4.847 23.236 C 3.993 24.466,3.159 25.906,2.993 26.436 C 2.828 26.966,2.446 27.755,2.146 28.189 C 1.846 28.623,1.600 29.256,1.600 29.595 C 1.600 29.934,1.240 30.884,0.800 31.704 C -0.464 34.063,-0.464 365.937,0.800 368.296 C 1.240 369.116,1.600 370.010,1.600 370.282 C 1.600 370.759,2.871 373.573,3.640 374.800 C 3.847 375.130,4.285 375.985,4.613 376.700 C 4.942 377.415,5.376 378.000,5.578 378.000 C 5.781 378.000,6.074 378.404,6.231 378.898 C 6.628 380.150,11.359 385.830,13.780 387.961 C 14.428 388.533,15.619 389.630,16.425 390.400 C 18.311 392.201,19.993 393.417,21.071 393.759 C 21.541 393.908,22.027 394.294,22.150 394.615 C 22.274 394.937,22.626 395.200,22.934 395.200 C 23.241 395.200,23.921 395.535,24.446 395.945 C 24.971 396.355,25.850 396.826,26.400 396.992 C 26.950 397.159,27.670 397.528,28.000 397.813 C 28.330 398.099,29.269 398.456,30.086 398.608 C 30.903 398.760,31.780 399.135,32.035 399.442 C 32.428 399.916,44.814 400.000,114.391 400.000 L 196.284 400.000 198.242 397.841 C 201.139 394.648,201.271 394.454,201.641 392.863 C 202.085 390.951,202.085 246.649,201.641 244.737 C 201.245 243.033,200.955 242.632,197.962 239.638 C 193.679 235.356,195.408 235.621,171.700 235.610 L 152.000 235.600 152.000 218.800 L 152.000 202.000 171.700 201.990 C 191.085 201.981,193.634 201.846,195.025 200.751 C 195.930 200.037,200.037 195.930,200.751 195.025 C 201.869 193.605,201.981 190.846,201.990 164.532 C 201.998 142.694,202.106 137.228,202.569 135.332 C 202.881 134.050,203.258 131.123,203.406 128.829 C 203.553 126.536,203.908 124.286,204.194 123.829 C 204.479 123.373,204.840 122.106,204.994 121.014 C 205.148 119.922,205.528 118.667,205.837 118.225 C 206.147 117.783,206.403 117.147,206.407 116.811 C 206.410 116.475,207.127 114.760,208.000 113.000 C 208.873 111.240,209.590 109.575,209.593 109.300 C 209.597 109.025,209.766 108.800,209.969 108.800 C 210.172 108.800,210.541 108.186,210.788 107.435 C 211.036 106.685,211.500 105.970,211.819 105.848 C 212.139 105.725,212.400 105.447,212.400 105.230 C 212.400 102.296,226.316 88.970,232.800 85.695 C 233.350 85.417,234.570 84.754,235.511 84.222 C 236.453 83.690,237.848 83.048,238.611 82.796 C 239.375 82.544,240.000 82.188,240.000 82.004 C 240.000 81.821,240.710 81.550,241.577 81.404 C 242.444 81.257,243.366 80.882,243.626 80.569 C 243.886 80.256,244.661 79.999,245.349 79.998 C 247.021 79.995,249.600 79.257,249.600 78.781 C 249.600 78.572,250.730 78.400,252.110 78.400 C 255.405 78.400,261.298 77.655,261.780 77.177 C 262.006 76.952,269.409 76.800,280.080 76.800 L 298.000 76.800 298.000 93.784 L 298.000 110.768 283.452 110.763 C 268.864 110.759,267.274 110.858,265.811 111.860 C 265.377 112.157,264.430 112.400,263.707 112.400 C 262.887 112.400,262.134 112.701,261.707 113.200 C 261.330 113.640,260.727 114.000,260.367 114.000 C 258.407 114.000,250.000 122.790,250.000 124.840 C 250.000 125.062,249.595 126.089,249.100 127.122 L 248.200 129.000 248.200 161.066 L 248.200 193.133 249.100 194.350 C 249.595 195.020,250.000 195.717,250.000 195.899 C 250.000 196.441,253.675 199.803,255.400 200.839 L 257.000 201.800 279.900 201.913 C 304.458 202.033,304.559 202.042,302.250 203.959 C 301.947 204.210,301.589 205.108,301.453 205.956 C 301.318 206.803,300.936 207.722,300.604 207.997 C 300.272 208.273,300.000 208.884,300.000 209.355 C 300.000 209.826,299.640 210.884,299.200 211.704 C 298.760 212.525,298.399 213.513,298.397 213.899 C 298.396 214.284,298.037 215.140,297.600 215.800 C 297.163 216.460,296.804 217.332,296.803 217.737 C 296.801 218.142,296.440 218.931,296.000 219.491 C 295.560 220.050,295.200 220.844,295.200 221.255 C 295.200 221.667,294.840 222.675,294.400 223.496 C 293.960 224.316,293.600 225.374,293.600 225.845 C 293.600 226.316,293.328 226.927,292.996 227.203 C 292.664 227.478,292.282 228.397,292.147 229.244 C 292.011 230.092,291.651 230.992,291.347 231.244 C 291.042 231.497,290.682 232.397,290.547 233.244 C 290.167 235.620,290.623 235.556,273.180 235.683 L 257.000 235.800 255.400 236.761 C 253.675 237.797,250.000 241.159,250.000 241.701 C 250.000 241.883,249.595 242.580,249.100 243.250 L 248.200 244.467 248.200 318.800 L 248.200 393.133 249.100 394.350 C 249.595 395.020,250.000 395.717,250.000 395.899 C 250.000 396.081,250.861 397.078,251.914 398.115 L 253.827 400.000 310.665 400.000 C 358.337 400.000,367.575 399.912,367.957 399.451 C 368.208 399.150,369.062 398.797,369.856 398.668 C 370.650 398.540,371.592 398.179,371.950 397.868 C 372.307 397.556,373.275 397.084,374.100 396.820 C 374.925 396.555,375.600 396.172,375.600 395.969 C 375.600 395.766,375.870 395.600,376.200 395.600 C 376.530 395.600,377.160 395.240,377.600 394.800 C 378.040 394.360,378.535 393.997,378.700 393.993 C 379.896 393.964,384.904 389.582,390.355 383.796 C 391.789 382.273,393.980 379.204,393.993 378.700 C 393.997 378.535,394.360 378.040,394.800 377.600 C 395.240 377.160,395.600 376.530,395.600 376.200 C 395.600 375.870,395.766 375.600,395.969 375.600 C 396.172 375.600,396.555 374.925,396.820 374.100 C 397.084 373.275,397.556 372.307,397.868 371.950 C 398.179 371.592,398.540 370.650,398.668 369.856 C 398.797 369.062,399.150 368.208,399.451 367.957 C 400.282 367.268,400.273 32.724,399.442 32.035 C 399.135 31.780,398.760 30.903,398.608 30.086 C 398.456 29.269,398.099 28.330,397.813 28.000 C 397.528 27.670,397.159 26.950,396.992 26.400 C 396.826 25.850,396.355 24.971,395.945 24.446 C 395.535 23.921,395.200 23.241,395.200 22.934 C 395.200 22.626,394.937 22.274,394.615 22.150 C 394.294 22.027,393.908 21.541,393.759 21.071 C 393.418 19.995,392.204 18.315,390.400 16.421 C 389.630 15.613,388.449 14.332,387.775 13.576 C 385.625 11.163,380.142 6.626,378.898 6.231 C 378.404 6.074,378.000 5.781,378.000 5.578 C 378.000 5.376,377.415 4.942,376.700 4.613 C 375.985 4.285,375.130 3.847,374.800 3.640 C 373.468 2.804,370.895 1.685,369.712 1.425 C 369.021 1.273,368.241 0.890,367.979 0.574 C 367.111 -0.471,33.484 -0.224,31.606 0.823 M351.342 27.399 C 351.844 27.728,353.413 28.112,354.828 28.252 C 356.242 28.392,357.670 28.739,358.000 29.022 C 358.330 29.306,359.121 29.668,359.758 29.827 C 360.395 29.986,361.237 30.405,361.629 30.758 C 362.705 31.726,363.310 32.192,364.546 33.001 C 365.846 33.853,369.760 38.997,370.198 40.429 C 370.361 40.963,370.722 41.670,371.000 42.000 C 371.278 42.330,371.628 43.787,371.778 45.238 C 371.928 46.688,372.309 48.374,372.625 48.983 C 373.329 50.341,373.511 349.929,372.808 350.632 C 372.593 350.847,372.203 352.458,371.942 354.212 C 371.681 355.965,371.252 357.670,370.988 358.000 C 370.724 358.330,370.386 359.110,370.238 359.734 C 370.089 360.358,369.793 361.078,369.580 361.334 C 369.367 361.590,368.466 362.736,367.577 363.881 C 366.689 365.026,365.026 366.689,363.881 367.577 C 362.736 368.466,361.590 369.367,361.334 369.580 C 361.078 369.793,360.358 370.089,359.734 370.238 C 359.110 370.386,358.330 370.734,358.000 371.011 C 357.670 371.288,356.295 371.639,354.945 371.791 C 353.595 371.943,351.999 372.323,351.399 372.634 C 350.482 373.110,344.462 373.200,313.554 373.200 L 276.800 373.200 276.800 318.818 L 276.800 264.437 291.500 264.318 L 306.200 264.200 307.707 263.133 C 310.992 260.807,313.709 257.466,314.203 255.143 C 314.360 254.404,314.719 253.530,315.000 253.200 C 315.281 252.870,315.643 251.980,315.804 251.223 C 315.966 250.465,316.329 249.614,316.612 249.331 C 316.895 249.047,317.247 248.103,317.395 247.231 C 317.542 246.359,317.918 245.434,318.231 245.174 C 318.544 244.914,318.801 244.319,318.803 243.851 C 318.804 243.383,319.163 242.460,319.600 241.800 C 320.037 241.140,320.396 240.327,320.397 239.994 C 320.399 239.661,320.760 238.716,321.200 237.896 C 321.640 237.075,322.000 236.026,322.000 235.565 C 322.000 235.103,322.360 234.269,322.800 233.709 C 323.240 233.150,323.601 232.311,323.603 231.846 C 323.604 231.381,323.963 230.460,324.400 229.800 C 324.837 229.140,325.196 228.127,325.197 227.549 C 325.199 226.971,325.472 226.273,325.804 225.997 C 326.136 225.722,326.518 224.803,326.653 223.956 C 326.789 223.108,327.149 222.208,327.453 221.956 C 327.758 221.703,328.119 220.799,328.255 219.948 C 328.391 219.097,328.652 218.400,328.836 218.400 C 329.019 218.400,329.428 217.545,329.744 216.500 C 330.060 215.455,330.606 214.060,330.957 213.400 C 331.308 212.740,331.596 211.907,331.598 211.549 C 331.599 211.191,331.851 210.690,332.158 210.435 C 332.465 210.180,332.840 209.312,332.991 208.506 C 333.142 207.700,333.521 206.677,333.833 206.231 C 334.145 205.786,334.400 205.144,334.400 204.805 C 334.400 204.466,334.760 203.516,335.200 202.696 C 335.640 201.875,336.000 200.975,336.000 200.696 C 336.000 200.416,336.360 199.516,336.800 198.696 C 337.240 197.875,337.600 196.975,337.600 196.696 C 337.600 196.416,337.989 195.471,338.464 194.594 C 339.803 192.122,339.767 182.835,338.409 180.562 C 337.178 178.501,335.021 176.235,332.800 174.669 L 331.000 173.400 303.900 173.289 L 276.800 173.178 276.800 156.803 C 276.800 141.023,276.828 140.413,277.574 140.014 C 278.072 139.748,284.591 139.594,295.874 139.582 C 319.876 139.558,320.143 139.507,324.480 134.119 C 326.926 131.079,326.800 133.278,326.800 93.672 L 326.800 57.319 325.852 55.536 C 323.563 51.231,320.167 48.815,315.702 48.315 C 309.337 47.602,248.088 48.104,246.400 48.883 C 245.630 49.239,243.830 49.647,242.400 49.791 C 240.970 49.935,239.436 50.288,238.991 50.576 C 238.546 50.863,237.376 51.229,236.391 51.388 C 235.406 51.547,234.201 51.930,233.714 52.238 C 233.227 52.547,232.507 52.802,232.114 52.804 C 231.721 52.806,230.500 53.250,229.400 53.791 C 228.300 54.332,227.107 54.781,226.749 54.787 C 226.391 54.794,225.883 55.058,225.621 55.374 C 225.359 55.690,224.630 56.062,224.000 56.200 C 223.370 56.338,222.650 56.698,222.400 57.000 C 222.150 57.302,221.405 57.667,220.745 57.812 C 220.086 57.957,219.453 58.317,219.340 58.613 C 219.226 58.909,218.621 59.264,217.994 59.401 C 217.368 59.539,216.652 59.897,216.403 60.197 C 216.154 60.497,215.016 61.227,213.875 61.818 C 212.734 62.410,211.494 63.188,211.119 63.547 C 209.847 64.767,209.029 65.392,207.914 65.997 C 204.953 67.602,192.331 80.306,190.796 83.225 C 190.514 83.761,190.039 84.344,189.742 84.520 C 189.444 84.696,189.200 85.092,189.200 85.400 C 189.200 85.708,188.954 86.104,188.654 86.280 C 188.354 86.456,187.809 87.140,187.442 87.800 C 187.076 88.460,186.421 89.540,185.987 90.200 C 185.553 90.860,184.939 91.954,184.622 92.632 C 184.305 93.309,183.766 94.096,183.423 94.381 C 183.080 94.665,182.800 95.155,182.800 95.470 C 182.800 95.959,181.970 97.774,180.729 100.000 C 180.545 100.330,180.195 101.050,179.952 101.600 C 179.708 102.150,179.169 103.340,178.754 104.244 C 178.340 105.148,178.000 106.341,178.000 106.895 C 178.000 107.449,177.739 108.119,177.420 108.384 C 177.100 108.649,176.723 109.706,176.581 110.733 C 176.439 111.760,175.980 113.332,175.561 114.226 C 175.118 115.173,174.800 116.724,174.800 117.940 C 174.800 119.255,174.541 120.424,174.100 121.096 C 173.455 122.080,173.391 124.167,173.286 147.668 L 173.172 173.173 152.286 173.286 L 131.400 173.400 129.893 174.467 C 127.971 175.827,125.827 177.971,124.467 179.893 L 123.400 181.400 123.292 218.157 L 123.184 254.914 124.069 256.742 C 125.047 258.762,127.448 261.406,129.842 263.099 L 131.400 264.200 152.300 264.314 L 173.200 264.427 173.200 318.814 L 173.200 373.200 111.386 373.200 C 58.978 373.200,49.437 373.114,48.686 372.638 C 48.199 372.329,46.630 371.949,45.200 371.795 C 43.770 371.641,42.330 371.285,42.000 371.004 C 41.670 370.724,40.963 370.361,40.429 370.198 C 38.997 369.760,33.853 365.846,33.001 364.546 C 32.192 363.310,31.726 362.705,30.758 361.629 C 30.405 361.237,29.986 360.395,29.827 359.758 C 29.668 359.121,29.306 358.330,29.022 358.000 C 28.739 357.670,28.392 356.242,28.252 354.828 C 28.112 353.413,27.728 351.844,27.399 351.342 C 26.487 349.951,26.489 50.747,27.400 48.920 C 27.730 48.259,28.120 46.568,28.267 45.163 C 28.414 43.758,28.774 42.369,29.066 42.076 C 29.359 41.784,29.716 41.062,29.859 40.472 C 30.503 37.816,37.829 30.487,40.472 29.855 C 41.062 29.714,41.784 29.359,42.076 29.066 C 42.369 28.774,43.751 28.415,45.146 28.269 C 46.542 28.123,48.160 27.752,48.742 27.444 C 50.399 26.568,350.006 26.523,351.342 27.399 " stroke="none" fill="#04ec04" fill-rule="evenodd"></path><path id="path1" d="" stroke="none" fill="#08ec04" fill-rule="evenodd"></path><path id="path2" d="" stroke="none" fill="#08ec04" fill-rule="evenodd"></path><path id="path3" d="" stroke="none" fill="#08ec04" fill-rule="evenodd"></path><path id="path4" d="" stroke="none" fill="#08ec04" fill-rule="evenodd"></path></g></svg>
