<svg fill="#35ff1f" id="Layer_1_1_" enable-background="new 0 0 64 64" height="512" viewBox="0 0 64 64" width="512" xmlns="http://www.w3.org/2000/svg"><path d="m42 18c.265 0 .52-.105.707-.293l11.707-11.707h1.77c.414 1.161 1.514 2 2.816 2 1.654 0 3-1.346 3-3s-1.346-3-3-3c-1.302 0-2.402.839-2.816 2h-2.184c-.265 0-.52.105-.707.293l-11.707 11.707h-1.586v-1c0-1.654-1.346-3-3-3s-3 1.346-3 3v3h-5.101c-.465-2.279-2.484-4-4.899-4-1.252 0-2.384.479-3.262 1.242l-9.256-7.068c.322-.661.518-1.392.518-2.174 0-2.757-2.243-5-5-5s-5 2.243-5 5 2.243 5 5 5c1.252 0 2.384-.479 3.262-1.242l9.256 7.068c-.181.371-.332.758-.417 1.173h-7.202c-.465-2.278-2.485-3.999-4.899-3.999-2.757 0-5 2.243-5 5s2.243 5 5 5c1.252 0 2.384-.479 3.262-1.242l3.59 2.742-3.59 2.742c-.878-.763-2.01-1.242-3.262-1.242-2.757 0-5 2.243-5 5s2.243 5 5 5c1.252 0 2.384-.479 3.262-1.242l3.59 2.742-3.59 2.742c-.878-.763-2.01-1.242-3.262-1.242-2.757 0-5 2.243-5 5s2.243 5 5 5c2.414 0 4.434-1.721 4.899-4h7.202c.085.415.236.802.417 1.173l-9.256 7.068c-.878-.762-2.01-1.241-3.262-1.241-2.757 0-5 2.243-5 5s2.243 5 5 5 5-2.243 5-5c0-.782-.196-1.513-.518-2.173l9.256-7.068c.878.762 2.01 1.241 3.262 1.241 2.414 0 4.434-1.721 4.899-4h5.101v2c0 1.654 1.346 3 3 3s3-1.346 3-3h1.586l11.707 11.707c.187.188.442.293.707.293h2.184c.414 1.161 1.514 2 2.816 2 1.654 0 3-1.346 3-3s-1.346-3-3-3c-1.302 0-2.402.839-2.816 2h-1.77l-11.707-11.707c-.187-.188-.442-.293-.707-.293h-2v-3h4.586l7.707 7.707c.187.188.442.293.707.293h3.184c.414 1.161 1.514 2 2.816 2 1.654 0 3-1.346 3-3s-1.346-3-3-3c-1.302 0-2.402.839-2.816 2h-2.77l-7.707-7.707c-.187-.188-.442-.293-.707-.293h-5v-3h8.586l3.707 3.707c.187.188.442.293.707.293h3.184c.414 1.161 1.514 2 2.816 2 1.654 0 3-1.346 3-3s-1.346-3-3-3c-1.302 0-2.402.839-2.816 2h-2.77l-3.707-3.707c-.187-.188-.442-.293-.707-.293h-9v-3h16.184c.414 1.161 1.514 2 2.816 2 1.654 0 3-1.346 3-3s-1.346-3-3-3c-1.302 0-2.402.839-2.816 2h-16.184v-3h9c.265 0 .52-.105.707-.293l3.707-3.707h2.77c.414 1.161 1.514 2 2.816 2 1.654 0 3-1.346 3-3s-1.346-3-3-3c-1.302 0-2.402.839-2.816 2h-3.184c-.265 0-.52.105-.707.293l-3.707 3.707h-8.586v-3h5c.265 0 .52-.105.707-.293l7.707-7.707h2.77c.414 1.161 1.514 2 2.816 2 1.654 0 3-1.346 3-3s-1.346-3-3-3c-1.302 0-2.402.839-2.816 2h-3.184c-.265 0-.52.105-.707.293l-7.707 7.707h-4.586v-3zm17-14c.551 0 1 .448 1 1s-.449 1-1 1-1-.448-1-1 .449-1 1-1zm0 54c.551 0 1 .448 1 1s-.449 1-1 1-1-.448-1-1 .449-1 1-1zm0-9c.551 0 1 .448 1 1s-.449 1-1 1-1-.448-1-1 .449-1 1-1zm0-9c.551 0 1 .448 1 1s-.449 1-1 1-1-.448-1-1 .449-1 1-1zm0-9c.551 0 1 .448 1 1s-.449 1-1 1-1-.448-1-1 .449-1 1-1zm0-9c.551 0 1 .448 1 1s-.449 1-1 1-1-.448-1-1 .449-1 1-1zm0-9c.551 0 1 .448 1 1s-.449 1-1 1-1-.448-1-1 .449-1 1-1zm-30.101 7h5.101v11h-5.101c-.465-2.279-2.484-4-4.899-4-1.252 0-2.384.479-3.262 1.242l-3.59-2.742 3.59-2.742c.878.763 2.01 1.242 3.262 1.242 2.414 0 4.434-1.721 4.899-4zm-7.899 12c0-1.654 1.346-3 3-3s3 1.346 3 3-1.346 3-3 3-3-1.346-3-3zm3-16c1.654 0 3 1.346 3 3s-1.346 3-3 3-3-1.346-3-3 1.346-3 3-3zm-17-7c-1.654 0-3-1.346-3-3s1.346-3 3-3 3 1.346 3 3-1.346 3-3 3zm0 13c-1.654 0-3-1.346-3-3s1.346-3 3-3 3 1.346 3 3-1.346 3-3 3zm4.482-.827c.181-.371.332-.758.417-1.173h7.202c.085.415.236.802.417 1.173l-4.018 3.069zm8.036 8.654c-.181.371-.332.758-.417 1.173h-7.202c-.085-.415-.236-.802-.417-1.173l4.018-3.068zm-12.518 5.173c-1.654 0-3-1.346-3-3s1.346-3 3-3 3 1.346 3 3-1.346 3-3 3zm4.482-.827c.181-.371.332-.758.417-1.173h7.202c.085.415.236.802.417 1.173l-4.018 3.069zm7.619 9.827h-7.202c-.085-.415-.236-.802-.417-1.173l4.018-3.068 4.018 3.068c-.181.371-.332.758-.417 1.173zm-12.101 4c-1.654 0-3-1.346-3-3s1.346-3 3-3 3 1.346 3 3-1.346 3-3 3zm0 13c-1.654 0-3-1.346-3-3s1.346-3 3-3 3 1.346 3 3-1.346 3-3 3zm17-13c-1.654 0-3-1.346-3-3s1.346-3 3-3 3 1.346 3 3-1.346 3-3 3zm4.899-4c-.465-2.279-2.484-4-4.899-4-1.252 0-2.384.479-3.262 1.242l-3.59-2.742 3.59-2.742c.878.763 2.01 1.242 3.262 1.242 2.414 0 4.434-1.721 4.899-4h5.101v11zm9.101 4c0 .552-.449 1-1 1s-1-.448-1-1v-33c0-.552.449-1 1-1s1 .448 1 1z"/><path d="m30 23h2v2h-2z"/><path d="m30 27h2v2h-2z"/><path d="m30 35h2v2h-2z"/><path d="m30 39h2v2h-2z"/></svg>