<?xml version="1.0" encoding="UTF-8" standalone="no"?><!-- Generator: Gravit.io --><svg xmlns="http://www.w3.org/2000/svg" xmlns:xlink="http://www.w3.org/1999/xlink" style="isolation:isolate" viewBox="0 0 750 500" width="750pt" height="500pt"><defs><clipPath id="_clipPath_pMBYTDdTHXByYohDQ007glvkg3PHPF8L"><rect width="750" height="500"/></clipPath></defs><g clip-path="url(#_clipPath_pMBYTDdTHXByYohDQ007glvkg3PHPF8L)"><clipPath id="_clipPath_oBPtIxq0merlGyKAeh6oan08L2hUyQH4"><path d=" M 0 0 L 0 500 L 750 500 L 750 0 L 0 0 Z " fill="rgb(255,255,255)"/></clipPath><g clip-path="url(#_clipPath_oBPtIxq0merlGyKAeh6oan08L2hUyQH4)"><path d=" M 205.244 442.188 C 198.261 442.138 191.315 441.938 184.425 441.518 C 182.72 404.171 176.43 380.197 172.139 367.807 C 173.276 365.307 173.638 361.547 173.606 357.598 C 178.833 366.929 188.348 379.827 190.641 382.899 C 190.948 383.31 190.982 383.857 190.73 384.305 C 189.628 386.249 187.872 391.483 188.23 392.562 C 188.477 393.308 187.683 397.075 187.922 400.249 C 187.98 401.011 188.6 401.448 189.225 401.448 C 189.671 401.448 190.118 401.226 190.367 400.742 L 191.123 399.267 L 191.175 399.175 L 192.727 396.674 C 192.988 396.253 193.405 396.061 193.818 396.061 C 194.424 396.061 195.023 396.476 195.113 397.196 L 195.609 401.163 C 195.641 401.414 195.493 401.64 195.487 401.893 C 195.408 405.588 191.126 410.153 191.556 411.337 C 191.645 411.583 191.979 411.711 192.486 411.711 C 194.394 411.711 198.75 409.896 201.662 405.791 C 202.011 417.929 203.026 430.708 205.244 442.188 Z  M 247.297 441.243 L 253.074 394.806 L 260.05 440.751 C 255.799 440.909 251.544 441.078 247.297 441.243 Z  M 612.558 440.408 L 615.759 429.936 L 616.264 439.86 C 615.031 440.055 613.796 440.238 612.558 440.408 Z  M 304.878 439.773 C 306.126 430.595 309.114 403.813 305.682 378.081 L 305.524 374.17 L 316.647 375.717 L 324.305 326.067 C 327.497 321.854 330.376 317.862 332.588 314.463 C 332.472 320.815 332.395 325.411 332.182 330.963 C 331.848 339.637 328.179 372.328 328.179 372.328 C 329.348 374.127 332.321 375.344 336.042 376.162 L 338.205 439.315 C 327.096 439.458 315.985 439.615 304.878 439.773 Z  M 375.834 438.9 L 383.096 417.352 L 382.872 414.321 L 383.08 413.614 L 385.016 438.827 C 381.959 438.849 378.89 438.874 375.834 438.9 Z  M 667.027 421.59 C 670.436 406.76 675.56 400.564 675.627 387.616 C 676.274 383.392 676.164 373.553 668.936 353.654 C 671.651 350.901 673.972 348.306 675.814 345.952 C 680.67 339.746 682.935 331.906 682.23 324.059 C 681.596 316.98 680.344 307.356 678.59 297.462 C 687.745 290.909 693.58 279.217 686.512 271.464 C 676.521 260.506 676.428 251.274 673.736 242.124 C 671.045 232.973 664.977 227.03 655.993 224.497 C 641.703 220.469 644.83 213.787 642.158 196.909 C 639.802 182.032 630.581 176.592 622.952 176.592 C 622.272 176.592 621.604 176.636 620.954 176.719 L 620.958 176.527 C 620.958 176.527 621.024 174.067 613.993 172.995 C 612.517 172.769 611.091 172.66 609.72 172.66 C 603.779 172.66 598.82 174.706 594.844 178.248 C 597.266 160.629 598.871 143.389 598.871 143.389 L 594.626 142.399 L 595.236 138.335 L 595.403 137.795 C 598.82 136.948 600.769 133.306 602.166 130.528 C 603.561 127.75 606.242 124.761 608.491 123.079 C 610.741 121.396 616.1 116.226 614.818 114.939 C 614.711 114.831 614.567 114.782 614.392 114.782 C 613.494 114.782 611.783 116.087 610.042 117.392 C 608.301 118.697 606.53 120.002 605.51 120.002 C 605.39 120.002 605.281 119.984 605.183 119.946 C 603.259 119.193 607.546 115.138 607.546 115.138 C 607.546 115.138 613.979 107.237 611.735 106.484 C 611.654 106.457 611.568 106.443 611.476 106.443 C 609.031 106.443 602.995 115.784 601.447 116.141 C 601.324 116.17 601.218 116.183 601.125 116.183 C 600 116.183 600.916 114.269 600.916 114.269 C 600.916 114.269 609.926 102.309 607.683 101.021 C 607.505 100.919 607.313 100.872 607.11 100.872 C 604.753 100.872 600.932 107.21 600.932 107.21 C 600.932 107.21 597.024 113.165 595.52 113.165 C 595.419 113.165 595.329 113.138 595.251 113.08 C 594.392 112.443 601.497 101.184 599.235 99.827 C 599.011 99.692 598.781 99.632 598.548 99.632 C 596.478 99.632 594.199 104.415 594.199 104.415 L 586.896 119.382 C 586.896 119.382 586.154 115.628 585.734 111.991 C 585.384 108.96 583.32 108.525 582.181 108.525 C 581.954 108.525 581.763 108.542 581.63 108.56 C 580.834 108.665 581.874 116.475 581.436 121.5 C 580.998 126.526 581.957 128.025 581.41 133.906 C 581.282 135.282 581.015 136.721 580.682 138.118 L 580.621 138.119 L 580.337 139.069 L 576.259 138.119 L 561.159 199.811 C 561.159 199.811 548.044 224.236 531.141 226.139 C 530.355 226.153 529.494 226.167 528.564 226.18 C 528.688 224.103 530.296 195.134 524.492 174.095 C 520.04 157.957 504.937 154.87 501.236 154.351 L 501.242 154.255 C 501.242 154.255 501.205 154.255 501.133 154.255 C 501.02 154.255 500.819 154.257 500.542 154.267 C 500.457 154.259 500.413 154.255 500.413 154.255 L 500.41 154.272 C 496.381 154.447 478.848 156.302 472.973 175.214 C 467.046 194.29 469.988 218.549 470.825 224.37 C 470.786 224.366 470.745 224.363 470.707 224.359 C 464.766 221.698 458.642 216.323 453.277 210.596 C 465.253 186.931 464.617 167.904 464.617 167.904 L 457.612 155.072 C 446.27 137.637 417.956 119.133 417.956 119.133 C 417.499 120.058 416.906 121 416.221 121.939 L 415.83 121.681 C 415.854 120.71 415.835 119.639 415.721 118.329 C 415.282 113.304 416.323 105.494 415.527 105.389 C 415.394 105.371 415.203 105.354 414.975 105.354 C 413.836 105.354 411.773 105.789 411.423 108.82 C 411.21 110.664 410.915 112.537 410.675 113.936 C 409.713 112.732 408.589 111.657 407.583 110.721 L 402.958 101.244 C 402.958 101.244 401.977 99.185 400.717 97.769 C 441.352 80.957 487.994 70.703 533.279 70.703 C 611.887 70.703 686.381 101.619 718.1 182.812 C 733.816 223.043 734.603 276.108 727.834 318.627 C 721.374 359.2 701.672 399.539 667.027 421.59 Z  M 565.711 413.23 C 561.152 393.547 556.416 372.206 549.722 358.306 C 548.654 356.089 547.549 354.078 546.425 352.256 C 557.649 349.416 572.363 332.971 574.83 330.141 C 575.091 329.857 575.344 329.581 575.589 329.311 C 575.702 331.571 575.766 332.862 575.766 332.862 C 575.766 332.862 563.072 386.524 565.973 390.392 L 565.711 413.23 Z  M 70.369 396.183 C -0.185 328.348 -0.825 200.25 79.403 143.275 L 76.927 175.523 C 76.371 182.347 76.885 189.215 78.451 195.879 C 78.455 195.894 78.458 195.908 78.462 195.923 C 78.463 195.929 78.465 195.936 78.466 195.942 C 78.472 195.966 78.477 195.989 78.483 196.012 L 85.62 226.096 L 85.377 225.585 C 85.377 225.585 85.741 226.905 86.332 229.096 L 95.381 267.235 C 95.594 268.725 95.687 269.87 95.622 270.555 C 95.615 270.623 95.608 270.692 95.6 270.762 C 95.596 270.8 95.592 270.839 95.588 270.878 C 94.602 280.365 92.785 298.499 92.583 305.185 C 92.303 314.415 80.277 345.179 78.319 353.01 C 77.211 357.442 79.06 359.814 82.193 361.037 C 79.727 366.417 77.158 372.976 74.64 380.941 C 72.974 386.211 71.563 391.316 70.369 396.183 Z  M 430.19 388.952 C 430.265 382.213 430.195 375.529 429.903 369.358 C 429.875 368.765 429.844 368.174 429.809 367.588 C 431.879 366.651 433.736 365.57 435.262 364.322 C 435.262 364.322 436.596 348.644 433.594 336.301 C 430.591 323.958 421.918 302.608 421.251 286.763 C 421.188 285.267 421.144 283.722 421.117 282.151 C 421.119 282.16 421.12 282.164 421.12 282.164 L 422.078 249.613 C 424.579 247.485 426.927 245.34 429.143 243.176 C 437.312 255.067 445.904 266.516 451.236 273.476 L 455.619 279.622 L 455.676 279.214 C 456.029 279.666 456.278 279.982 456.41 280.149 C 455.852 294.722 456.221 310.454 457.795 325.097 C 456.575 324.876 455.917 324.742 455.917 324.742 L 455.917 340.737 L 455.917 340.737 C 455.94 340.743 455.96 340.748 455.983 340.754 C 451.701 345.114 446.321 351.745 441.029 361.377 C 436.886 368.92 433.386 378.59 430.19 388.952 Z  M 201.828 378.979 C 200.77 375.806 199.324 369.467 197.837 362.296 C 198.032 362.988 198.235 363.669 198.449 364.34 C 199.317 367.062 200.592 369.22 202.205 370.896 C 202.068 373.368 201.938 376.078 201.828 378.979 Z  M 195.562 350.909 C 193.409 339.806 191.567 329.521 191.203 327.89 C 191.165 327.722 191.161 327.566 191.191 327.397 C 191.486 325.751 193.187 315.952 194.408 302.779 C 195.272 294.323 196.005 284.353 196.151 274.017 C 196.333 274.265 196.51 274.501 196.685 274.728 C 194.936 305.81 192.97 331.479 195.562 350.909 Z  M 549.495 301.909 L 540.173 283.743 C 540.173 283.699 540.174 283.655 540.174 283.611 C 542.176 281.077 547.895 273.786 554.772 264.53 C 556.153 268.79 557.45 271.171 553.579 277.588 C 551.025 281.822 551.528 286.433 553.123 290.513 C 550.904 297.133 549.495 301.909 549.495 301.909 Z  M 312.922 245.332 C 304.375 219.452 297.492 211.636 286.421 209.736 C 283.174 209.179 280.252 208.972 277.701 208.972 C 276.853 208.972 276.046 208.995 275.281 209.036 C 274.684 208.864 274.076 208.702 273.466 208.551 C 272.756 206.277 272.985 202.405 272.096 200.635 C 270.729 197.913 267.959 197.092 265.044 197.046 L 266.257 193.716 L 266.833 195.021 C 268.063 193.125 269.986 187.003 269.986 187.003 L 270.825 188.775 C 273.809 185.978 273.342 179.639 273.342 179.639 L 274.274 181.13 C 275.067 179.008 275.323 176.457 275.276 173.872 C 276.079 172.499 276.438 170.841 276.436 169.225 C 276.435 167.152 275.84 165.149 274.832 163.905 C 274.833 163.808 274.834 163.709 274.834 163.609 C 274.834 158.038 273.995 154.716 273.995 154.716 C 273.995 154.716 275.182 158.327 275.501 158.327 C 275.551 158.327 275.58 158.24 275.58 158.038 C 275.58 156.538 276.326 155.363 274.368 151.933 C 272.512 148.681 272.918 148.596 272.965 148.596 C 272.967 148.596 272.969 148.597 272.969 148.597 L 275.3 150.967 L 275.3 150.967 C 275.3 150.967 274.678 149.34 273.812 147.42 C 275.665 147.574 277.539 147.656 279.441 147.656 C 283.441 147.655 287.56 147.294 291.827 146.493 C 318.324 141.517 342.392 127.848 365.61 114.771 C 369.112 112.799 372.682 110.882 376.331 109.014 C 377.289 110.174 378.289 111.064 378.289 111.064 L 391.502 123.053 C 391.502 123.053 387.419 122.693 383.552 122.038 C 383.176 121.974 382.83 121.945 382.511 121.945 C 379.542 121.945 378.912 124.466 378.795 125.234 C 378.665 126.085 387.011 127.349 392.05 129.302 C 394.02 130.066 395.499 130.449 396.922 130.77 C 398.123 132.543 399.664 134.106 401.754 134.625 L 401.921 135.164 L 402.531 139.228 L 398.286 140.218 C 398.286 140.218 401.9 179.046 406.468 199.711 C 404.466 201.091 402.481 202.391 400.602 203.607 C 399.925 203.738 399.23 203.854 398.515 203.953 C 398.699 203.638 398.8 203.463 398.8 203.463 L 398.8 203.463 L 398.8 203.463 L 398.8 203.463 L 398.8 203.463 C 393.466 196.863 388.892 192.622 380.302 191.488 C 380.278 191.247 380.255 191.002 380.232 190.751 C 381.007 190.629 381.878 190.561 382.852 190.561 C 383.534 190.561 384.266 190.594 385.051 190.666 C 385.137 190.674 385.224 190.678 385.313 190.678 C 389.657 190.677 397.12 181.433 391.166 174.645 L 391.068 174.486 C 390.107 172.918 389.501 171.178 389.268 169.398 C 389.377 168.819 389.431 168.217 389.431 167.614 C 389.432 167.048 389.385 166.481 389.29 165.931 C 389.464 164.737 389.811 163.563 390.339 162.447 C 392.718 157.418 391.856 153.213 389.097 150.016 C 385.623 145.991 388.814 145.723 385.143 139 C 384.099 137.09 382.18 136.407 379.966 136.407 C 374.388 136.407 366.944 140.747 366.944 140.747 L 366.264 140.995 C 365.42 140.881 364.546 140.821 363.639 140.818 C 363.602 140.818 363.567 140.818 363.53 140.818 C 355.946 140.818 350.548 143.642 346.99 148.072 C 344.046 149.288 336.779 152.778 332.135 159.193 C 327.022 166.256 333.316 174.903 337.575 178.218 C 341.834 181.532 336.008 184.091 336.107 189.284 C 336.206 194.476 341.425 195.774 345.227 196.074 C 345.459 196.092 345.707 196.1 345.97 196.1 C 346.455 196.1 346.987 196.071 347.548 196.019 C 330.293 202.464 327.704 215.108 327.659 215.335 C 327.657 215.337 327.655 215.339 327.653 215.34 C 327.39 215.445 316.804 219.768 314.168 237.558 C 313.829 239.842 313.405 242.475 312.922 245.332 Z  M 141.05 230.039 L 127.175 224.709 C 125.734 223.6 124.015 222.464 122.327 221.806 C 111.786 207.27 100.218 178.72 100.218 178.72 L 100.218 178.72 C 99.547 177.356 99.153 175.873 99.059 174.356 L 96.378 132.946 C 100.423 130.856 104.622 128.928 108.989 127.166 C 125.619 120.455 143.501 117.208 161.427 117.208 C 162.582 117.208 163.741 117.221 164.896 117.248 L 158.653 170.969 C 150.339 172.294 144.71 179.294 141.862 187.924 C 138.755 197.338 138.956 208.69 142.589 216.731 C 142.936 217.5 143.359 218.229 143.847 218.912 L 141.05 230.039 Z  M 225.148 206.98 C 223.572 206.855 222.091 206.795 220.697 206.795 C 220.107 206.795 219.535 206.806 218.976 206.827 C 218.933 206.805 218.889 206.785 218.845 206.765 C 209.326 202.471 200.213 190.2 195.61 183.24 L 195.831 182.861 L 192.656 178.135 L 192.594 178.422 C 192.533 178.317 192.501 178.263 192.501 178.263 L 190.878 120.126 C 200.244 121.994 209.436 124.748 218.268 128.355 C 226.563 131.742 234.467 135.481 242.348 138.758 C 232.857 141.68 227.861 150.659 226.474 160.987 C 225.62 160.355 225.099 159.969 225.099 159.969 C 225.099 159.969 220.847 173.393 223.737 181.13 L 224.669 179.639 C 224.669 179.639 224.204 185.978 227.186 188.775 L 228.025 187.003 C 228.025 187.003 229.949 193.125 231.179 195.021 L 231.754 193.716 L 233.071 197.33 C 232.218 197.376 231.335 197.563 230.343 197.959 C 225.714 199.806 227.541 202.078 225.148 206.98 Z  M 398.763 203.476 C 398.788 203.466 398.8 203.463 398.8 203.463 L 398.763 203.476 Z  M 387.406 112.606 C 386.771 112.606 384.557 110.525 382.15 108.443 C 381.57 107.942 380.98 107.441 380.397 106.969 C 381.45 106.449 382.493 105.94 383.557 105.429 C 384.801 106.939 388.615 111.739 387.518 112.574 C 387.489 112.596 387.452 112.606 387.406 112.606 Z  M 391.939 107.893 C 391.321 107.893 390.434 107.1 390.434 107.1 C 390.434 107.1 389.238 105.503 387.603 103.518 C 388.367 103.164 389.131 102.813 389.9 102.463 C 391.335 104.592 392.557 106.435 392.518 107.114 C 392.486 107.698 392.246 107.893 391.939 107.893 Z  M 396.93 104.748 C 396.849 104.748 396.765 104.735 396.679 104.71 C 396.396 104.299 396.226 104.039 396.226 104.039 C 396.226 104.039 395.195 102.33 393.874 100.686 C 394.808 100.276 395.743 99.871 396.683 99.467 C 397.479 101.62 398.129 103.656 397.55 104.409 C 397.368 104.645 397.158 104.748 396.93 104.748 Z " fill="rgb(207,230,222)"/><path d=" M 461.173 248.403 L 463.223 236.742 L 433.872 189.928 C 432.913 188.75 432.197 187.392 431.767 185.935 L 416.536 134.948 L 401.877 134.87 L 410.456 192.024 C 411.447 198.844 413.506 205.465 416.557 211.645 L 452.226 272.906 L 461.173 248.403 Z " fill="rgb(242,179,169)"/><path d=" M 419.37 143.65 C 419.37 143.65 416.294 136.617 415.747 130.735 C 415.2 124.855 416.159 123.355 415.721 118.329 C 415.282 113.304 416.323 105.494 415.527 105.389 C 414.73 105.283 411.843 105.183 411.423 108.82 C 411.003 112.457 410.262 116.211 410.262 116.211 L 402.958 101.244 C 402.958 101.244 400.139 95.325 397.921 96.656 C 395.66 98.013 402.766 109.272 401.906 109.909 C 400.676 110.821 396.226 104.039 396.226 104.039 C 396.226 104.039 391.718 96.562 389.475 97.85 C 387.231 99.138 396.24 111.098 396.24 111.098 C 396.24 111.098 397.314 113.341 395.71 112.97 C 394.104 112.6 387.667 102.56 385.422 103.313 C 383.178 104.066 389.611 111.967 389.611 111.967 C 389.611 111.967 393.898 116.022 391.975 116.775 C 391.044 117.139 389.061 115.68 387.115 114.221 C 385.036 112.663 383 111.104 382.339 111.769 C 381.058 113.055 386.416 118.226 388.666 119.908 C 390.915 121.59 393.596 124.579 394.991 127.357 C 396.388 130.135 398.337 133.777 401.754 134.625 L 404.862 144.653 L 419.37 143.65 Z " fill="rgb(242,179,169)"/><path d=" M 501.242 252.766 C 501.242 252.766 492.374 226.697 477.415 226.09 C 459.873 225.378 437.116 189.928 437.116 189.928 L 420.898 134.948 L 398.286 140.218 C 398.286 140.218 403.138 192.347 408.704 207.949 C 416.458 229.68 456.518 280.285 456.518 280.285 L 501.242 252.766 Z " fill="rgb(253,247,227)"/><path d=" M 500.432 167.516 L 501.242 154.255 C 501.242 154.255 479.628 153.792 472.973 175.214 C 466.19 197.045 471.022 225.666 471.022 225.666 L 490.064 231.648 L 490.523 172.586 L 500.432 167.516 Z " fill="rgb(55,52,53)"/><path d=" M 498.152 167.516 L 500.413 154.255 C 500.413 154.255 519.405 155.655 524.492 174.095 C 530.515 195.927 528.557 226.298 528.557 226.298 L 510.758 231.648 L 508.06 172.586 L 498.152 167.516 Z " fill="rgb(55,52,53)"/><path d=" M 476.994 224.119 L 478.261 188.346 C 479.054 196.025 481.773 203.645 485.889 209.094 L 485.889 219.658 C 485.247 219.229 484.892 218.954 484.892 218.954 L 476.994 224.119 Z " fill="rgb(42,42,42)"/><path d=" M 523.114 226.233 L 513.65 218.954 C 513.65 218.954 513.547 219.034 513.35 219.176 L 512.967 208.746 C 514.966 206.236 516.55 202.93 517.659 199.207 C 518.268 197.371 518.73 195.524 519.03 193.636 C 520.172 193.447 521.174 192.768 521.982 191.806 L 523.701 226.23 C 523.507 226.231 523.312 226.232 523.114 226.233 Z " fill="rgb(42,42,42)"/><path d=" M 535.984 251.574 L 533.935 239.913 L 562.397 204.636 C 563.357 203.457 564.96 190.563 565.391 189.106 L 580.621 138.119 L 595.28 138.041 L 586.7 195.195 C 585.71 202.015 583.651 208.636 580.601 214.816 L 544.932 276.077 L 535.984 251.574 Z " fill="rgb(242,179,169)"/><path d=" M 577.786 146.821 C 577.786 146.821 580.862 139.788 581.41 133.906 C 581.957 128.025 580.998 126.526 581.436 121.5 C 581.874 116.475 580.834 108.665 581.63 108.56 C 582.426 108.454 585.314 108.354 585.734 111.991 C 586.154 115.628 586.896 119.382 586.896 119.382 L 594.199 104.415 C 594.199 104.415 597.018 98.496 599.235 99.827 C 601.497 101.184 594.392 112.443 595.251 113.08 C 596.482 113.992 600.932 107.21 600.932 107.21 C 600.932 107.21 605.439 99.733 607.683 101.021 C 609.926 102.309 600.916 114.269 600.916 114.269 C 600.916 114.269 599.842 116.512 601.447 116.141 C 603.053 115.77 609.49 105.73 611.735 106.484 C 613.979 107.237 607.546 115.138 607.546 115.138 C 607.546 115.138 603.259 119.193 605.183 119.946 C 606.113 120.31 608.096 118.851 610.042 117.392 C 612.121 115.834 614.157 114.275 614.818 114.939 C 616.1 116.226 610.741 121.396 608.491 123.079 C 606.242 124.761 603.561 127.75 602.166 130.528 C 600.769 133.306 598.82 136.948 595.403 137.795 L 592.294 147.824 L 577.786 146.821 Z " fill="rgb(242,179,169)"/><path d=" M 589.216 130.367 C 590.037 127.277 587.23 119.873 587.23 119.873 C 588.447 121.706 591.689 125.825 591.689 125.825 L 589.216 130.367 Z " fill="rgb(239,167,156)"/><path d=" M 495.915 255.936 C 495.915 255.936 514.85 226.848 529.811 226.241 C 547.352 225.529 561.159 199.811 561.159 199.811 L 576.259 138.119 L 598.871 143.389 C 598.871 143.389 594.019 195.518 588.452 211.12 C 580.699 232.851 539.409 284.575 539.409 284.575 L 495.915 255.936 Z " fill="rgb(253,247,227)"/><path d=" M 485.889 196.652 L 485.889 223.815 C 485.889 223.815 498.352 228.088 505.624 227.332 C 512.895 226.577 513.455 222.022 513.455 222.022 L 512.218 196.652 L 485.889 196.652 Z " fill="rgb(242,179,169)"/><path d=" M 513.317 219.199 L 512.817 208.932 C 512.867 208.87 512.917 208.809 512.967 208.746 L 513.35 219.176 C 513.34 219.183 513.329 219.191 513.317 219.199 Z " fill="rgb(43,42,42)"/><path d=" M 508.765 221.888 C 494.833 220.44 486.691 210.108 486.691 210.108 C 489.568 213.571 494.148 215.391 498.895 215.391 C 500.024 215.391 501.164 215.287 502.291 215.079 C 502.271 215.135 502.251 215.191 502.231 215.247 C 502.945 215.112 503.734 214.858 504.558 214.51 C 507.282 213.641 509.852 212.119 511.956 209.909 C 512.25 209.6 512.538 209.273 512.817 208.932 L 513.317 219.199 C 512.647 219.679 511.006 220.793 508.765 221.888 Z " fill="rgb(236,148,135)"/><path d=" M 469.726 224.269 C 457.25 223.112 449.765 310.222 463.591 355.603 C 463.591 355.603 484.239 355.682 486.408 355.049 C 487.238 354.807 488.48 355.388 490.285 355.97 C 493.196 356.908 497.569 357.845 504.032 355.33 C 504.032 355.33 529.27 364.689 531.074 358.135 C 547.531 298.331 536.667 226.008 536.667 226.008 C 536.667 226.008 501.242 227.194 469.726 224.269 Z " fill="rgb(253,247,227)"/><path d=" M 476.968 224.868 C 476.633 224.843 476.298 224.818 475.964 224.793 L 476.994 224.119 L 476.968 224.868 Z " fill="rgb(54,51,48)"/><path d=" M 492.543 225.738 C 491.735 225.705 490.925 225.671 490.11 225.634 L 490.115 225.099 C 490.86 225.306 491.678 225.523 492.543 225.738 Z " fill="rgb(50,49,48)"/><path d=" M 490.11 225.634 C 485.781 225.44 481.366 225.189 476.968 224.868 L 476.994 224.119 L 484.892 218.954 C 484.892 218.954 485.247 219.229 485.889 219.658 L 485.889 223.815 C 485.889 223.815 487.596 224.401 490.115 225.099 L 490.11 225.634 Z " fill="rgb(43,43,42)"/><path d=" M 498.997 225.962 C 496.881 225.9 494.728 225.826 492.543 225.738 C 491.678 225.523 490.86 225.306 490.115 225.099 C 487.596 224.401 485.889 223.815 485.889 223.815 L 485.889 219.658 C 488.026 221.087 493.337 224.223 499.27 224.595 C 499.27 224.595 499.199 225.129 498.997 225.962 Z " fill="rgb(237,162,126)"/><path d=" M 489.129 235.712 C 489.022 235.712 488.915 235.71 488.807 235.707 C 479.857 235.427 475.178 225.307 475.178 225.307 L 475.964 224.793 C 476.298 224.818 476.633 224.843 476.968 224.868 C 481.366 225.189 485.781 225.44 490.11 225.634 C 490.925 225.671 491.735 225.705 492.543 225.738 C 494.728 225.826 496.881 225.9 498.997 225.962 C 498.794 226.801 498.459 227.943 497.929 229.15 C 497.741 229.074 497.566 229.034 497.407 229.034 C 497.319 229.034 497.236 229.046 497.158 229.071 C 496.531 229.273 496.568 230.037 496.949 231.034 C 495.438 233.491 493.001 235.712 489.129 235.712 Z " fill="rgb(248,223,166)"/><path d=" M 518.88 226.246 C 517.4 226.246 515.852 226.241 514.244 226.231 C 513.869 225.548 513.314 224.627 512.675 223.856 C 513.354 222.849 513.455 222.022 513.455 222.022 L 513.455 222.022 L 513.455 222.022 L 513.35 219.176 C 513.547 219.034 513.65 218.954 513.65 218.954 L 523.114 226.233 C 521.779 226.241 520.363 226.246 518.88 226.246 Z " fill="rgb(43,43,42)"/><path d=" M 509.839 226.189 C 508.366 226.17 506.855 226.146 505.313 226.116 C 504.61 225.261 503.845 224.466 503.12 223.983 C 505.22 223.458 507.148 222.678 508.765 221.888 C 509.814 221.997 510.895 222.055 512.009 222.055 C 512.486 222.055 512.966 222.044 513.455 222.022 C 513.455 222.022 513.354 222.849 512.675 223.856 C 511.987 223.027 511.201 222.372 510.436 222.372 C 510.209 222.372 509.983 222.43 509.763 222.559 C 509.039 222.981 509.246 224.411 509.839 226.189 Z  M 501.272 226.025 C 500.713 226.011 500.15 225.995 499.585 225.979 C 499.351 225.142 499.27 224.595 499.27 224.595 C 499.826 224.56 500.375 224.501 500.917 224.422 C 500.909 224.841 501.04 225.39 501.272 226.025 Z " fill="rgb(237,162,126)"/><path d=" M 513.455 222.022 L 513.317 219.199 C 513.329 219.191 513.34 219.183 513.35 219.176 L 513.455 222.022 Z " fill="rgb(43,42,42)"/><path d=" M 512.009 222.055 C 510.895 222.055 509.814 221.997 508.765 221.888 C 511.006 220.793 512.647 219.679 513.317 219.199 L 513.455 222.022 L 513.455 222.022 C 512.966 222.044 512.486 222.055 512.009 222.055 Z " fill="rgb(230,133,102)"/><path d=" M 511.317 234.457 C 509.718 232.67 507.971 229.934 507.971 229.934 C 507.971 229.934 506.777 227.896 505.313 226.116 C 506.855 226.146 508.366 226.17 509.839 226.189 C 510.697 228.763 512.363 232.064 513.184 234.082 C 512.587 234.241 511.965 234.369 511.317 234.457 Z  M 505.729 233.895 C 501.82 232.256 500.19 228.145 499.585 225.979 C 500.15 225.995 500.713 226.011 501.272 226.025 C 502.083 228.243 504.125 231.503 505.729 233.895 Z  M 517.19 232.381 L 514.75 227.218 C 514.75 227.218 514.562 226.81 514.244 226.231 C 515.852 226.241 517.4 226.246 518.88 226.246 C 520.363 226.246 521.779 226.241 523.114 226.233 L 523.364 226.426 C 523.364 226.426 521.265 229.962 517.19 232.381 Z " fill="rgb(248,223,166)"/><path d=" M 574.062 443.086 C 573.968 442.8 573.874 442.943 573.78 443.085 C 573.686 443.227 573.593 443.369 573.5 443.086 C 565.833 419.72 560.157 379.973 549.722 358.306 C 539.287 336.639 525.267 334.713 525.267 334.713 L 487.173 341.369 L 467.853 336.917 L 464.61 333.598 C 464.61 333.598 452.608 340.299 441.029 361.377 C 429.45 382.455 422.891 420.163 413.984 443.086 C 413.84 443.457 413.695 443.271 413.549 443.085 C 413.402 442.898 413.254 442.712 413.105 443.086 L 574.062 443.086 Z " fill="rgb(40,116,97)"/><path d=" M 510.536 443.244 C 510.325 443.244 510.169 443.19 510.063 443.086 L 511.317 443.086 L 511.317 443.086 C 511.002 443.193 510.743 443.244 510.536 443.244 Z " fill="rgb(96,163,149)"/><path d=" M 573.618 443.249 C 573.578 443.249 573.539 443.206 573.5 443.086 L 573.779 443.086 C 573.725 443.168 573.671 443.249 573.618 443.249 Z  M 565.37 443.086 L 523.364 443.086 C 523.364 443.086 529.494 436.911 529.819 433.555 C 529.865 433.087 529.696 432.882 529.349 432.882 C 527.209 432.882 518.296 440.728 511.317 443.086 L 510.063 443.086 C 507.605 440.661 532.279 411.073 532.138 396.703 C 532.094 392.274 531.457 390.581 530.453 390.581 C 527.923 390.581 523.069 401.352 519.56 406.184 C 519.299 406.545 519.1 406.715 518.956 406.715 C 516.413 406.715 531.344 353.369 531.444 353.01 C 529.903 349.72 528.265 346.869 526.603 344.404 C 527.576 344.19 528.489 343.972 529.342 343.755 C 532.988 349.272 537.438 352.702 542.867 352.704 C 543.287 352.704 543.71 352.683 544.142 352.642 L 544.142 352.642 L 544.142 352.642 C 544.883 352.585 545.645 352.453 546.425 352.256 C 547.549 354.078 548.654 356.089 549.722 358.306 C 556.416 372.206 561.152 393.547 565.711 413.23 L 565.37 443.086 Z " fill="rgb(40,80,65)"/><path d=" M 484.892 217.835 C 484.892 217.835 491.556 222.992 499.271 223.477 C 499.271 223.477 497.756 234.868 488.807 234.588 C 479.857 234.309 475.178 224.188 475.178 224.188 L 484.892 217.835 Z " fill="rgb(50,80,136)"/><path d=" M 513.65 217.835 C 513.65 217.835 506.985 222.992 499.271 223.477 C 499.271 223.477 500.785 233.75 509.734 233.47 C 518.685 233.19 523.364 225.307 523.364 225.307 L 513.65 217.835 Z " fill="rgb(50,80,136)"/><path d=" M 478.071 181.659 C 478.704 168.972 485.233 157.861 500.186 158.401 C 523.177 159.232 523.691 197.584 511.956 209.909 C 504.841 217.382 492.406 216.987 486.691 210.108 C 480.874 203.107 477.563 191.872 478.071 181.659 Z " fill="rgb(242,179,169)"/><path d=" M 502.231 215.247 C 502.251 215.191 502.271 215.135 502.291 215.079 C 503.054 214.938 503.812 214.749 504.558 214.51 C 503.734 214.858 502.945 215.112 502.231 215.247 Z " fill="rgb(232,137,124)"/><path d=" M 517.659 199.207 C 518.186 197.436 518.605 195.572 518.911 193.654 C 518.951 193.648 518.99 193.642 519.03 193.636 C 518.73 195.524 518.268 197.371 517.659 199.207 Z " fill="rgb(42,42,42)"/><path d=" M 502.291 215.079 C 504.667 208.35 500.054 202.116 502.623 199.487 C 505.827 196.208 501.758 196.747 500.314 185.812 C 500.161 184.65 500.133 183.209 500.179 181.686 L 510.944 181.615 L 512.501 169.326 L 513.965 181.677 L 517.197 181.744 C 517.465 179.646 517.542 177.74 517.47 176.011 C 517.653 176.703 517.834 177.402 518.016 178.103 C 518.228 178.914 518.415 179.711 518.578 180.494 C 517.342 181.473 516.614 183.203 516.614 183.203 L 514.945 192.31 L 514.945 192.31 C 516.169 193.277 517.326 193.689 518.38 193.689 C 518.56 193.689 518.737 193.677 518.911 193.654 C 518.605 195.572 518.186 197.436 517.659 199.207 C 516.869 201.584 515.83 203.941 514.569 206.345 C 513.059 209.225 508.416 212.885 504.558 214.51 C 503.812 214.749 503.054 214.938 502.291 215.079 Z " fill="rgb(239,167,156)"/><path d=" M 508.337 160.105 C 508.337 160.105 511.628 153.137 494.55 157.264 C 477.472 161.391 476.727 181.842 476.727 181.842 L 510.944 181.615 L 512.501 169.326 L 513.965 181.677 L 517.197 181.744 C 519.438 164.201 508.337 160.105 508.337 160.105 Z " fill="rgb(55,52,53)"/><path d=" M 482.343 183.203 C 482.343 183.203 479.767 177.075 476.07 181.358 C 472.375 185.641 477.129 197.748 484.012 192.31" fill="rgb(242,179,169)"/><path d=" M 516.614 183.203 C 516.614 183.203 519.19 177.075 522.887 181.358 C 526.583 185.641 521.828 197.748 514.945 192.31 L 516.614 183.203 Z " fill="rgb(242,179,169)"/><path d=" M 518.38 193.689 C 517.326 193.689 516.169 193.277 514.945 192.31 L 516.614 183.203 C 516.614 183.203 518.029 179.838 520.266 179.838 C 521.047 179.838 521.929 180.249 522.887 181.358 C 523.774 182.386 524.174 183.866 524.175 185.444 C 524.177 189.273 521.829 193.689 518.38 193.689 Z " fill="rgb(239,167,156)"/><path d=" M 455.917 324.742 C 455.917 324.742 502.548 334.251 538.346 324.742 L 538.346 340.737 C 538.346 340.737 510.191 354.667 455.917 340.737 L 455.917 324.742 Z " fill="rgb(40,116,97)"/><path d=" M 561.278 212.128 C 562.523 210.228 561.159 199.252 561.159 199.252 L 557.335 205.5 C 557.335 205.5 560.032 214.029 561.278 212.128 Z " fill="rgb(248,228,186)"/><path d=" M 455.619 279.622 L 451.236 273.476 C 453.244 276.098 454.789 278.082 455.676 279.214 L 455.619 279.622 Z " fill="rgb(202,206,163)"/><path d=" M 455.676 279.214 C 454.789 278.082 453.244 276.098 451.236 273.476 L 429.427 242.898 C 430.056 242.281 430.675 241.661 431.282 241.042 L 457.37 264.837 C 457.222 266.503 457.087 268.192 456.965 269.914 L 455.676 279.214 Z " fill="rgb(248,223,166)"/><path d=" M 456.965 269.914 C 457.087 268.192 457.222 266.503 457.37 264.837 L 457.636 265.079 L 456.965 269.914 Z " fill="rgb(248,223,166)"/><path d=" M 540.177 283.114 C 540.198 279.67 540.175 276.318 540.117 273.07 L 540.505 268.435 L 553.33 257.251 C 553.522 260.223 554.095 262.403 554.675 264.229 L 540.177 283.114 Z " fill="rgb(248,223,166)"/><path d=" M 539.981 283.369 L 539.356 282.151 L 540.117 273.07 C 540.175 276.318 540.198 279.67 540.177 283.114 L 539.981 283.369 Z " fill="rgb(248,223,166)"/><path d=" M 499.868 263.171 C 497.943 263.171 496.245 262.18 495.666 260.533 C 494.895 258.339 496.405 255.811 499.038 254.888 C 499.694 254.657 500.358 254.548 500.997 254.548 C 502.922 254.548 504.621 255.539 505.199 257.186 C 505.969 259.38 504.459 261.907 501.827 262.831 C 501.171 263.061 500.507 263.171 499.868 263.171 Z " fill="rgb(248,223,166)"/><path d=" M 500.966 281.495 C 500.366 281.495 499.744 281.4 499.127 281.198 C 496.475 280.333 494.909 277.84 495.63 275.63 C 496.183 273.933 497.922 272.897 499.9 272.897 C 500.5 272.897 501.121 272.992 501.738 273.193 C 504.391 274.059 505.956 276.552 505.235 278.763 C 504.682 280.458 502.943 281.495 500.966 281.495 Z " fill="rgb(248,223,166)"/><path d=" M 499.723 299.927 C 498.087 299.927 496.613 299.174 495.924 297.811 C 494.875 295.735 496.044 293.033 498.534 291.775 C 499.388 291.343 500.288 291.138 501.142 291.138 C 502.779 291.138 504.252 291.891 504.941 293.254 C 505.99 295.329 504.821 298.031 502.331 299.29 C 501.477 299.722 500.578 299.927 499.723 299.927 Z " fill="rgb(248,223,166)"/><path d=" M 500.966 318.168 C 500.366 318.168 499.744 318.072 499.127 317.871 C 496.475 317.006 494.909 314.513 495.63 312.303 C 496.183 310.607 497.922 309.57 499.899 309.57 C 500.499 309.57 501.121 309.666 501.738 309.867 C 504.391 310.732 505.956 313.226 505.235 315.435 C 504.682 317.131 502.943 318.168 500.966 318.168 Z " fill="rgb(248,223,166)"/><path d=" M 504.08 256.067 C 504.851 258.261 503.341 260.789 500.708 261.713 C 498.076 262.637 495.317 261.607 494.547 259.414 C 493.777 257.221 495.287 254.692 497.919 253.769 C 500.552 252.845 503.311 253.874 504.08 256.067 Z " fill="rgb(50,80,136)"/><path d=" M 504.116 277.644 C 503.396 279.854 500.661 280.944 498.009 280.079 C 495.356 279.215 493.79 276.721 494.511 274.511 C 495.232 272.301 497.967 271.21 500.619 272.075 C 503.271 272.94 504.838 275.434 504.116 277.644 Z " fill="rgb(50,80,136)"/><path d=" M 503.822 292.136 C 504.871 294.211 503.702 296.913 501.212 298.171 C 498.723 299.43 495.854 298.768 494.805 296.692 C 493.757 294.617 494.925 291.915 497.415 290.656 C 499.905 289.398 502.774 290.061 503.822 292.136 Z " fill="rgb(50,80,136)"/><path d=" M 504.116 314.317 C 503.396 316.527 500.661 317.618 498.009 316.753 C 495.356 315.888 493.79 313.395 494.511 311.184 C 495.232 308.974 497.967 307.883 500.619 308.748 C 503.271 309.613 504.838 312.106 504.116 314.317 Z " fill="rgb(50,80,136)"/><path d=" M 501.409 346.928 C 489.197 346.928 474.011 345.381 455.917 340.737 L 455.917 324.742 C 455.917 324.742 476.644 328.968 501.065 328.968 C 507.952 328.968 515.129 328.633 522.223 327.771 C 524.166 333.935 526.512 339.473 529.342 343.755 C 528.489 343.972 527.576 344.19 526.603 344.404 C 520.527 345.739 512.11 346.928 501.409 346.928 Z " fill="rgb(40,80,65)"/><path d=" M 183.752 116.547 C 183.752 116.547 184.739 107.704 187.598 101.483 C 190.456 95.262 192.288 94.313 194.759 89.014 C 197.231 83.714 202.801 76.478 202.062 75.91 C 201.324 75.343 198.483 73.569 195.955 76.976 C 193.425 80.385 190.506 83.724 190.506 83.724 L 191.846 64.467 C 191.846 64.467 192.445 56.892 189.448 56.943 C 186.392 56.995 187.002 72.416 185.77 72.557 C 184.006 72.759 183.468 63.372 183.468 63.372 C 183.468 63.372 183.275 53.254 180.277 53.248 C 177.278 53.241 179.393 70.467 179.393 70.467 C 179.393 70.467 179.172 73.342 177.775 72.039 C 176.379 70.737 175.733 56.928 173.043 56.384 C 170.353 55.84 172.234 67.499 172.234 67.499 C 172.234 67.499 174.188 74.054 171.821 73.695 C 169.454 73.336 167.079 62.537 165.048 63.085 C 163.017 63.635 165.4 71.931 166.684 74.922 C 167.968 77.915 168.927 82.468 168.719 86.066 C 168.511 89.663 168.357 94.449 171.296 97.28 L 168.607 109.148 L 183.752 116.547 Z " fill="rgb(242,179,169)"/><path d=" M 181.812 93.407 L 181.961 87.415 C 181.961 87.415 187.602 85.157 189.885 84.023 C 189.885 84.023 182.778 89.83 181.812 93.407 Z " fill="rgb(239,167,156)"/><path d=" M 212.229 351.081 L 203.326 355.794 C 203.326 355.794 198.09 406.43 205.421 443.086 L 247.068 443.086 L 253.074 394.806 L 260.405 443.086 L 304.392 443.086 C 304.392 443.086 315.389 376.74 294.443 342.179 C 273.497 307.617 212.229 351.081 212.229 351.081 Z " fill="rgb(50,80,136)"/><path d=" M 305.682 378.081 C 305.505 376.754 305.311 375.43 305.098 374.111 L 305.524 374.17 L 305.682 378.081 Z " fill="rgb(101,141,166)"/><path d=" M 293.586 409.63 C 293.586 409.63 289.869 397.654 287.824 392.656 C 287.007 390.657 286.77 387.096 286.781 383.541 C 286.805 375.587 285.675 367.671 283.24 360.1 C 286.426 361.931 289.885 363.575 292.514 363.928 L 292.514 372.36 L 305.098 374.111 C 305.311 375.43 305.505 376.754 305.682 378.081 L 306.453 397.2 L 293.586 409.63 Z " fill="rgb(53,62,104)"/><path d=" M 190.369 101.899 L 192.501 178.263 C 192.501 178.263 205.26 200.636 218.845 206.765 C 232.489 212.919 208.172 287.771 197.707 275.971 C 188.326 265.393 167.625 216.744 160.212 198.143 C 157.877 192.283 156.997 185.951 157.642 179.676 L 166.903 99.979 L 190.369 101.899 Z " fill="rgb(253,247,227)"/><path d=" M 309.946 372.023 L 311.146 391.292 C 311.263 393.183 310.795 395.063 309.805 396.678 L 304.174 405.861 C 303.5 406.961 302.57 407.88 301.464 408.545 C 299.631 409.648 296.773 411.3 295.226 411.852 C 294.001 412.287 293.643 410.997 293.586 409.63 C 293.52 408.054 294.207 406.539 295.396 405.503 L 298.173 403.083 C 298.636 402.68 298.952 402.134 299.072 401.532 L 301.132 391.172 C 301.238 390.638 301.011 390.093 300.558 389.792 L 299.259 388.932 C 298.444 388.392 297.344 388.877 297.193 389.843 L 295.886 398.194 C 295.687 399.468 294.094 399.933 293.242 398.965 L 292.191 397.771 C 291.679 397.19 291.328 396.484 291.174 395.726 L 289.347 386.695 C 289.019 385.072 289.271 383.387 290.06 381.931 L 295.866 371.216 L 309.946 372.023 Z " fill="rgb(242,179,169)"/><path d=" M 272.913 159.969 C 272.913 159.969 277.165 173.393 274.274 181.13 L 273.342 179.639 C 273.342 179.639 273.809 185.978 270.825 188.775 L 269.986 187.003 C 269.986 187.003 268.063 193.125 266.833 195.021 L 266.257 193.716 L 263.886 200.227 L 253.672 196.894 L 251.257 187.671 C 251.257 187.671 256.375 172.253 257.028 171.751 C 257.681 171.248 272.913 159.969 272.913 159.969 Z " fill="rgb(55,52,53)"/><path d=" M 266.043 210.708 C 266.043 210.708 273.775 207.567 286.421 209.736 C 299.066 211.906 306.249 221.795 316.687 257.505 C 327.125 293.215 326.576 311.345 326.576 311.345 L 316.647 375.717 L 292.514 372.36 L 292.514 304.752 L 266.043 210.708 Z " fill="rgb(253,247,227)"/><path d=" M 225.099 159.969 C 225.099 159.969 220.847 173.393 223.737 181.13 L 224.669 179.639 C 224.669 179.639 224.204 185.978 227.186 188.775 L 228.025 187.003 C 228.025 187.003 229.949 193.125 231.179 195.021 L 231.754 193.716 L 234.126 200.227 L 244.34 196.894 L 246.754 187.671 C 246.754 187.671 241.636 172.253 240.984 171.751 C 240.331 171.248 225.099 159.969 225.099 159.969 Z " fill="rgb(55,52,53)"/><path d=" M 237.608 187.941 L 235.814 186.354 L 235.506 197.731 C 235.443 200.072 233.963 202.139 231.768 202.953 C 228.056 204.33 227.612 209.415 231.042 211.392 C 235.889 214.185 242.463 216.921 249.006 216.358 C 255.981 215.759 262.716 213.333 267.382 211.26 C 269.956 210.117 269.926 206.456 267.342 205.337 C 265.293 204.452 263.945 202.458 263.886 200.227 L 263.473 184.734 L 237.608 187.941 Z " fill="rgb(242,179,169)"/><path d=" M 235.503 208.499 C 235.503 208.499 282.95 199.244 292.561 222.585 C 302.172 245.927 296.018 311.478 296.018 311.478 L 299.117 359.534 C 299.117 359.534 288.819 350.609 267.31 359.534 C 245.801 368.459 206.126 388.421 198.449 364.34 C 189.715 336.942 197.347 291.245 198.449 231.155 C 198.648 220.299 198.431 200.948 235.503 208.499 Z " fill="rgb(253,247,227)"/><path d=" M 254.952 217.661 C 245.234 217.661 236.316 215.476 231.062 213.865 C 231.63 213.93 232.122 213.986 232.489 214.038 C 237.512 214.722 242.595 215.05 247.681 215.05 C 253.43 215.05 259.182 214.631 264.852 213.835 C 266.265 213.636 268.903 213.242 271.148 212.708 C 271.007 212.919 270.86 213.12 270.708 213.312 C 269.154 215.277 266.846 216.495 264.376 216.91 C 261.214 217.44 258.044 217.661 254.952 217.661 Z " fill="rgb(248,223,166)"/><path d=" M 230.343 197.959 C 233.366 196.752 235.363 197.487 238.65 198.221 C 242.452 199.071 247.98 199.921 258.817 197.767 C 263.058 196.923 269.712 195.887 272.096 200.635 C 273.266 202.966 272.499 208.941 274.488 210.114 C 277.564 211.928 268.056 213.385 264.852 213.835 C 254.166 215.336 243.189 215.496 232.489 214.038 C 229.87 213.668 220.914 213.082 222.731 210.763 C 228.708 203.135 224.66 200.227 230.343 197.959 Z " fill="rgb(253,247,227)"/><path d=" M 238.954 198.288 C 238.851 198.266 238.75 198.244 238.65 198.221 C 237.827 198.038 237.085 197.854 236.387 197.7 C 235.848 196.642 235.6 195.893 235.564 195.781 C 236.569 196.76 237.711 197.598 238.954 198.288 Z " fill="rgb(237,162,126)"/><path d=" M 263.736 194.619 L 263.707 193.5 C 263.974 193.166 264.208 192.831 264.406 192.496 C 264.623 192.202 264.837 191.898 265.046 191.588 C 264.785 192.263 264.346 193.342 263.736 194.619 Z " fill="rgb(54,51,48)"/><path d=" M 258.673 197.795 C 259.793 197.121 260.859 196.324 261.849 195.398 C 261.917 195.335 261.984 195.272 262.051 195.207 C 262.683 194.651 263.243 194.078 263.707 193.5 L 263.736 194.619 C 263.358 195.414 262.913 196.285 262.406 197.185 C 261.127 197.326 259.894 197.552 258.817 197.767 C 258.769 197.776 258.721 197.786 258.673 197.795 Z " fill="rgb(237,162,126)"/><path d=" M 250.676 206.69 C 250.628 206.69 250.58 206.69 250.531 206.689 C 242.027 206.536 237.964 200.796 236.387 197.7 C 237.085 197.854 237.827 198.038 238.65 198.221 C 238.75 198.244 238.851 198.266 238.954 198.288 C 241.72 199.826 244.979 200.632 248.308 200.632 C 249.159 200.632 250.015 200.579 250.868 200.472 C 250.843 200.532 250.817 200.592 250.791 200.653 C 251.843 200.518 253.033 200.203 254.265 199.75 C 255.789 199.287 257.274 198.638 258.673 197.795 C 258.721 197.786 258.769 197.776 258.817 197.767 C 259.894 197.552 261.127 197.326 262.406 197.185 C 259.918 201.598 255.913 206.69 250.676 206.69 Z " fill="rgb(248,223,166)"/><path d=" M 226.339 162.095 C 227.853 148.16 235.763 136.34 252.2 137.897 C 277.474 140.293 275.571 182.577 261.849 195.398 C 253.529 203.173 239.856 201.937 234.002 193.991 C 228.046 185.904 225.121 173.314 226.339 162.095 Z " fill="rgb(242,179,169)"/><path d=" M 250.791 200.653 C 250.817 200.592 250.843 200.532 250.868 200.472 C 252.011 200.329 253.149 200.09 254.265 199.75 C 253.033 200.203 251.843 200.518 250.791 200.653 Z " fill="rgb(244,202,149)"/><path d=" M 263.707 193.5 L 263.704 193.402 C 263.943 193.109 264.176 192.808 264.406 192.496 C 264.208 192.831 263.974 193.166 263.707 193.5 Z " fill="rgb(53,49,47)"/><path d=" M 262.051 195.207 C 262.623 194.655 263.175 194.052 263.704 193.402 L 263.707 193.5 C 263.243 194.078 262.683 194.651 262.051 195.207 Z " fill="rgb(232,146,113)"/><path d=" M 250.868 200.472 C 253.919 193.212 249.238 186.047 252.238 183.317 C 255.98 179.911 251.461 180.243 250.576 168.103 C 250.178 162.641 252.572 151.814 252.572 151.814 L 258.982 148.87 C 259.784 151.721 261.561 155.403 265.486 158.359 C 267.232 159.674 268.51 161.821 269.429 164.014 C 268.515 165.009 268.066 166.168 268.066 166.168 L 268.066 166.168 L 268.066 166.168 L 269.34 177.075 C 269.787 177.075 270.209 177.044 270.609 176.985 C 269.494 182.347 267.304 187.351 264.475 192.375 C 264.453 192.416 264.43 192.456 264.406 192.496 C 264.176 192.808 263.943 193.109 263.704 193.402 C 263.175 194.052 262.623 194.655 262.051 195.207 C 259.923 197.079 256.99 198.75 254.265 199.75 C 253.149 200.09 252.011 200.329 250.868 200.472 Z " fill="rgb(238,163,152)"/><path d=" M 266.833 150.134 C 266.833 150.134 258.879 154.846 248.251 154.739 C 237.625 154.631 233.237 151.196 230.312 148.451 C 227.387 145.706 224.95 139.899 225.145 135.49 C 225.339 131.082 225.772 134.415 228.481 136.673 C 231.189 138.931 230.897 136.004 229.435 133.328 C 227.972 130.651 227.972 127.318 229.727 128.393 C 231.482 129.469 234.895 133.232 237.332 133.125 C 239.77 133.017 235.284 131.082 236.162 129.791 C 237.04 128.501 238.989 132.91 245.814 133.125 C 252.639 133.34 261.219 133.125 265.606 137.104 C 269.994 141.082 266.833 150.134 266.833 150.134 Z " fill="rgb(55,52,53)"/><path d=" M 258.333 144.324 C 258.333 144.324 257.947 152.681 265.486 158.359 C 270.255 161.951 271.534 171.751 271.534 171.751 L 272.224 170.68 C 272.224 170.68 274.834 169.18 274.834 163.609 C 274.834 158.038 273.995 154.716 273.995 154.716 C 273.995 154.716 275.58 159.538 275.58 158.038 C 275.58 156.538 276.326 155.363 274.368 151.933 C 272.41 148.503 272.969 148.597 272.969 148.597 L 275.3 150.967 C 275.3 150.967 273.527 146.326 271.794 143.467 C 269.296 139.348 265.416 137.442 260.941 137.764 C 256.466 138.085 258.333 144.324 258.333 144.324 Z " fill="rgb(55,52,53)"/><path d=" M 238.482 144.458 C 238.482 144.458 237.56 152.902 231.33 158.776 C 224.664 165.06 226.074 173.204 226.074 173.204 L 224.592 171.346 C 224.592 171.346 221.982 169.815 221.982 164.132 C 221.982 158.448 222.821 155.06 222.821 155.06 C 222.821 155.06 221.236 159.979 221.236 158.448 C 221.236 156.918 220.49 155.719 222.448 152.22 C 224.406 148.72 223.847 148.816 223.847 148.816 L 221.516 151.234 C 221.516 151.234 223.289 146.5 225.022 143.583 C 227.519 139.38 231.4 137.437 235.875 137.764 C 240.349 138.092 238.482 144.458 238.482 144.458 Z " fill="rgb(55,52,53)"/><path d=" M 229.982 166.168 C 229.982 166.168 228.404 162.088 225.134 162.672 C 220.438 163.511 219.36 177.075 228.708 177.075" fill="rgb(242,179,169)"/><path d=" M 268.066 166.168 C 268.066 166.168 269.645 162.088 272.915 162.672 C 277.611 163.511 278.688 177.075 269.34 177.075 L 268.066 166.168 Z " fill="rgb(242,179,169)"/><path d=" M 269.34 177.075 L 268.066 166.168 C 268.066 166.168 269.441 162.615 272.282 162.615 C 272.485 162.615 272.696 162.633 272.915 162.672 C 275.047 163.053 276.434 166.058 276.436 169.225 C 276.44 173.033 274.443 177.075 269.34 177.075 Z " fill="rgb(238,163,152)"/><path d=" M 195.61 183.24 C 193.969 180.758 192.902 178.951 192.594 178.422 L 192.656 178.135 L 195.831 182.861 L 195.61 183.24 Z " fill="rgb(202,206,163)"/><path d=" M 189.161 194.298 L 192.594 178.422 C 192.902 178.951 193.969 180.758 195.61 183.24 L 189.161 194.298 Z " fill="rgb(248,223,166)"/><path d=" M 171.066 224.056 L 200.252 258.201 L 197.707 275.971 C 197.707 275.971 176.422 243.459 171.066 224.056 Z " fill="rgb(248,228,186)"/><path d=" M 292.694 357.106 L 296.312 304.971 L 285.392 248.766 L 290.276 304.752 L 281.829 355.729 L 292.694 357.106 Z " fill="rgb(248,228,186)"/><path d=" M 247.068 443.086 L 229.515 443.086 L 237.998 425.42 C 237.998 425.42 234.628 425.42 231.341 425.42 C 228.054 425.42 238.646 420.673 242.571 393.997 C 243.148 390.075 244.855 378.307 244.855 378.307 L 253.074 394.806 L 247.068 443.086 Z " fill="rgb(53,62,104)"/><path d=" M 334.308 218.078 L 327.658 215.338 C 327.658 215.338 330.796 199.098 354.848 193.904 C 382.872 187.852 389.745 192.26 398.8 203.463 L 334.308 218.078 Z " fill="rgb(247,156,52)"/><path d=" M 353.938 190.489 L 352.008 189.071 L 352.735 200.43 C 352.885 202.767 351.599 204.959 349.486 205.97 L 341.447 209.814 C 341.447 209.814 355.287 220.001 367.871 217.754 C 380.454 215.507 391.69 207.267 391.69 207.267 L 385.13 205.113 C 383.01 204.417 381.485 202.554 381.224 200.337 L 379.406 184.946 L 353.938 190.489 Z " fill="rgb(242,179,169)"/><path d=" M 380.302 191.488 C 380.261 191.483 380.218 191.477 380.177 191.472 L 380.103 190.851 C 380.115 190.823 380.126 190.795 380.137 190.767 C 380.168 190.762 380.2 190.756 380.232 190.751 C 380.255 191.002 380.278 191.247 380.302 191.488 Z " fill="rgb(199,181,168)"/><path d=" M 382.434 203.239 C 382.429 203.232 382.423 203.225 382.418 203.218 C 382.424 203.224 382.43 203.23 382.437 203.236 C 382.436 203.236 382.436 203.236 382.436 203.236 C 382.436 203.236 382.435 203.237 382.434 203.239 Z  M 381.896 202.432 C 381.545 201.795 381.312 201.086 381.224 200.337 L 381.181 199.976 C 381.349 200.871 381.581 201.765 381.896 202.432 Z  M 380.905 196.568 C 380.857 196.511 380.808 196.454 380.759 196.398 C 380.759 196.398 380.759 196.4 380.759 196.404 L 380.177 191.472 C 380.218 191.477 380.261 191.483 380.302 191.488 C 380.497 193.492 380.702 195.168 380.905 196.568 Z " fill="rgb(239,125,55)"/><path d=" M 370.709 205.519 C 370.443 205.519 370.169 205.517 369.892 205.514 C 359.758 205.377 352.478 196.408 352.478 196.408 L 352.551 196.113 C 355.477 198.695 359.474 200.026 363.599 200.026 C 364.977 200.026 366.369 199.877 367.739 199.578 C 367.721 199.636 367.702 199.695 367.682 199.753 C 371.868 198.826 378.305 195.249 379.858 191.455 C 379.941 191.254 380.022 191.053 380.103 190.851 L 380.177 191.472 L 380.759 196.404 C 380.765 196.52 380.856 198.25 381.181 199.976 L 381.224 200.337 C 381.312 201.086 381.545 201.795 381.896 202.432 C 382.049 202.757 382.223 203.028 382.418 203.218 C 382.423 203.225 382.429 203.232 382.434 203.239 C 382.348 203.322 379.978 205.519 370.709 205.519 Z " fill="rgb(234,141,129)"/><path d=" M 366.944 140.747 C 366.944 140.747 381.471 132.278 385.143 139 C 388.814 145.723 385.623 145.991 389.097 150.016 C 391.856 153.213 392.718 157.418 390.339 162.447 C 388.517 166.301 388.842 170.852 391.068 174.486 L 391.166 174.645 C 397.242 181.572 389.346 191.057 385.051 190.666 C 376.891 189.923 374.437 193.295 374.916 195.484 C 375.394 197.672 357.269 194.073 357.269 194.073 C 357.269 194.073 349.028 196.373 345.227 196.074 C 341.425 195.774 336.206 194.476 336.107 189.284 C 336.008 184.091 341.834 181.532 337.575 178.218 C 333.316 174.903 327.022 166.256 332.135 159.193 C 338.072 150.992 348.295 147.572 348.295 147.572 L 366.944 140.747 Z " fill="rgb(55,52,53)"/><path d=" M 341.471 165.707 C 341.699 152.517 348.101 140.763 363.639 140.818 C 387.531 140.903 389.361 180.694 377.598 193.884 C 370.464 201.882 357.544 201.892 351.379 194.945 C 345.105 187.875 341.287 176.325 341.471 165.707 Z " fill="rgb(242,179,169)"/><path d=" M 380.103 190.851 L 380.094 190.774 C 380.109 190.771 380.123 190.769 380.137 190.767 C 380.126 190.795 380.115 190.823 380.103 190.851 Z " fill="rgb(198,168,154)"/><path d=" M 367.682 199.753 C 367.702 199.695 367.721 199.636 367.739 199.578 C 371.399 198.777 374.91 196.897 377.598 193.884 C 378.402 192.981 379.144 191.954 379.819 190.823 C 379.91 190.806 380.001 190.79 380.094 190.774 L 380.103 190.851 C 380.022 191.053 379.941 191.254 379.858 191.455 C 378.305 195.249 371.868 198.826 367.682 199.753 Z " fill="rgb(231,132,117)"/><path d=" M 379.819 190.823 C 380.188 190.205 380.537 189.556 380.866 188.88 C 380.63 189.514 380.387 190.143 380.137 190.767 C 380.123 190.769 380.109 190.771 380.094 190.774 C 380.001 190.79 379.91 190.806 379.819 190.823 Z " fill="rgb(54,51,51)"/><path d=" M 367.739 199.578 C 369.979 192.512 364.979 186.198 367.557 183.382 C 370.773 179.87 366.566 180.568 364.699 169.266 C 364.01 165.095 364.773 157.382 365.069 154.742 C 365.438 155.185 365.909 155.531 366.509 155.73 C 367.219 155.965 367.927 156.064 368.622 156.064 C 370.466 156.064 372.225 155.367 373.721 154.671 C 375.217 153.974 376.451 153.277 377.247 153.277 C 377.955 153.277 378.318 153.827 378.212 155.415 C 377.986 158.816 378.596 161.829 382.388 161.829 C 382.499 161.829 382.613 161.826 382.729 161.821 C 382.765 161.82 382.801 161.819 382.836 161.819 C 382.941 161.819 383.042 161.826 383.14 161.84 C 383.142 161.848 383.144 161.857 383.146 161.865 C 382.154 163.017 381.896 164.929 381.896 164.929 L 381.896 164.929 L 381.896 164.929 L 382.591 173.372 C 383.199 173.633 383.766 173.792 384.292 173.862 C 383.966 179.143 382.625 184.154 380.866 188.88 C 380.537 189.556 380.188 190.205 379.819 190.823 C 379.144 191.954 378.402 192.981 377.598 193.884 C 374.91 196.897 371.399 198.777 367.739 199.578 Z " fill="rgb(239,165,154)"/><path d=" M 385.343 353.778 L 385.343 405.911 L 374.423 443.086 L 338.334 443.086 L 335.542 361.592 L 339.899 333.405 L 365.129 331.391 L 380.442 340.196 L 385.343 353.778 Z " fill="rgb(109,130,164)"/><path d=" M 367.034 443.086 L 338.334 443.086 L 338.205 439.315 L 336.042 376.162 C 342.177 377.511 350.342 377.775 355.791 377.775 C 359.291 377.775 361.67 377.666 361.67 377.666 C 361.67 377.666 359.764 357.832 358.54 342.381 C 361.846 342.839 365.496 343.124 369.458 343.124 C 372.053 343.124 374.783 343.002 377.638 342.725 L 383.08 413.614 L 382.872 414.321 L 379.172 364.063 L 367.034 443.086 Z " fill="rgb(104,125,159)"/><path d=" M 378.327 140.529 C 378.327 140.529 374.431 156.187 368.632 155.898 C 362.833 155.609 360.207 154.076 358.447 156.1 C 356.688 158.124 357.583 163.185 352.999 163.73 C 348.415 164.275 345.817 161.655 344.057 164.922 C 342.296 168.188 335.386 172.488 333.71 168.439 C 332.035 164.389 333.538 172.451 333.538 172.451 C 333.538 172.451 326.638 164.234 332.502 157.488 C 336.864 152.47 334.187 151.562 334.495 146.761 C 334.802 141.961 338.584 138.292 345.845 138.154 C 353.107 138.015 354.548 129.796 361.38 131.863 C 368.212 133.93 366.898 136.098 371.676 135.207 C 376.453 134.316 382.107 134.264 385.143 139 C 388.178 143.737 378.327 140.529 378.327 140.529 Z " fill="rgb(55,52,53)"/><path d=" M 418.178 317.226 C 418.178 317.226 428.457 338.798 429.903 369.358 C 431.35 399.919 427.341 443.086 427.341 443.086 L 385.343 443.086 L 376.749 331.15 L 376.674 331.391 L 418.178 317.226 Z " fill="rgb(109,130,164)"/><path d=" M 417.007 140.627 C 417.007 140.627 410.691 135.359 404.805 133.038 C 398.918 130.717 397.089 131.256 392.05 129.302 C 387.011 127.349 378.665 126.085 378.795 125.234 C 378.925 124.384 379.684 121.382 383.552 122.038 C 387.419 122.693 391.502 123.053 391.502 123.053 L 378.289 111.064 C 378.289 111.064 373.042 106.394 375.074 104.512 C 376.163 103.502 379.293 105.973 382.15 108.443 C 384.728 110.673 387.085 112.903 387.518 112.574 C 388.823 111.58 383.177 104.975 383.177 104.975 C 383.177 104.975 376.832 98.102 378.828 96.179 C 380.823 94.256 390.434 107.1 390.434 107.1 C 390.434 107.1 392.421 108.876 392.518 107.114 C 392.617 105.352 384.214 95.727 385.659 93.643 C 387.105 91.56 393.311 100.541 393.311 100.541 C 393.311 100.541 396.2 106.163 397.55 104.409 C 398.899 102.655 393.574 93.932 395.28 92.998 C 396.986 92.066 400.704 99.124 401.762 101.941 C 402.82 104.758 405.094 108.409 407.534 110.676 C 409.974 112.942 413.139 116.037 412.988 119.805 L 422.376 126.002 L 417.007 140.627 Z " fill="rgb(242,179,169)"/><path d=" M 403.497 123.949 C 401.833 122.946 398.389 122.729 395.721 122.729 C 393.689 122.729 392.107 122.855 392.107 122.855 C 394.356 122.15 399.564 120.048 399.564 120.048 L 403.497 123.949 Z " fill="rgb(239,167,156)"/><path d=" M 345.776 167.921 C 345.776 167.921 343.67 161.119 339.282 165.299 C 334.893 169.479 338.697 182.884 346.604 177.806" fill="rgb(242,179,169)"/><path d=" M 385.7 168.157 C 385.7 168.157 385.968 161.676 382.729 161.821 C 378.633 162.005 377.98 158.916 378.212 155.415 C 378.437 152.039 376.546 153.355 373.721 154.671 C 371.661 155.63 369.104 156.589 366.509 155.73 C 362.705 154.47 364.074 147.27 364.074 147.27 L 367.866 141.977 L 380.654 141.159 L 387.521 151.204 L 385.7 168.157 Z " fill="rgb(55,52,53)"/><path d=" M 381.896 164.929 C 381.896 164.929 382.711 158.901 386.997 161.804 C 391.283 164.708 389.968 176.536 382.591 173.372 L 381.896 164.929 Z " fill="rgb(242,179,169)"/><path d=" M 384.92 173.905 C 384.717 173.905 384.508 173.891 384.292 173.862 C 383.766 173.792 383.199 173.633 382.591 173.372 L 381.896 164.929 C 381.896 164.929 382.425 161.014 384.874 161.014 C 385.464 161.014 386.165 161.241 386.997 161.804 C 388.614 162.899 389.433 165.263 389.431 167.614 C 389.429 170.772 387.945 173.905 384.92 173.905 Z " fill="rgb(239,167,156)"/><path d=" M 343.751 209.191 C 343.751 209.191 352.84 216.355 369.219 212.76 C 385.598 209.165 386.35 205.514 386.35 205.514 L 400.379 209.642 L 409.168 225.943 C 409.168 225.943 415.759 239.925 415.759 241.124 C 415.759 242.322 412.164 260.698 412.164 260.698 L 417.956 325.016 C 417.956 325.016 407.669 338.758 380.854 342.354 C 354.039 345.948 337.342 335.802 337.342 335.802 L 337.342 287.863 L 337.342 251.11 L 337.342 219.951 L 335.662 209.964 L 343.751 209.191 Z " fill="rgb(253,247,227)"/><path d=" M 278.512 353.001 L 266.032 367.73 C 264.808 369.176 264.059 370.963 263.888 372.849 L 262.913 383.577 C 262.796 384.862 262.992 386.154 263.481 387.349 C 264.291 389.329 265.594 392.361 266.505 393.729 C 267.227 394.81 268.285 393.99 269.148 392.928 C 270.143 391.704 270.498 390.079 270.164 388.537 L 269.384 384.937 C 269.254 384.337 269.327 383.711 269.591 383.156 L 274.132 373.62 C 274.366 373.128 274.874 372.826 275.417 372.856 L 276.972 372.943 C 277.949 372.997 278.541 374.044 278.084 374.909 L 274.14 382.386 C 273.538 383.525 274.538 384.85 275.799 384.584 L 277.355 384.256 C 278.113 384.096 278.815 383.739 279.393 383.223 L 286.256 377.075 C 287.489 375.971 288.294 374.468 288.532 372.83 L 290.283 360.77 L 278.512 353.001 Z " fill="rgb(242,179,169)"/><clipPath id="_clipPath_jbx4V2Q5AmfrsqVcinHHC3fJCCwcdxSw"><path d=" M 343.751 209.191 C 343.751 209.191 352.84 216.355 369.219 212.76 C 385.598 209.165 386.35 205.514 386.35 205.514 L 400.379 209.642 L 409.168 225.943 C 409.168 225.943 415.759 239.925 415.759 241.124 C 415.759 242.322 412.164 260.698 412.164 260.698 L 417.956 325.016 C 417.956 325.016 407.669 338.998 380.854 342.593 C 354.039 346.188 337.342 335.802 337.342 335.802 L 337.342 287.863 L 337.342 251.11 L 337.342 219.951 L 335.662 209.964 L 343.751 209.191 Z " fill="rgb(255,255,255)"/></clipPath><g clip-path="url(#_clipPath_jbx4V2Q5AmfrsqVcinHHC3fJCCwcdxSw)"><path d=" M 332.067 226.064 C 332.067 226.064 356.33 234.908 405.619 223.271 L 405.619 249.144 C 405.619 249.144 372.815 262.835 332.067 253.06 L 332.067 226.064 Z " fill="rgb(50,80,136)"/><path d=" M 334.464 268.772 C 334.464 268.772 358.727 277.615 408.016 265.979 L 408.016 291.852 C 408.016 291.852 375.211 305.543 334.464 295.769 L 334.464 268.772 Z " fill="rgb(50,80,136)"/><path d=" M 336.861 312.679 C 336.861 312.679 361.124 321.522 410.413 309.886 L 410.413 335.758 C 410.413 335.758 377.608 349.449 336.861 339.675 L 336.861 312.679 Z " fill="rgb(50,80,136)"/></g><path d=" M 384.452 203.458 C 384.452 203.458 382.637 205.867 384.263 219.543 C 385.89 233.221 382.34 245.23 383.781 259.241 C 385.223 273.252 379.51 287.263 386.202 304.942 C 392.896 322.623 393.098 367.658 393.098 367.658 L 395.897 373.662 C 395.897 373.662 424.253 373.329 435.262 364.322 C 435.262 364.322 436.596 348.644 433.594 336.301 C 430.591 323.958 421.918 302.608 421.251 286.763 C 420.583 270.917 422.078 249.609 422.078 249.609 L 410.575 214.874 L 416.58 196.398 C 416.58 196.398 404.228 207.462 384.452 203.458 Z " fill="rgb(247,156,52)"/><path d=" M 394.296 211.538 L 398.55 204.932 C 407.241 199.328 419.222 191.679 424.273 182.655 L 428.923 174.35 L 402.236 134.811 C 402.236 134.811 414.328 126.472 417.956 119.133 C 417.956 119.133 446.27 137.637 457.612 155.072 L 464.617 167.904 C 464.617 167.904 466.285 217.876 413.244 256.572 L 394.296 211.538 Z " fill="rgb(247,156,52)"/><path d=" M 341.447 209.814 C 341.447 209.814 346.86 215.207 349.862 227.55 C 352.864 239.892 357.201 255.238 357.535 272.251 C 357.868 289.264 357.535 317.286 357.535 325.959 C 357.535 334.633 361.67 377.666 361.67 377.666 C 361.67 377.666 332.516 379 328.179 372.328 C 328.179 372.328 331.848 339.637 332.182 330.963 C 332.516 322.29 332.516 315.951 332.849 301.607 C 333.183 287.263 327.845 270.917 328.179 260.575 C 328.512 250.234 320.506 224.214 320.506 224.214 C 320.506 224.214 329.029 208.758 341.447 209.814 Z " fill="rgb(247,156,52)"/><path d=" M 335.662 224.214 L 327.658 215.338 C 327.658 215.338 316.837 219.543 314.168 237.558 C 311.499 255.571 303.493 295.268 303.493 295.268 C 303.493 295.268 296.488 303.942 293.485 309.946 C 290.483 315.951 274.471 354.314 274.471 354.314 C 274.471 354.314 286.813 363.655 293.152 363.988 C 293.152 363.988 328.134 323.958 335.662 309.279 C 343.19 294.601 335.662 224.214 335.662 224.214 Z " fill="rgb(247,156,52)"/><path d=" M 397.936 204.029 C 398.408 203.64 398.672 203.513 398.763 203.476 L 398.8 203.463 L 398.8 203.463 C 398.8 203.463 398.699 203.638 398.515 203.953 C 398.324 203.98 398.13 204.005 397.936 204.029 Z " fill="rgb(201,143,60)"/><path d=" M 386.112 227.077 L 389.111 217.82 C 390.093 215.124 391.081 212.767 391.899 211.538 C 395.037 206.821 396.945 204.847 397.936 204.029 C 398.13 204.005 398.324 203.98 398.515 203.953 C 397.953 204.917 396.609 207.188 394.962 209.762 C 393.282 212.388 388.924 219.471 386.112 227.077 Z " fill="rgb(240,102,55)"/><path d=" M 349.145 235.73 C 343.802 228.436 339.082 224.735 336.861 222.547 C 334.463 220.186 330.56 217.65 328.703 216.497 L 328.046 215.768 L 328.578 215.639 C 332.446 216.997 336.076 219.457 339.284 222.267 L 349.145 235.73 Z " fill="rgb(240,102,55)"/><path d=" M 328.703 216.497 C 328.056 216.095 327.658 215.862 327.658 215.862 L 328.046 215.768 L 328.703 216.497 Z " fill="rgb(240,102,55)"/><path d=" M 351.282 204.63 C 347.228 219.447 350.77 230.671 352.478 238.169 C 352.478 238.169 341.447 219.504 327.658 215.338 C 327.658 215.338 354.767 191.89 351.282 204.63 Z " fill="rgb(247,156,52)"/><path d=" M 381.913 201.254 C 385.066 211.848 384.571 232.206 384.571 232.206 C 384.571 232.206 389.178 215.627 391.899 211.538 C 396.934 203.972 398.8 203.463 398.8 203.463 C 398.8 203.463 378.493 189.761 381.913 201.254 Z " fill="rgb(247,156,52)"/><path d=" M 349.412 218.078 C 349.411 218.077 349.411 218.077 349.411 218.076 C 349.411 218.07 349.411 218.063 349.411 218.057 C 349.411 218.071 349.412 218.078 349.412 218.078 Z " fill="rgb(247,153,52)"/><path d=" M 351.284 204.623 C 351.971 202.104 351.462 201.002 350.201 200.856 C 351.3 198.92 352.478 198.279 352.478 198.279 C 352.541 198.469 352.592 198.659 352.634 198.846 L 352.735 200.43 C 352.743 200.542 352.746 200.653 352.747 200.763 C 352.556 202.806 351.468 204.373 351.303 204.601 C 351.296 204.608 351.29 204.616 351.284 204.623 Z " fill="rgb(240,102,55)"/><path d=" M 351.282 204.63 L 351.282 204.63 C 351.282 204.628 351.283 204.625 351.284 204.623 C 351.29 204.616 351.296 204.608 351.303 204.601 C 351.289 204.62 351.282 204.63 351.282 204.63 L 351.282 204.63 Z  M 352.747 200.763 C 352.746 200.653 352.743 200.542 352.735 200.43 L 352.634 198.846 C 352.782 199.512 352.804 200.159 352.747 200.763 Z " fill="rgb(236,115,55)"/><path d=" M 349.411 218.076 C 347.305 208.697 348.678 203.535 350.201 200.856 C 351.462 201.002 351.971 202.104 351.284 204.623 C 351.283 204.625 351.282 204.628 351.282 204.63 L 351.282 204.63 C 349.276 207.169 349.403 217.53 349.411 218.057 C 349.411 218.063 349.411 218.07 349.411 218.076 Z " fill="rgb(240,102,55)"/><path d=" M 382.438 203.244 C 382.438 203.244 382.438 203.243 382.438 203.243 L 382.437 203.237 C 382.437 203.24 382.438 203.242 382.438 203.244 Z " fill="rgb(240,102,55)"/><path d=" M 383.28 208.163 L 382.438 203.243 C 382.438 203.243 382.438 203.244 382.438 203.244 C 382.794 204.76 383.092 206.409 383.342 208.129 C 383.321 208.14 383.3 208.151 383.28 208.163 Z " fill="rgb(236,115,55)"/><path d=" M 383.586 209.952 L 383.28 208.163 C 383.3 208.151 383.321 208.14 383.342 208.129 C 383.429 208.729 383.51 209.338 383.586 209.952 Z " fill="rgb(247,153,52)"/><path d=" M 382.436 203.236 C 382.426 203.217 381.682 201.924 380.905 196.568 C 381.224 196.948 381.509 197.352 381.763 197.774 C 381.42 198.502 381.428 199.625 381.913 201.254 C 382.1 201.883 382.274 202.545 382.436 203.236 Z " fill="rgb(240,102,55)"/><path d=" M 382.437 203.236 C 382.43 203.23 382.424 203.224 382.418 203.218 C 382.223 202.971 382.048 202.709 381.896 202.432 C 381.581 201.765 381.349 200.871 381.181 199.976 L 380.759 196.404 C 380.759 196.4 380.759 196.398 380.759 196.398 C 380.808 196.454 380.857 196.511 380.905 196.568 C 381.682 201.924 382.426 203.217 382.436 203.236 L 382.436 203.236" fill="rgb(233,83,56)"/><path d=" M 382.418 203.218 C 382.223 203.028 382.049 202.757 381.896 202.432 C 382.048 202.709 382.223 202.971 382.418 203.218 Z  M 381.181 199.976 C 380.856 198.25 380.765 196.52 380.759 196.404 L 381.181 199.976 Z " fill="rgb(228,94,56)"/><path d=" M 383.587 209.959 L 383.586 209.952 C 383.51 209.338 383.429 208.729 383.342 208.129 C 383.092 206.409 382.794 204.76 382.438 203.244 C 382.438 203.242 382.437 203.24 382.437 203.237 L 382.437 203.236 L 382.437 203.236 C 382.436 203.236 382.436 203.236 382.436 203.236 C 382.274 202.545 382.1 201.883 381.913 201.254 C 381.428 199.625 381.42 198.502 381.763 197.774 C 384.721 202.673 383.587 209.959 383.587 209.959 Z " fill="rgb(240,102,55)"/><path d=" M 318.311 333.787 L 327.658 305.541 L 332.666 266.591 L 332.666 314.34 L 318.311 333.787 Z " fill="rgb(240,102,55)"/><path d=" M 421.12 282.164 C 421.12 282.164 421.119 282.16 421.117 282.151 C 420.854 267.224 422.055 249.936 422.078 249.613 L 422.078 249.613 L 421.12 282.164 Z " fill="rgb(201,143,60)"/><path d=" M 421.117 282.151 C 420.977 281.624 416.768 265.583 417.046 253.708 C 418.787 252.353 420.462 250.989 422.078 249.613 C 422.055 249.936 420.854 267.224 421.117 282.151 Z " fill="rgb(240,102,55)"/><path d=" M 417.046 253.708 C 417.136 249.845 417.701 246.423 419.035 244.12 C 423.116 237.073 443.643 225.082 443.643 225.082 C 436.478 236.242 422.078 249.609 422.078 249.609 L 422.078 249.613 L 422.078 249.613 C 420.462 250.989 418.787 252.353 417.046 253.708 Z " fill="rgb(240,102,55)"/><path d=" M 436.036 187.852 L 426.573 178.761 L 429.043 174.35 L 436.036 187.852 Z " fill="rgb(240,102,55)"/><path d=" M 303.493 295.268 L 303.493 295.268 C 303.493 295.268 303.493 295.268 303.493 295.268 Z  M 303.493 295.267 L 304.054 292.466 L 304.054 292.466 C 303.705 294.218 303.501 295.232 303.493 295.267 Z " fill="rgb(247,153,52)"/><path d=" M 303.493 295.268 L 303.493 295.268 C 303.493 295.268 303.493 295.268 303.493 295.268 L 303.493 295.267 C 303.501 295.232 303.705 294.218 304.054 292.466 L 310.727 289.663 L 303.493 295.268 Z " fill="rgb(240,102,55)"/><path d=" M 374.423 443.086 L 367.034 443.086 L 374.423 443.086 L 375.652 438.902 C 375.714 438.901 375.772 438.901 375.834 438.9 L 374.423 443.086 Z " fill="rgb(192,201,216)"/><path d=" M 375.652 438.902 L 382.872 414.321 L 383.096 417.352 L 375.834 438.9 C 375.772 438.901 375.714 438.901 375.652 438.902 Z " fill="rgb(157,184,190)"/><path d=" M 374.423 443.086 L 367.034 443.086 L 379.172 364.063 L 382.872 414.321 L 374.423 443.086 Z " fill="rgb(83,102,137)"/><path d=" M 177.986 188.842 L 181.014 169.888 C 181.014 169.888 194.167 195.536 183.983 221.306 C 183.983 221.306 179.613 241.7 180.146 245.335 C 180.679 248.971 167.626 245.335 167.626 245.335 L 153.831 240.061 L 152.152 205.843 L 177.986 188.842 Z " fill="rgb(55,52,53)"/><path d=" M 176.773 241.771 C 171.274 239.02 165.469 237.419 163.3 235.988 C 162.809 235.629 162.497 235.301 162.431 235.022 L 162.431 235.022 C 162.42 234.972 162.411 234.919 162.404 234.863 C 162.22 233.278 163.626 227.722 164.673 223.891 C 165.208 223.643 165.735 223.364 166.252 223.054 C 169.242 221.258 172.021 218.232 174.342 214.515 C 175.369 212.98 176.264 211.397 177.023 209.737 C 177.831 209.7 178.579 209.376 179.236 208.858 C 178.624 213.595 177.766 219.643 176.865 224.133 C 175.989 228.504 176.279 235.737 176.773 241.771 Z " fill="rgb(42,42,42)"/><path d=" M 165.752 220.076 C 165.752 220.076 161.877 232.438 162.431 235.022 C 162.984 237.604 178.868 240.003 185.595 248.307 C 192.322 256.609 162.376 260.669 162.376 260.669 L 143.979 264.913 L 116.856 236.313 L 121.838 222.659 L 141.05 230.039 L 145.271 213.249 L 165.752 220.076 Z " fill="rgb(242,179,169)"/><path d=" M 163.3 235.988 C 162.805 235.661 162.499 235.342 162.431 235.022 C 162.497 235.301 162.809 235.629 163.3 235.988 Z  M 162.404 234.863 C 162.165 233.043 163.551 227.66 164.613 223.918 C 164.633 223.909 164.653 223.9 164.673 223.891 C 163.626 227.722 162.22 233.278 162.404 234.863 Z " fill="rgb(43,42,42)"/><path d=" M 164.016 243.923 C 159.825 243.923 155.327 243.133 151.718 240.581 C 144.609 235.555 144.156 224.728 144.377 219.605 C 147.067 222.898 151.336 225.003 155.887 225.396 C 155.854 225.443 155.821 225.49 155.787 225.537 C 156.014 225.556 156.252 225.565 156.499 225.565 C 157.014 225.565 157.569 225.525 158.151 225.449 C 160.336 225.361 162.536 224.87 164.613 223.918 C 163.551 227.66 162.165 233.043 162.404 234.863 C 162.41 234.921 162.419 234.974 162.431 235.022 L 162.431 235.022 C 162.499 235.342 162.805 235.661 163.3 235.988 C 166.438 238.28 176.865 241.82 176.865 241.82 C 176.865 241.82 170.85 243.923 164.016 243.923 Z " fill="rgb(236,151,138)"/><path d=" M 148.796 179.591 L 138.035 171.918 C 138.035 171.918 125.746 186.402 123.567 215.169 L 136.182 225.463 L 142.155 225.585 L 152.152 196.201 L 148.796 179.591 Z " fill="rgb(55,52,53)"/><path d=" M 141.862 187.924 C 145.722 176.23 154.686 167.528 168.52 171.885 C 189.793 178.584 180.394 214.559 166.252 223.054 C 157.677 228.205 146.158 224.632 142.589 216.731 C 138.956 208.69 138.755 197.338 141.862 187.924 Z " fill="rgb(242,179,169)"/><path d=" M 174.342 214.515 C 175.274 213.023 176.131 211.421 176.899 209.74 C 176.941 209.74 176.982 209.739 177.023 209.737 C 176.264 211.397 175.369 212.98 174.342 214.515 Z " fill="rgb(42,42,42)"/><path d=" M 156.499 225.565 C 156.252 225.565 156.014 225.556 155.787 225.537 C 155.821 225.49 155.854 225.443 155.887 225.396 C 156.401 225.44 156.919 225.463 157.438 225.463 C 157.675 225.463 157.913 225.458 158.151 225.449 C 157.569 225.525 157.014 225.565 156.499 225.565 Z " fill="rgb(233,140,127)"/><path d=" M 157.438 225.463 C 156.919 225.463 156.401 225.44 155.887 225.396 C 159.841 219.719 157.135 212.705 160.214 210.91 C 164.054 208.671 160.111 208.127 161.58 197.535 C 162.241 192.77 166.285 183.908 166.285 183.908 L 171.695 182.699 C 172.964 188.113 174.9 194.937 177.259 198.667 C 176.289 199.464 175.681 200.707 175.681 200.707 L 173.811 208.391 L 173.811 208.391 C 174.881 209.34 175.915 209.741 176.869 209.741 C 176.879 209.741 176.889 209.741 176.899 209.74 C 176.131 211.421 175.274 213.023 174.342 214.515 C 172.99 216.535 171.411 218.473 169.611 220.397 C 167.458 222.7 162.175 224.924 158.151 225.449 C 157.913 225.458 157.675 225.463 157.438 225.463 Z " fill="rgb(239,167,156)"/><path d=" M 167.967 357.575 C 167.967 357.575 182.014 383.761 184.494 443.086 L 63.769 443.086 C 63.769 443.086 63.689 415.586 74.64 380.941 C 85.59 346.297 97.531 338.24 97.531 338.24 L 167.967 357.575 Z " fill="rgb(165,186,87)"/><path d=" M 80.877 418.46 C 82.002 387.716 87.362 370.673 91.198 362.242 C 94.531 362.332 97.411 363.941 100.694 365.926 C 89.072 383.858 80.877 418.46 80.877 418.46 Z " fill="rgb(109,138,71)"/><path d=" M 168.323 420.907 C 168.323 420.907 165.25 392.105 157.835 372.336 C 158.819 372.418 159.8 372.465 160.771 372.465 C 162.959 372.464 165.095 372.226 167.092 371.61 C 169.073 381.703 170.429 397.493 168.323 420.907 Z " fill="rgb(109,138,71)"/><path d=" M 114.241 421.696 C 109.835 397.679 109.9 381.513 111.076 371.334 C 112.205 371.754 113.4 372.136 114.676 372.465 C 116.44 372.919 118.223 373.15 120.006 373.222 C 114.651 393.532 114.241 421.696 114.241 421.696 Z " fill="rgb(109,138,71)"/><path d=" M 133.755 432.201 C 129.58 403.862 129.121 384.391 129.597 372.406 C 130.833 372.189 132.051 371.948 133.241 371.707 C 135.755 371.197 138.147 370.687 140.347 370.401 C 136.076 395.055 133.755 432.201 133.755 432.201 Z " fill="rgb(109,138,71)"/><path d=" M 177.882 168.041 C 177.882 168.041 180.224 190.073 162.692 190.856 C 145.161 191.639 145.72 186.104 137.33 196.201 C 132.929 201.497 131.286 187.093 132.576 181.125 C 134.813 170.773 158.865 149.01 177.882 168.041 Z " fill="rgb(55,52,53)"/><path d=" M 170.051 174.709 C 170.051 174.709 174.292 199.804 180.146 201.339 C 187.951 203.385 189.739 171.918 175.099 165.698 C 161.96 160.114 170.195 176.246 170.195 176.246 L 178.73 181.126 L 170.051 174.709 Z " fill="rgb(55,52,53)"/><path d=" M 159.306 276.797 L 177.909 252.242 C 178.238 251.808 178.801 251.62 179.32 251.785 C 182.872 252.914 195.945 258.54 195.657 280.09 C 195.345 303.511 191.64 324.892 191.191 327.397 C 191.161 327.566 191.165 327.722 191.203 327.89 C 191.937 331.18 198.69 369.691 201.861 379.078 C 205.19 388.929 206.309 396.557 202.98 403.547 C 199.652 410.536 192.038 412.668 191.556 411.337 C 191.126 410.153 195.408 405.588 195.487 401.893 C 195.493 401.64 195.641 401.414 195.609 401.163 L 195.113 397.196 C 194.962 395.984 193.371 395.637 192.727 396.674 L 191.175 399.175 L 191.123 399.267 L 190.367 400.742 C 189.77 401.906 188.021 401.554 187.922 400.249 C 187.683 397.075 188.477 393.308 188.23 392.562 C 187.872 391.483 189.628 386.249 190.73 384.305 C 190.982 383.857 190.948 383.31 190.641 382.899 C 187.713 378.976 173.015 359.04 170.497 350.956 C 167.846 342.444 159.887 283.91 159.054 277.748 C 159.008 277.408 159.099 277.07 159.306 276.797 Z " fill="rgb(242,179,169)"/><path d=" M 113.744 241.82 L 118.352 230.913 L 100.218 178.72 C 99.547 177.356 99.153 175.873 99.059 174.356 L 95.622 121.254 L 81.352 117.899 L 76.927 175.523 C 76.367 182.393 76.892 189.307 78.483 196.012 L 99.542 263.701 L 113.744 241.82 Z " fill="rgb(242,179,169)"/><path d=" M 176.865 241.82 L 155.067 270.593 C 155.067 270.593 163.645 334.319 167.303 350.599 C 180.141 332.191 191.102 327.077 191.102 327.077 C 191.102 327.077 195.781 301.736 196.154 273.805 C 196.527 245.873 176.865 241.82 176.865 241.82 Z " fill="rgb(40,116,97)"/><path d=" M 96.438 130.37 C 96.438 130.37 95.013 122.827 95.795 116.973 C 96.578 111.118 97.848 109.871 98.545 104.875 C 99.242 99.878 102.004 92.5 101.252 92.219 C 100.499 91.938 97.707 91.194 96.484 94.645 C 95.26 98.096 93.699 101.589 93.699 101.589 L 89.928 85.367 C 89.928 85.367 88.505 78.968 86.046 79.769 C 83.538 80.585 87.945 93.149 86.965 93.577 C 85.562 94.191 82.741 86.586 82.741 86.586 C 82.741 86.586 80.02 78.289 77.546 79.043 C 75.071 79.796 81.177 93.468 81.177 93.468 C 81.177 93.468 81.722 95.895 80.24 95.175 C 78.759 94.454 74.73 83.229 72.374 83.461 C 70.018 83.693 74.521 92.833 74.521 92.833 C 74.521 92.833 77.792 97.744 75.749 98.047 C 74.765 98.193 73.167 96.344 71.603 94.495 C 69.919 92.503 68.273 90.51 67.477 91.012 C 65.941 91.979 70.006 98.218 71.823 100.361 C 73.639 102.504 75.582 106.016 76.322 109.036 C 77.061 112.056 78.146 116.042 81.287 117.632 L 82.073 128.102 L 96.438 130.37 Z " fill="rgb(242,179,169)"/><path d=" M 88.979 111.776 L 87.586 106.796 C 87.586 106.796 91.666 103.506 93.262 101.993 C 93.262 101.993 88.87 108.582 88.979 111.776 Z " fill="rgb(239,167,156)"/><path d=" M 100.218 178.72 C 99.547 177.356 99.153 175.873 99.059 174.356 C 99.059 174.356 91.103 186.349 77.246 189.147 C 77.54 191.452 77.945 193.745 78.483 196.012 L 96.964 273.909 L 113.744 241.82 C 113.744 241.82 126.081 226.816 122.957 222.659 C 112.252 208.42 100.218 178.72 100.218 178.72 Z " fill="rgb(40,116,97)"/><path d=" M 157.742 245.235 C 164.051 245.475 171.902 244.983 176.865 241.82 C 176.865 241.82 187.951 246.454 190.747 257.082 C 193.544 267.709 178.925 281.211 176.865 297.953 C 174.806 314.694 171.73 340.145 171.73 340.145 C 171.73 340.145 176.942 366.483 170.001 370.374 C 163.06 374.265 153.551 371.797 146 370.374 C 142.558 369.725 138.128 370.716 133.241 371.707 C 127.405 372.889 120.916 374.072 114.676 372.465 C 103.21 369.51 98.176 362.238 90.904 362.238 C 83.633 362.238 76.361 360.84 78.319 353.01 C 80.277 345.179 92.303 314.415 92.583 305.185 C 92.862 295.956 96.218 264.913 96.218 264.913 C 96.218 264.913 106.802 223.53 118.885 221.306 C 123.567 220.445 130.737 227.845 130.737 227.845 C 130.737 227.845 131.616 230.26 134.173 233.514 C 139.853 240.741 148.557 244.885 157.742 245.235 Z " fill="rgb(40,116,97)"/><path d=" M 172.367 343.869 C 172.367 343.868 172.366 343.866 172.366 343.864 C 175.507 339.999 178.442 336.945 181.013 334.564 C 181.014 334.566 181.014 334.567 181.014 334.567 L 172.367 343.869 Z " fill="rgb(94,118,104)"/><path d=" M 172.366 343.864 C 172.017 341.594 171.73 340.145 171.73 340.145 C 171.73 340.145 174.806 314.694 176.865 297.953 C 177.225 295.024 177.97 292.194 178.939 289.461 C 178.465 316.517 180.971 334.265 181.013 334.564 C 178.442 336.945 175.507 339.999 172.366 343.864 Z " fill="rgb(40,80,65)"/><path d=" M 172.212 345.302 C 172.114 345.302 171.96 344.215 171.73 340.145 C 171.117 329.314 179.102 283.092 179.102 283.092 C 179.029 285.266 178.975 287.392 178.939 289.461 C 177.97 292.194 177.225 295.024 176.865 297.953 C 174.806 314.694 171.73 340.145 171.73 340.145 C 171.73 340.145 172.017 341.594 172.366 343.864 C 172.366 343.866 172.367 343.868 172.367 343.869 L 172.366 343.87 C 172.366 343.87 172.326 345.302 172.212 345.302 Z " fill="rgb(40,80,65)"/><path d=" M 134.813 209.584 C 134.813 209.584 127.542 194.825 124.465 208.754 C 121.389 222.682 124.018 232.221 124.975 240.557 C 126.773 256.231 114.788 264.378 114.788 264.378 C 114.788 264.378 141.658 271.009 141.809 251.726 C 141.962 232.044 139.686 236.402 142.589 222.325 C 143.342 218.67 131.177 218.282 134.813 209.584 Z " fill="rgb(55,52,53)"/><path d=" M 95.588 270.878 C 95.592 270.839 95.596 270.8 95.6 270.762 C 95.596 270.801 95.592 270.839 95.588 270.878 Z  M 95.622 270.555 C 95.687 269.87 95.594 268.725 95.381 267.235 L 95.789 268.957 C 95.737 269.453 95.681 269.988 95.622 270.555 Z  M 86.332 229.096 C 85.741 226.905 85.377 225.585 85.377 225.585 L 85.62 226.096 L 86.332 229.096 Z " fill="rgb(83,148,132)"/><path d=" M 95.789 268.957 L 95.381 267.235 C 94.113 258.391 88.58 237.434 86.332 229.096 L 85.62 226.096 L 99.214 254.708 C 97.318 260.612 96.218 264.913 96.218 264.913 C 96.218 264.913 96.051 266.456 95.789 268.957 Z " fill="rgb(40,80,65)"/><path d=" M 93.59 296.21 C 93.59 296.21 94.782 278.665 95.588 270.878 C 95.592 270.839 95.596 270.801 95.6 270.762 C 95.606 270.705 95.612 270.649 95.618 270.593 C 95.619 270.58 95.621 270.567 95.622 270.555 C 95.681 269.988 95.737 269.453 95.789 268.957 C 96.051 266.456 96.218 264.913 96.218 264.913 C 96.218 264.913 97.318 260.612 99.214 254.708 L 102.922 262.515 L 93.59 296.21 Z " fill="rgb(40,80,65)"/><path d=" M 144.059 194.351 C 144.059 194.351 143.204 187.759 138.502 190.905 C 133.801 194.052 135.167 206.986 143.247 203.574" fill="rgb(242,179,169)"/><path d=" M 175.681 200.707 C 175.681 200.707 178.178 195.608 181.12 199.441 C 184.062 203.274 179.414 213.365 173.811 208.391 L 175.681 200.707 Z " fill="rgb(242,179,169)"/><path d=" M 176.869 209.741 C 175.915 209.741 174.881 209.34 173.811 208.391 L 175.681 200.707 C 175.681 200.707 177 198.013 178.85 198.013 C 179.546 198.013 180.316 198.394 181.12 199.441 C 181.747 200.259 182.029 201.361 182.031 202.542 C 182.034 205.838 179.846 209.741 176.869 209.741 Z " fill="rgb(239,167,156)"/><path d=" M 616.089 177.43 C 616.089 177.43 611.71 181.468 615.102 178.949 C 622.102 173.75 638.859 176.079 642.158 196.909 C 644.83 213.787 641.703 220.469 655.993 224.497 C 664.977 227.03 671.045 232.973 673.736 242.124 C 676.428 251.274 676.521 260.506 686.512 271.464 C 696.503 282.423 680.711 301.254 666.207 302.313 C 651.704 303.372 606.719 297.758 606.719 297.758 L 616.089 177.43 Z " fill="rgb(55,52,53)"/><path d=" M 620.958 176.527 C 620.958 176.527 621.024 174.067 613.993 172.995 C 598.785 170.674 589.116 180.665 585.049 195.518 C 580.964 210.432 587.394 214.699 574.613 222.542 C 561.833 230.384 555.612 232.602 553.579 250.029 C 551.546 267.457 560.26 266.515 553.579 277.588 C 546.898 288.661 561.131 302.313 561.131 302.313 L 583.787 299.409 L 598.019 297.956 L 610.8 297.665 L 619.224 265.424 L 620.958 176.527 Z " fill="rgb(55,52,53)"/><path d=" M 673.281 273.689 C 671.627 267.89 669.793 262.789 667.815 259.044 C 661.914 247.87 652.904 245.384 646.054 245.384 C 645.755 245.384 645.462 245.389 645.172 245.398 C 644.546 245.341 643.894 245.311 643.217 245.311 C 642.725 245.311 642.221 245.327 641.701 245.358 L 641.701 245.358 C 641.701 245.358 640.082 245.162 638.077 244.627 L 634.103 243.076 C 632.216 242.34 630.869 240.673 630.524 238.708 C 630.358 236.057 630.087 231.901 629.862 228.468 C 630.154 227.84 630.441 227.207 630.719 226.568 C 632.227 223.857 633.417 220.662 634.245 217.225 C 634.428 217.172 634.605 217.111 634.777 217.042 C 634.818 217.396 634.851 217.756 634.874 218.123 C 634.88 218.642 634.893 219.146 634.915 219.629 C 634.907 220.563 634.839 221.533 634.7 222.542 C 633.576 230.732 649.154 233.964 659.036 242.254 C 667.5 249.354 671.795 263.163 673.281 273.689 Z " fill="rgb(42,42,42)"/><path d=" M 561.918 267.374 C 559.846 245.895 577.809 235.819 586.377 231.91 C 595.561 227.72 592.381 222.542 592.381 222.542 C 589.257 212.314 590.57 205.27 592.515 200.891 C 592.508 200.983 592.501 201.075 592.494 201.166 C 591.727 211.803 594.92 223.593 600.821 231.026 C 601.103 231.381 601.401 231.72 601.716 232.044 C 601.754 232.133 601.796 232.227 601.841 232.326 L 601.88 236.6 C 601.901 238.952 600.492 241.08 598.318 241.977 L 590.047 245.389 C 590.047 245.389 590.345 245.592 590.909 245.93 C 589.975 246.007 589.089 246.111 588.244 246.242 C 587.756 246.178 587.049 246.115 586.169 246.115 C 582.727 246.115 576.636 247.083 570.588 252.78 C 567.819 255.389 564.792 260.925 561.918 267.374 Z " fill="rgb(42,42,42)"/><path d=" M 587.566 370.732 L 565.973 390.392 L 565.37 443.086 L 611.739 443.086 L 627.727 379.665 L 587.566 370.732 Z " fill="rgb(50,80,136)"/><path d=" M 592.018 443.086 L 573.779 443.086 L 573.5 443.086 L 565.37 443.086 L 565.973 390.392 L 565.973 390.392 C 567.402 392.297 585.393 397.701 607.445 400.039 C 606.588 403.402 605.332 406.652 603.71 409.724 C 599.735 417.253 592.955 430.49 594.422 430.49 C 594.47 430.49 594.528 430.475 594.596 430.445 C 596.851 429.443 600.3 426.694 601.727 425.518 L 601.548 426.317 L 592.018 443.086 Z " fill="rgb(52,77,130)"/><path d=" M 611.739 443.086 L 598.1 443.086 L 598.297 443.086 L 592.018 443.086 L 611.739 443.086 L 612.409 440.428 C 612.458 440.421 612.508 440.415 612.558 440.408 L 611.739 443.086 Z " fill="rgb(166,188,211)"/><path d=" M 612.409 440.428 L 615.641 427.609 L 615.759 429.936 L 612.558 440.408 C 612.508 440.415 612.458 440.421 612.409 440.428 Z " fill="rgb(135,171,185)"/><path d=" M 611.739 443.086 L 592.018 443.086 L 601.548 426.317 L 601.727 425.518 C 600.3 426.694 596.851 429.443 594.596 430.445 C 594.528 430.475 594.47 430.49 594.422 430.49 C 592.955 430.49 599.735 417.253 603.71 409.724 C 605.332 406.652 606.588 403.402 607.445 400.039 C 609.683 400.276 611.961 400.481 614.27 400.649 L 615.641 427.609 L 611.739 443.086 Z " fill="rgb(53,66,108)"/><path d=" M 613.441 384.352 L 647.748 360.846 C 657.909 353.884 671.633 361.15 674.041 373.23 C 678.906 397.644 671.436 402.212 666.979 421.798 L 660.847 443.086 L 616.428 443.086 L 613.441 384.352 Z " fill="rgb(50,80,136)"/><path d=" M 530.659 269.903 C 530.659 269.903 527.665 262.819 527.191 256.922 C 526.717 251.023 527.697 249.533 527.32 244.493 C 526.944 239.453 528.086 231.643 527.289 231.528 C 526.493 231.412 523.602 231.275 523.135 234.913 C 522.668 238.552 521.879 242.303 521.879 242.303 L 514.75 227.218 C 514.75 227.218 512 221.253 509.763 222.559 C 507.48 223.89 514.457 235.258 513.588 235.885 C 512.344 236.783 507.971 229.934 507.971 229.934 C 507.971 229.934 503.55 222.387 501.286 223.649 C 499.022 224.911 507.897 237.004 507.897 237.004 C 507.897 237.004 508.945 239.266 507.342 238.874 C 505.739 238.482 499.416 228.344 497.158 229.071 C 494.9 229.797 501.246 237.793 501.246 237.793 C 501.246 237.793 505.489 241.909 503.553 242.638 C 502.617 242.991 500.648 241.506 498.718 240.02 C 496.654 238.433 494.634 236.845 493.963 237.503 C 492.663 238.774 497.967 244.021 500.198 245.735 C 502.431 247.448 505.078 250.476 506.442 253.276 C 507.806 256.076 509.713 259.75 513.125 260.642 L 516.113 270.727 L 530.659 269.903 Z " fill="rgb(242,179,169)"/><path d=" M 519.416 253.277 L 516.996 248.697 C 516.996 248.697 520.295 244.611 521.537 242.791 C 521.537 242.791 518.633 250.173 519.416 253.277 Z " fill="rgb(239,167,156)"/><path d=" M 641.701 245.358 C 641.701 245.358 626.72 248.415 601.748 246.115 C 570.932 243.277 571.735 258.523 573.061 281.728 C 574.388 304.934 575.766 332.862 575.766 332.862 C 575.766 332.862 563.072 386.524 565.973 390.392 C 568.874 394.26 640.061 412.554 674.87 390.315 C 674.87 390.315 680.711 380.692 664.248 341.771 C 650.844 310.083 659.278 278.065 659.278 278.065 C 659.278 278.065 666.046 243.868 641.701 245.358 Z " fill="rgb(190,58,60)"/><path d=" M 589.013 246.372 C 589.013 246.372 579.751 244.149 570.588 252.78 C 561.444 261.394 549.495 301.909 549.495 301.909 L 527.642 259.323 C 527.642 259.323 522.875 262.14 512.959 263.585 C 512.959 263.585 515.268 355.424 544.142 352.642 C 557.753 351.33 580.013 324.248 580.013 324.248 L 581.121 258.713 L 589.013 246.372 Z " fill="rgb(190,58,60)"/><path d=" M 546.425 352.256 C 546.417 352.243 546.409 352.23 546.401 352.217 C 555.738 349.682 567.994 337.57 574.83 330.141 C 572.363 332.971 557.649 349.416 546.425 352.256 Z " fill="rgb(155,55,56)"/><path d=" M 544.142 352.642 L 544.142 352.642 C 544.871 352.571 545.626 352.427 546.401 352.217 C 546.409 352.23 546.417 352.243 546.425 352.256 C 545.645 352.453 544.883 352.585 544.142 352.642 Z " fill="rgb(43,45,45)"/><path d=" M 544.142 352.642 C 544.142 352.642 556.083 346.577 560.715 338.11 C 565.113 330.071 559.978 328.217 561.65 325.608 C 566.98 317.29 573.061 292.995 573.061 292.995 L 575.188 329.726 C 575.188 329.726 575.065 329.872 574.83 330.141 C 567.994 337.57 555.738 349.682 546.401 352.217 L 546.401 352.217 C 545.626 352.427 544.871 352.571 544.142 352.642 Z " fill="rgb(143,49,50)"/><path d=" M 622.053 364.931 L 645.53 320.885 L 642.13 297.864 L 651.415 322.307 L 622.053 364.931 Z " fill="rgb(143,49,50)"/><path d=" M 612.003 394.858 L 626.418 376.543 L 631.743 383.48 C 646.304 373.881 659.69 362.995 668.759 353.832 L 671.399 360.891 L 612.003 394.858 Z " fill="rgb(143,49,50)"/><path d=" M 597.225 392.245 C 596.697 390.962 598.428 390.25 602.813 388.423 C 602.978 388.354 603.778 387.432 603.961 387.353 C 604.647 386.988 598.473 389.758 597.834 388.61 C 596.988 387.088 598.182 386.244 603.73 383.884 C 607.307 382.362 610.728 381.159 611.045 379.828 C 611.862 376.402 602.114 377.518 605.782 375.511 C 607.006 374.842 610.229 373.741 611.909 373.282 C 615.118 372.406 614.641 372.329 620.739 372.113 C 630.318 371.773 637.379 356.369 634.89 367.744 C 634.057 371.553 632.938 375.531 630.393 379.195 C 625.332 386.479 617.151 392.671 612.003 394.858 C 611.67 395 611.344 395.147 611.022 395.289 C 608.45 396.547 605.985 397.053 605.514 396.449 C 604.796 395.529 607.858 393.82 610.26 392.842 C 610.948 392.561 602.312 396.026 601.498 395.006 C 600.634 393.921 604.512 392.104 607.354 390.913 C 608.144 390.582 598.027 394.196 597.225 392.245 Z " fill="rgb(233,155,136)"/><path d=" M 635.491 246.982 L 636.458 246.982 C 636.458 246.982 657.182 238.912 667.815 259.044 C 675.266 273.148 680.652 306.466 682.23 324.059 C 682.935 331.906 680.67 339.746 675.814 345.952 C 667.817 356.172 650.784 370.928 631.743 383.48 L 620.958 369.431 L 651.415 322.307 L 634.605 278.055 C 630.513 267.284 627.331 255.115 635.491 246.982 Z " fill="rgb(190,58,60)"/><path d=" M 603.633 226.699 L 601.775 225.172 L 601.88 236.6 C 601.901 238.952 600.492 241.08 598.318 241.977 L 590.047 245.389 C 590.047 245.389 601.328 253.05 616.103 252.868 C 628.938 252.711 640.563 245.597 640.563 245.597 L 634.103 243.076 C 632.016 242.262 630.59 240.31 630.449 238.074 L 629.473 222.542 L 603.633 226.699 Z " fill="rgb(242,179,169)"/><path d=" M 640.496 245.571 L 638.077 244.627 C 640.082 245.162 641.701 245.358 641.701 245.358 C 641.701 245.358 641.292 245.442 640.496 245.571 Z " fill="rgb(43,42,42)"/><path d=" M 639.764 246.057 C 640.283 245.768 640.563 245.597 640.563 245.597 L 640.496 245.571 C 641.292 245.442 641.701 245.358 641.701 245.358 L 641.701 245.358 C 641.714 245.479 641.632 245.61 641.451 245.746 C 640.843 245.841 640.279 245.947 639.764 246.057 Z " fill="rgb(184,54,56)"/><path d=" M 630.524 238.708 C 630.488 238.499 630.463 238.288 630.449 238.074 L 629.847 228.5 C 629.852 228.489 629.857 228.479 629.862 228.468 C 630.087 231.901 630.358 236.057 630.524 238.708 Z " fill="rgb(43,42,42)"/><path d=" M 601.841 232.326 C 601.796 232.227 601.754 232.133 601.716 232.044 C 601.757 232.086 601.798 232.128 601.839 232.17 L 601.841 232.326 Z " fill="rgb(43,42,42)"/><path d=" M 638.635 246.665 C 639.086 246.429 639.465 246.223 639.764 246.057 C 640.279 245.947 640.843 245.841 641.451 245.746 C 641.039 246.055 640.116 246.386 638.635 246.665 Z " fill="rgb(184,54,56)"/><path d=" M 629.604 247.312 C 627.136 247.312 624.261 247.211 620.958 246.968 C 609.096 246.097 603.487 235.974 601.841 232.326 L 601.839 232.17 C 604.872 235.214 609.291 236.822 613.854 236.822 C 614.89 236.822 615.935 236.739 616.971 236.571 C 616.949 236.628 616.927 236.686 616.904 236.744 C 621.151 236.044 627.803 232.81 629.568 229.093 C 629.662 228.896 629.755 228.698 629.847 228.5 L 630.449 238.074 C 630.463 238.288 630.488 238.499 630.524 238.708 C 630.53 238.792 630.535 238.875 630.54 238.956 C 630.735 242.076 634.893 243.778 638.077 244.627 L 640.496 245.571 L 640.563 245.597 C 640.563 245.597 640.283 245.768 639.764 246.057 C 639.465 246.223 639.086 246.429 638.635 246.665 C 636.656 247.036 633.684 247.312 629.604 247.312 Z " fill="rgb(235,145,132)"/><path d=" M 592.494 201.166 C 593.447 187.954 600.513 176.521 616.089 177.43 C 640.039 178.828 639.688 218.825 627.168 231.404 C 619.576 239.031 606.621 238.331 600.821 231.026 C 594.92 223.593 591.727 211.803 592.494 201.166 Z " fill="rgb(242,179,169)"/><path d=" M 629.862 228.468 C 629.853 228.326 629.844 228.185 629.835 228.046 C 630.141 227.571 630.436 227.079 630.719 226.568 C 630.441 227.207 630.154 227.84 629.862 228.468 Z " fill="rgb(42,42,42)"/><path d=" M 629.847 228.5 L 629.82 228.069 C 629.825 228.061 629.83 228.054 629.835 228.046 C 629.844 228.185 629.853 228.326 629.862 228.468 C 629.857 228.479 629.852 228.489 629.847 228.5 Z " fill="rgb(43,42,42)"/><path d=" M 616.904 236.744 C 616.927 236.686 616.949 236.628 616.971 236.571 C 620.685 235.969 624.308 234.277 627.168 231.404 C 628.125 230.443 629.011 229.321 629.82 228.069 L 629.847 228.5 C 629.755 228.698 629.662 228.896 629.568 229.093 C 627.803 232.81 621.151 236.044 616.904 236.744 Z " fill="rgb(231,133,120)"/><path d=" M 616.971 236.571 C 619.604 229.61 614.939 223.004 617.678 220.322 C 621.096 216.978 616.84 217.446 615.589 206.011 C 615.025 200.866 616.916 190.56 616.916 190.56 L 617.476 190.278 C 618.541 193.353 621.034 197.762 626.632 198.241 C 630.282 198.553 632.331 200.412 633.475 203.023 C 630.802 203.426 630.54 207.022 630.54 207.022 L 630.54 207.022 L 630.54 207.022 L 631.399 217.403 C 631.76 217.449 632.106 217.471 632.439 217.471 C 632.977 217.471 633.478 217.413 633.944 217.304 C 633.137 220.521 632.01 223.607 630.719 226.568 C 630.436 227.079 630.141 227.571 629.835 228.046 C 629.83 228.054 629.825 228.061 629.82 228.069 C 629.011 229.321 628.125 230.443 627.168 231.404 C 624.308 234.277 620.685 235.969 616.971 236.571 Z " fill="rgb(239,165,154)"/><path d=" M 553.579 317.126 L 549.495 301.909 L 551.537 295.345 L 553.579 317.126 Z " fill="rgb(143,49,50)"/><path d=" M 585.849 199.107 C 586.515 192.312 592.381 174.856 613.993 172.995 C 622.253 172.283 622.053 186.718 616.183 194.414 C 612.362 199.421 608.133 199.557 601.967 201.489 C 590.13 205.198 592.381 222.542 592.381 222.542 C 592.381 222.542 585.313 204.58 585.849 199.107 Z " fill="rgb(55,52,53)"/><path d=" M 616.734 187.287 C 616.734 187.287 617.943 197.497 626.632 198.241 C 641.222 199.49 630.229 225.442 638.141 225.442 C 641.492 225.442 637.942 206.695 637.942 206.695 L 636.209 194.91 L 632.974 184.511 L 628.494 181.622 L 619.024 176.624 L 615.122 180.33 L 616.734 187.287 Z " fill="rgb(55,52,53)"/><path d=" M 597.996 207.312 C 597.996 207.312 597.598 201.854 592.784 203.633 C 587.97 205.413 588.257 218.832 597.137 217.693" fill="rgb(242,179,169)"/><path d=" M 630.54 207.022 C 630.54 207.022 630.937 201.564 635.752 203.343 C 640.566 205.123 640.279 218.542 631.399 217.403 L 630.54 207.022 Z " fill="rgb(242,179,169)"/><path d=" M 632.439 217.471 C 632.106 217.471 631.76 217.449 631.399 217.403 L 630.54 207.022 C 630.54 207.022 630.834 202.987 633.977 202.987 C 634.489 202.987 635.077 203.094 635.752 203.343 C 637.741 204.079 638.859 206.801 638.86 209.662 C 638.86 210.247 638.814 210.838 638.719 211.419 C 638.324 213.826 637.091 216.062 634.87 217.003 C 634.162 217.303 633.353 217.471 632.439 217.471 Z " fill="rgb(239,165,154)"/></g></g></svg>